# Blender 4.5.4 LTS
# www.blender.org
mtllib cover_window.mtl
o cover_window
v -4.286965 2.655967 -5.112684
v -4.066965 2.435967 -5.112684
v -4.286965 2.655967 -5.042093
v -4.066965 2.435967 -5.042093
v -0.805188 2.655967 -5.112684
v -1.025188 2.435967 -5.042093
v -1.025188 2.435967 -5.112684
v -0.805188 2.655967 -5.042093
v -0.805188 0.345477 -5.042093
v -1.025188 0.345477 -5.042093
v -1.025188 0.345477 -5.112684
v -0.805188 0.345477 -5.112684
v -4.286965 0.345477 -5.112684
v -4.066965 0.345477 -5.112684
v -4.066965 0.345477 -5.042093
v -4.286965 0.345477 -5.042093
v 1.022292 2.655746 -5.101361
v 1.242292 2.435746 -5.101361
v 1.022292 2.655746 -5.030770
v 1.242292 2.435746 -5.030770
v 2.923295 2.655746 -5.101361
v 2.703295 2.435746 -5.030770
v 2.703295 2.435746 -5.101361
v 2.923295 2.655746 -5.030770
v 2.923295 0.761774 -5.030770
v 2.703295 0.981775 -5.030770
v 2.703295 0.981775 -5.101361
v 2.923295 0.761774 -5.101361
v 1.022292 0.761774 -5.101361
v 1.242292 0.981775 -5.101361
v 1.242292 0.981775 -5.030770
v 1.022292 0.761774 -5.030770
v -2.025944 5.452094 -5.112684
v -1.805943 5.232094 -5.112684
v -2.025944 5.452094 -5.042093
v -1.805943 5.232094 -5.042093
v 1.462244 5.452094 -5.112684
v 1.242244 5.232094 -5.042093
v 1.242244 5.232094 -5.112684
v 1.462244 5.452094 -5.042093
v 1.462244 2.888123 -5.042093
v 1.242244 2.888123 -5.042093
v 1.242244 2.888123 -5.112684
v 1.462244 2.888123 -5.112684
v -2.025944 2.888123 -5.112684
v -1.805943 2.888123 -5.112684
v -1.805943 2.888123 -5.042093
v -2.025944 2.888123 -5.042093
v 0.452188 2.365408 4.512982
v 0.232188 2.145409 4.512982
v 0.452188 2.365408 4.442391
v 0.232188 2.145409 4.442391
v -1.015747 2.365408 4.512982
v -0.795747 2.145409 4.442391
v -0.795747 2.145409 4.512982
v -1.015747 2.365408 4.442391
v -1.015747 0.345880 4.442391
v -0.795747 0.345880 4.442391
v -0.795747 0.345880 4.512982
v -1.015747 0.345880 4.512982
v 0.452188 0.345880 4.512982
v 0.232188 0.345880 4.512982
v 0.232188 0.345880 4.442391
v 0.452188 0.345880 4.442391
v 3.229447 2.655746 4.512982
v 3.009447 2.435746 4.512982
v 3.229447 2.655746 4.442391
v 3.009447 2.435746 4.442391
v 1.351850 2.655746 4.512982
v 1.571850 2.435746 4.442391
v 1.571850 2.435746 4.512982
v 1.351850 2.655746 4.442391
v 1.351850 0.761774 4.442391
v 1.571850 0.981775 4.442391
v 1.571850 0.981775 4.512982
v 1.351850 0.761774 4.512982
v 3.229447 0.761774 4.512982
v 3.009447 0.981775 4.512982
v 3.009447 0.981775 4.442391
v 3.229447 0.761774 4.442391
v 1.961098 5.452094 4.512982
v 1.741097 5.232094 4.512982
v 1.961098 5.452094 4.442391
v 1.741097 5.232094 4.442391
v 0.508922 5.452094 4.512982
v 0.728923 5.232094 4.442391
v 0.728923 5.232094 4.512982
v 0.508922 5.452094 4.442391
v 0.508922 3.558123 4.442391
v 0.728923 3.778123 4.442391
v 0.728923 3.778123 4.512982
v 0.508922 3.558123 4.512982
v 1.961098 3.558123 4.512982
v 1.741097 3.778123 4.512982
v 1.741097 3.778123 4.442391
v 1.961098 3.558123 4.442391
v 0.418347 5.452094 4.512982
v 0.198347 5.232094 4.512982
v 0.418347 5.452094 4.442391
v 0.198347 5.232094 4.442391
v -1.033828 5.452094 4.512982
v -0.813828 5.232094 4.442391
v -0.813828 5.232094 4.512982
v -1.033828 5.452094 4.442391
v -1.033828 2.888123 4.442391
v -0.813828 2.888123 4.442391
v -0.813828 2.888123 4.512982
v -1.033828 2.888123 4.512982
v 0.418347 2.888123 4.512982
v 0.198347 2.888123 4.512982
v 0.198347 2.888123 4.442391
v 0.418347 2.888123 4.442391
v -1.081652 5.452094 4.512982
v -1.301653 5.232094 4.512982
v -1.081652 5.452094 4.442391
v -1.301653 5.232094 4.442391
v -2.533828 5.452094 4.512982
v -2.313828 5.232094 4.442391
v -2.313828 5.232094 4.512982
v -2.533828 5.452094 4.442391
v -2.533828 3.558123 4.442391
v -2.313828 3.778123 4.442391
v -2.313828 3.778123 4.512982
v -2.533828 3.558123 4.512982
v -1.081652 3.558123 4.512982
v -1.301653 3.778123 4.512982
v -1.301653 3.778123 4.442391
v -1.081652 3.558123 4.442391
v -1.910231 2.656671 4.512982
v -2.130231 2.436671 4.512982
v -1.910231 2.656671 4.442391
v -2.130231 2.436671 4.442391
v -3.787827 2.656671 4.512982
v -3.567827 2.436671 4.442391
v -3.567827 2.436671 4.512982
v -3.787827 2.656671 4.442391
v -3.787827 0.762699 4.442391
v -3.567827 0.982700 4.442391
v -3.567827 0.982700 4.512982
v -3.787827 0.762699 4.512982
v -1.910231 0.762699 4.512982
v -2.130231 0.982700 4.512982
v -2.130231 0.982700 4.442391
v -1.910231 0.762699 4.442391
v -5.090992 2.656671 2.763485
v -5.090992 2.436671 2.543484
v -5.020401 2.656671 2.763485
v -5.020401 2.436671 2.543484
v -5.090992 2.656671 0.908888
v -5.020402 2.436671 1.128888
v -5.090992 2.436671 1.128888
v -5.020402 2.656671 0.908888
v -5.020402 0.762699 0.908888
v -5.020402 0.982700 1.128888
v -5.090992 0.982700 1.128888
v -5.090992 0.762699 0.908888
v -5.090992 0.762699 2.763485
v -5.090992 0.982700 2.543484
v -5.020401 0.982700 2.543484
v -5.020401 0.762699 2.763485
v -5.090992 2.656671 -1.946001
v -5.090992 2.436671 -2.166001
v -5.020401 2.656671 -1.946001
v -5.020401 2.436671 -2.166001
v -5.090992 2.656671 -3.800598
v -5.020402 2.436671 -3.580597
v -5.090992 2.436671 -3.580597
v -5.020402 2.656671 -3.800598
v -5.020402 0.762699 -3.800598
v -5.020402 0.982700 -3.580597
v -5.090992 0.982700 -3.580597
v -5.090992 0.762699 -3.800598
v -5.090992 0.762699 -1.946001
v -5.090992 0.982700 -2.166001
v -5.020401 0.982700 -2.166001
v -5.020401 0.762699 -1.946001
vn -1.0000 -0.0000 -0.0000
vn -0.0000 -0.0000 -1.0000
vn -0.0000 -0.0000 1.0000
vn 1.0000 -0.0000 -0.0000
vn -0.0000 -1.0000 -0.0000
vn -0.0000 1.0000 -0.0000
vt 0.246762 0.668191
vt 0.282057 1.823436
vt 0.282057 0.668191
vt 0.503569 0.713436
vt 0.613569 -0.331809
vt 0.503569 -0.331809
vt 0.872680 0.668191
vt 0.982681 1.713436
vt 0.872680 1.823436
vt 0.282057 0.713436
vt 0.246762 -0.331809
vt 0.246762 0.713436
vt 0.613569 0.823436
vt 0.246762 0.823436
vt 0.282057 -0.331809
vt 0.282057 0.823436
vt 0.246762 1.713436
vt 0.982681 0.668191
vt 0.503569 0.246762
vt -1.017319 0.282057
vt 0.503569 0.282057
vt 2.613569 0.823436
vt 0.982681 0.713436
vt 0.872680 0.823436
vt -1.127320 0.823436
vt 0.872680 0.246762
vt 2.613569 0.282057
vt 0.872680 0.282057
vt 0.241100 0.876340
vt 0.276396 1.823326
vt 0.276396 0.876340
vt 0.477810 0.876340
vt -0.362691 0.986340
vt 0.367810 0.986340
vt 0.477810 0.823326
vt 0.367810 -0.013660
vt 0.367810 0.713326
vt 0.637309 0.986340
vt 0.527309 1.823326
vt 0.527309 0.876340
vt 0.276396 0.713326
vt 0.241100 -0.013660
vt 0.241100 0.713326
vt 0.477810 -0.123660
vt 0.241100 0.823326
vt 0.276396 -0.123660
vt 0.276396 0.823326
vt 0.477810 0.241100
vt -0.472691 0.276396
vt 0.477810 0.276396
vt 0.367810 0.276396
vt -0.362691 0.241100
vt 0.367810 0.241100
vt -0.472691 0.876340
vt 0.276396 0.986340
vt 0.241100 1.713326
vt 0.241100 0.986340
vt 0.637309 1.713326
vt -0.362691 0.276396
vt 1.477810 0.823326
vt 0.637309 0.713326
vt 0.527309 0.823326
vt -0.472691 0.823326
vt 0.527309 0.241100
vt 1.477810 0.276396
vt 0.527309 0.276396
vt 0.246762 0.939514
vt 0.282057 2.221500
vt 0.282057 0.939514
vt 0.637285 0.111500
vt 0.747285 -1.060486
vt 0.637285 -1.060486
vt 0.003191 0.939514
vt 0.113191 2.111500
vt 0.003191 2.221500
vt 0.282057 0.111500
vt 0.246762 -1.060486
vt 0.246762 0.111500
vt 0.747285 0.221500
vt 0.246762 0.221500
vt 0.282057 -1.060486
vt 0.282057 0.221500
vt 0.246762 2.111500
vt 0.113191 0.939514
vt 0.637285 0.246762
vt -0.886809 0.282057
vt 0.637285 0.282057
vt 1.747285 0.221500
vt 0.113191 0.111500
vt 0.003191 0.221500
vt -0.996809 0.221500
vt 0.003191 0.246762
vt 1.747285 0.282057
vt 0.003191 0.282057
vt 0.504520 0.668393
vt 0.469224 1.678157
vt 0.469224 0.668393
vt 0.618289 0.568157
vt 0.508289 -0.331607
vt 0.618289 -0.331607
vt 0.242257 0.668393
vt 0.132257 1.568157
vt 0.242257 1.678157
vt 0.469224 0.568157
vt 0.504520 -0.331607
vt 0.504520 0.568157
vt 0.508289 0.678157
vt 0.504520 0.678157
vt 0.469224 -0.331607
vt 0.469224 0.678157
vt 0.504520 1.568157
vt 0.132257 0.668393
vt 0.618289 0.504520
vt 1.132257 0.469224
vt 0.618289 0.469224
vt -0.491711 0.678157
vt 0.132257 0.568157
vt 0.242257 0.678157
vt 1.242257 0.678157
vt 0.242257 0.504520
vt -0.491711 0.469224
vt 0.242257 0.469224
vt 0.504520 0.876340
vt 0.469224 1.823326
vt 0.469224 0.876340
vt 0.692088 0.876340
vt 1.520886 0.986340
vt 0.802088 0.986340
vt 0.692088 0.823326
vt 0.802088 -0.013660
vt 0.802088 0.713326
vt 0.520886 0.986340
vt 0.630887 1.823326
vt 0.630887 0.876340
vt 0.469224 0.713326
vt 0.504520 -0.013660
vt 0.504520 0.713326
vt 0.692088 -0.123660
vt 0.504520 0.823326
vt 0.469224 -0.123660
vt 0.469224 0.823326
vt 0.692088 0.504520
vt 1.630887 0.469224
vt 0.692088 0.469224
vt 0.802088 0.469224
vt 1.520886 0.504520
vt 0.802088 0.504520
vt 1.630887 0.876340
vt 0.469224 0.986340
vt 0.504520 1.713326
vt 0.504520 0.986340
vt 0.520886 1.713326
vt 1.520886 0.469224
vt -0.307912 0.823326
vt 0.520886 0.713326
vt 0.630887 0.823326
vt 1.630887 0.823326
vt 0.630887 0.504520
vt -0.307912 0.469224
vt 0.630887 0.469224
vt 0.504520 0.274514
vt 0.469224 1.221500
vt 0.469224 0.274514
vt 0.270624 0.274514
vt 0.886712 0.384514
vt 0.380624 0.384514
vt 0.270624 0.221500
vt 0.380624 -0.615486
vt 0.380624 0.111500
vt 0.996712 1.221500
vt 0.996712 0.274514
vt 0.469224 0.111500
vt 0.504520 -0.615486
vt 0.504520 0.111500
vt 0.270624 -0.725486
vt 0.504520 0.221500
vt 0.469224 -0.725486
vt 0.469224 0.221500
vt 0.270624 0.504520
vt 0.996712 0.469224
vt 0.270624 0.469224
vt 0.380624 0.469224
vt 0.886712 0.504520
vt 0.380624 0.504520
vt 0.469224 0.384514
vt 0.504520 1.111500
vt 0.504520 0.384514
vt 0.886712 1.111500
vt 0.886712 0.469224
vt 0.886712 0.111500
vt 0.996712 0.221500
vt 0.996712 0.504520
vt 0.504520 0.939514
vt 0.469224 2.221500
vt 0.469224 0.939514
vt 0.609249 0.111500
vt 0.499249 -1.060486
vt 0.609249 -1.060486
vt 0.225337 0.939514
vt 0.115336 2.111500
vt 0.225337 2.221500
vt 0.504520 -1.060486
vt 0.499249 0.221500
vt 0.469224 -1.060486
vt 0.504520 2.111500
vt 0.115336 0.939514
vt 0.609249 0.504520
vt 1.115336 0.469224
vt 0.609249 0.469224
vt -0.500751 0.221500
vt 0.115336 0.111500
vt 0.225337 0.221500
vt 1.225337 0.221500
vt 0.225337 0.504520
vt -0.500751 0.469224
vt 0.225337 0.469224
vt 0.859249 0.384514
vt 1.475337 0.274514
vt 1.365336 0.384514
vt 0.749249 0.221500
vt 0.859249 -0.615486
vt 0.859249 0.111500
vt 0.365336 0.384514
vt 0.475337 1.221500
vt 0.475337 0.274514
vt 0.749249 -0.725486
vt 0.749249 0.504520
vt 1.475337 0.469224
vt 0.749249 0.469224
vt 0.859249 0.469224
vt 1.365336 0.504520
vt 0.859249 0.504520
vt 0.749249 0.274514
vt 0.365336 1.111500
vt 1.365336 0.469224
vt -0.250751 0.221500
vt 0.365336 0.111500
vt 0.475337 0.221500
vt 1.475337 0.221500
vt 0.475337 0.504520
vt -0.250751 0.469224
vt 0.475337 0.469224
vt 0.504520 0.876802
vt 0.469224 1.823788
vt 0.469224 0.876802
vt 0.122249 0.876802
vt 0.951047 0.986802
vt 0.232249 0.986802
vt 0.122249 0.823788
vt 0.232249 -0.013198
vt 0.232249 0.713788
vt -0.048953 0.986802
vt 0.061048 1.823788
vt 0.061048 0.876802
vt 0.469224 0.713788
vt 0.504520 -0.013198
vt 0.504520 0.713788
vt 0.122249 -0.123198
vt 0.504520 0.823788
vt 0.469224 -0.123198
vt 0.469224 0.823788
vt 0.122249 0.504520
vt 1.061048 0.469224
vt 0.122249 0.469224
vt 0.232249 0.469224
vt 0.951047 0.504520
vt 0.232249 0.504520
vt 1.061048 0.876802
vt 0.469224 0.986802
vt 0.504520 1.713788
vt 0.504520 0.986802
vt 1.061048 1.823788
vt 0.951047 1.713788
vt 0.951047 0.469224
vt -0.877751 0.823788
vt -0.048953 0.713788
vt 0.061048 0.823788
vt 1.061048 0.823788
vt 0.061048 0.504520
vt -0.877751 0.469224
vt 0.061048 0.469224
vt 0.505962 0.876802
vt 0.470667 1.823788
vt 0.470667 0.876802
vt 0.271271 0.876802
vt -0.546027 0.986802
vt 0.161271 0.986802
vt 0.271271 0.823788
vt 0.161271 -0.013198
vt 0.161271 0.713788
vt 0.453973 0.986802
vt 0.343973 1.823788
vt 0.343973 0.876802
vt 0.470667 0.713788
vt 0.505962 -0.013198
vt 0.505962 0.713788
vt 0.271271 -0.123198
vt 0.505962 0.823788
vt 0.470667 -0.123198
vt 0.470667 0.823788
vt 0.505962 0.271271
vt 0.470667 -0.656027
vt 0.470667 0.271271
vt 0.505962 0.161271
vt 0.470667 -0.546027
vt 0.505962 -0.546027
vt -0.656027 0.876802
vt 0.470667 0.986802
vt 0.505962 1.713788
vt 0.505962 0.986802
vt 0.453973 1.713788
vt 0.470667 0.161271
vt 1.271271 0.823788
vt 0.453973 0.713788
vt 0.343973 0.823788
vt -0.656027 0.823788
vt 0.505962 0.343973
vt 0.470667 1.271271
vt 0.470667 0.343973
vt 0.626014 0.876802
vt -0.191284 0.986802
vt 0.516014 0.986802
vt 0.626014 0.823788
vt 0.516014 -0.013198
vt 0.516014 0.713788
vt 0.808716 0.986802
vt 0.698716 1.823788
vt 0.698716 0.876802
vt 0.626014 -0.123198
vt 0.505962 0.626014
vt 0.470667 -0.301284
vt 0.470667 0.626014
vt 0.505962 0.516014
vt 0.470667 -0.191284
vt 0.505962 -0.191284
vt -0.301284 0.876802
vt 0.808716 1.713788
vt 0.470667 0.516014
vt 1.626014 0.823788
vt 0.808716 0.713788
vt 0.698716 0.823788
vt -0.301284 0.823788
vt 0.505962 0.698716
vt 0.470667 1.626014
vt 0.470667 0.698716
vt 0.246762 1.823436
vt 0.282057 1.713436
vt -1.017319 0.246762
vt 2.503569 0.713436
vt -1.017319 0.713436
vt 2.613569 0.246762
vt 0.241100 1.823326
vt 0.276396 -0.013660
vt 0.241100 -0.123660
vt -0.472691 0.241100
vt 0.276396 1.713326
vt 1.367810 0.713326
vt -0.362691 0.713326
vt 1.477810 0.241100
vt 0.246762 2.221500
vt 0.282057 2.111500
vt -0.886809 0.246762
vt 1.637285 0.111500
vt -0.886809 0.111500
vt 1.747285 0.246762
vt 0.504520 1.678157
vt 0.469224 1.568157
vt 1.132257 0.504520
vt -0.381711 0.568157
vt 1.132257 0.568157
vt -0.491711 0.504520
vt 0.504520 1.823326
vt 0.469224 -0.013660
vt 0.504520 -0.123660
vt 1.630887 0.504520
vt 0.469224 1.713326
vt -0.197912 0.713326
vt 1.520886 0.713326
vt -0.307912 0.504520
vt 0.504520 1.221500
vt 0.469224 -0.615486
vt 0.504520 -0.725486
vt 0.469224 1.111500
vt 0.504520 2.221500
vt 0.469224 2.111500
vt 1.115336 0.504520
vt -0.390751 0.111500
vt 1.115336 0.111500
vt -0.500751 0.504520
vt 1.475337 0.504520
vt -0.140751 0.111500
vt 1.365336 0.111500
vt -0.250751 0.504520
vt 0.504520 1.823788
vt -0.048953 1.713788
vt 0.469224 -0.013198
vt 0.504520 -0.123198
vt 1.061048 0.504520
vt 0.469224 1.713788
vt -0.767751 0.713788
vt 0.951047 0.713788
vt -0.877751 0.504520
vt 0.505962 1.823788
vt 0.470667 -0.013198
vt 0.505962 -0.123198
vt 0.505962 -0.656027
vt 0.470667 1.713788
vt 1.161271 0.713788
vt -0.546027 0.713788
vt 0.505962 1.271271
vt 0.505962 -0.301284
vt 1.516014 0.713788
vt -0.191284 0.713788
vt 0.505962 1.626014
s 0
usemtl plaster_sand
f 16/1/1 1/2/1 13/3/1
f 7/4/2 12/5/2 11/6/2
f 16/7/3 4/8/3 3/9/3
f 7/10/1 10/11/1 6/12/1
f 6/4/3 9/5/3 8/13/3
f 8/14/4 12/15/4 5/16/4
f 14/3/4 4/17/4 15/1/4
f 13/7/2 2/8/2 14/18/2
f 6/19/5 2/20/5 7/21/5
f 5/22/2 2/23/2 1/24/2
f 3/25/3 6/4/3 8/13/3
f 3/26/6 5/27/6 1/28/6
f 32/29/1 17/30/1 29/31/1
f 28/32/2 30/33/2 27/34/2
f 21/35/2 27/36/2 23/37/2
f 31/38/3 19/39/3 32/40/3
f 23/41/1 26/42/1 22/43/1
f 24/35/3 26/36/3 25/44/3
f 24/45/4 28/46/4 21/47/4
f 25/48/5 29/49/5 28/50/5
f 27/51/6 31/52/6 26/53/6
f 26/34/3 32/54/3 25/32/3
f 30/55/4 20/56/4 31/57/4
f 30/38/2 17/39/2 18/58/2
f 22/53/5 18/59/5 23/51/5
f 21/60/2 18/61/2 17/62/2
f 19/63/3 22/37/3 24/35/3
f 19/64/6 21/65/6 17/66/6
f 48/67/1 33/68/1 45/69/1
f 39/70/2 44/71/2 43/72/2
f 48/73/3 36/74/3 35/75/3
f 39/76/1 42/77/1 38/78/1
f 38/70/3 41/71/3 40/79/3
f 40/80/4 44/81/4 37/82/4
f 46/69/4 36/83/4 47/67/4
f 45/73/2 34/74/2 46/84/2
f 38/85/5 34/86/5 39/87/5
f 37/88/2 34/89/2 33/90/2
f 35/91/3 38/70/3 40/79/3
f 35/92/6 37/93/6 33/94/6
f 64/95/4 49/96/4 61/97/4
f 55/98/3 60/99/3 59/100/3
f 64/101/2 52/102/2 51/103/2
f 55/104/4 58/105/4 54/106/4
f 54/98/2 57/99/2 56/107/2
f 56/108/1 60/109/1 53/110/1
f 62/97/1 52/111/1 63/95/1
f 61/101/3 50/102/3 62/112/3
f 54/113/5 50/114/5 55/115/5
f 53/116/3 50/117/3 49/118/3
f 51/119/2 54/98/2 56/107/2
f 51/120/6 53/121/6 49/122/6
f 80/123/4 65/124/4 77/125/4
f 76/126/3 78/127/3 75/128/3
f 69/129/3 75/130/3 71/131/3
f 79/132/2 67/133/2 80/134/2
f 71/135/4 74/136/4 70/137/4
f 72/129/2 74/130/2 73/138/2
f 72/139/1 76/140/1 69/141/1
f 73/142/5 77/143/5 76/144/5
f 75/145/6 79/146/6 74/147/6
f 74/128/2 80/148/2 73/126/2
f 78/149/1 68/150/1 79/151/1
f 78/132/3 65/133/3 66/152/3
f 70/147/5 66/153/5 71/145/5
f 69/154/3 66/155/3 65/156/3
f 67/157/2 70/131/2 72/129/2
f 67/158/6 69/159/6 65/160/6
f 96/161/4 81/162/4 93/163/4
f 92/164/3 94/165/3 91/166/3
f 85/167/3 91/168/3 87/169/3
f 95/165/2 83/170/2 96/171/2
f 87/172/4 90/173/4 86/174/4
f 88/167/2 90/168/2 89/175/2
f 88/176/1 92/177/1 85/178/1
f 89/179/5 93/180/5 92/181/5
f 91/182/6 95/183/6 90/184/6
f 90/166/2 96/171/2 89/164/2
f 94/185/1 84/186/1 95/187/1
f 94/165/3 81/170/3 82/188/3
f 86/184/5 82/189/5 87/182/5
f 85/167/3 82/190/3 81/191/3
f 83/191/2 86/169/2 88/167/2
f 83/192/6 85/181/6 81/180/6
f 112/193/4 97/194/4 109/195/4
f 103/196/3 108/197/3 107/198/3
f 112/199/2 100/200/2 99/201/2
f 103/172/4 106/202/4 102/174/4
f 102/196/2 105/197/2 104/203/2
f 104/176/1 108/204/1 101/178/1
f 110/195/1 100/205/1 111/193/1
f 109/199/3 98/200/3 110/206/3
f 102/207/5 98/208/5 103/209/5
f 101/210/3 98/211/3 97/212/3
f 99/213/2 102/196/2 104/203/2
f 99/214/6 101/215/6 97/216/6
f 128/161/4 113/162/4 125/163/4
f 123/217/3 125/218/3 126/219/3
f 117/220/3 123/221/3 119/222/3
f 127/223/2 115/224/2 128/225/2
f 119/172/4 122/173/4 118/174/4
f 120/220/2 122/221/2 121/226/2
f 120/176/1 124/177/1 117/178/1
f 121/227/5 125/228/5 124/229/5
f 123/230/6 127/231/6 122/232/6
f 122/217/2 128/218/2 121/233/2
f 126/185/1 116/186/1 127/187/1
f 126/223/3 113/224/3 114/234/3
f 118/232/5 114/235/5 119/230/5
f 117/236/3 114/237/3 113/238/3
f 115/239/2 118/222/2 120/220/2
f 115/240/6 117/241/6 113/242/6
f 144/243/4 129/244/4 141/245/4
f 140/246/3 142/247/3 139/248/3
f 133/249/3 139/250/3 135/251/3
f 143/252/2 131/253/2 144/254/2
f 135/255/4 138/256/4 134/257/4
f 136/249/2 138/250/2 137/258/2
f 136/259/1 140/260/1 133/261/1
f 137/262/5 141/263/5 140/264/5
f 139/265/6 143/266/6 138/267/6
f 138/248/2 144/268/2 137/246/2
f 142/269/1 132/270/1 143/271/1
f 142/247/3 129/272/3 130/273/3
f 134/267/5 130/274/5 135/265/5
f 133/275/3 130/276/3 129/277/3
f 131/278/2 134/251/2 136/249/2
f 131/279/6 133/280/6 129/281/6
f 160/282/3 145/283/3 157/284/3
f 156/285/1 158/286/1 155/287/1
f 149/288/1 155/289/1 151/290/1
f 159/291/4 147/292/4 160/293/4
f 151/294/3 154/295/3 150/296/3
f 152/288/4 154/289/4 153/297/4
f 152/298/2 156/299/2 149/300/2
f 153/301/5 157/302/5 156/303/5
f 154/304/6 158/305/6 159/306/6
f 153/285/4 159/286/4 160/307/4
f 158/308/2 148/309/2 159/310/2
f 158/291/1 145/292/1 146/311/1
f 150/304/5 146/305/5 151/312/5
f 149/313/1 146/314/1 145/315/1
f 147/316/4 150/290/4 152/288/4
f 147/317/6 149/318/6 145/319/6
f 176/282/3 161/283/3 173/284/3
f 172/320/1 174/321/1 171/322/1
f 165/323/1 171/324/1 167/325/1
f 175/326/4 163/327/4 176/328/4
f 167/294/3 170/295/3 166/296/3
f 168/323/4 170/324/4 169/329/4
f 168/298/2 172/299/2 165/300/2
f 169/330/5 173/331/5 172/332/5
f 170/333/6 174/334/6 175/335/6
f 169/320/4 175/321/4 176/336/4
f 174/308/2 164/309/2 175/310/2
f 174/326/1 161/327/1 162/337/1
f 166/333/5 162/334/5 167/338/5
f 165/339/1 162/340/1 161/341/1
f 163/342/4 166/325/4 168/323/4
f 163/343/6 165/344/6 161/345/6
f 16/1/1 3/346/1 1/2/1
f 7/4/2 5/13/2 12/5/2
f 16/7/3 15/18/3 4/8/3
f 7/10/1 11/15/1 10/11/1
f 6/4/3 10/6/3 9/5/3
f 8/14/4 9/11/4 12/15/4
f 14/3/4 2/347/4 4/17/4
f 13/7/2 1/9/2 2/8/2
f 6/19/5 4/348/5 2/20/5
f 5/22/2 7/349/2 2/23/2
f 3/25/3 4/350/3 6/4/3
f 3/26/6 8/351/6 5/27/6
f 32/29/1 19/352/1 17/30/1
f 28/32/2 29/54/2 30/33/2
f 21/35/2 28/44/2 27/36/2
f 31/38/3 20/58/3 19/39/3
f 23/41/1 27/353/1 26/42/1
f 24/35/3 22/37/3 26/36/3
f 24/45/4 25/354/4 28/46/4
f 25/48/5 32/355/5 29/49/5
f 27/51/6 30/59/6 31/52/6
f 26/34/3 31/33/3 32/54/3
f 30/55/4 18/356/4 20/56/4
f 30/38/2 29/40/2 17/39/2
f 22/53/5 20/52/5 18/59/5
f 21/60/2 23/357/2 18/61/2
f 19/63/3 20/358/3 22/37/3
f 19/64/6 24/359/6 21/65/6
f 48/67/1 35/360/1 33/68/1
f 39/70/2 37/79/2 44/71/2
f 48/73/3 47/84/3 36/74/3
f 39/76/1 43/81/1 42/77/1
f 38/70/3 42/72/3 41/71/3
f 40/80/4 41/77/4 44/81/4
f 46/69/4 34/361/4 36/83/4
f 45/73/2 33/75/2 34/74/2
f 38/85/5 36/362/5 34/86/5
f 37/88/2 39/363/2 34/89/2
f 35/91/3 36/364/3 38/70/3
f 35/92/6 40/365/6 37/93/6
f 64/95/4 51/366/4 49/96/4
f 55/98/3 53/107/3 60/99/3
f 64/101/2 63/112/2 52/102/2
f 55/104/4 59/109/4 58/105/4
f 54/98/2 58/100/2 57/99/2
f 56/108/1 57/105/1 60/109/1
f 62/97/1 50/367/1 52/111/1
f 61/101/3 49/103/3 50/102/3
f 54/113/5 52/368/5 50/114/5
f 53/116/3 55/369/3 50/117/3
f 51/119/2 52/370/2 54/98/2
f 51/120/6 56/371/6 53/121/6
f 80/123/4 67/372/4 65/124/4
f 76/126/3 77/148/3 78/127/3
f 69/129/3 76/138/3 75/130/3
f 79/132/2 68/152/2 67/133/2
f 71/135/4 75/373/4 74/136/4
f 72/129/2 70/131/2 74/130/2
f 72/139/1 73/374/1 76/140/1
f 73/142/5 80/375/5 77/143/5
f 75/145/6 78/153/6 79/146/6
f 74/128/2 79/127/2 80/148/2
f 78/149/1 66/376/1 68/150/1
f 78/132/3 77/134/3 65/133/3
f 70/147/5 68/146/5 66/153/5
f 69/154/3 71/377/3 66/155/3
f 67/157/2 68/378/2 70/131/2
f 67/158/6 72/379/6 69/159/6
f 96/161/4 83/380/4 81/162/4
f 92/164/3 93/171/3 94/165/3
f 85/167/3 92/175/3 91/168/3
f 95/165/2 84/188/2 83/170/2
f 87/172/4 91/381/4 90/173/4
f 88/167/2 86/169/2 90/168/2
f 88/176/1 89/382/1 92/177/1
f 89/179/5 96/192/5 93/180/5
f 91/182/6 94/189/6 95/183/6
f 90/166/2 95/165/2 96/171/2
f 94/185/1 82/383/1 84/186/1
f 94/165/3 93/171/3 81/170/3
f 86/184/5 84/183/5 82/189/5
f 85/167/3 87/169/3 82/190/3
f 83/191/2 84/190/2 86/169/2
f 83/192/6 88/179/6 85/181/6
f 112/193/4 99/384/4 97/194/4
f 103/196/3 101/203/3 108/197/3
f 112/199/2 111/206/2 100/200/2
f 103/172/4 107/204/4 106/202/4
f 102/196/2 106/198/2 105/197/2
f 104/176/1 105/202/1 108/204/1
f 110/195/1 98/385/1 100/205/1
f 109/199/3 97/201/3 98/200/3
f 102/207/5 100/386/5 98/208/5
f 101/210/3 103/387/3 98/211/3
f 99/213/2 100/388/2 102/196/2
f 99/214/6 104/389/6 101/215/6
f 128/161/4 115/380/4 113/162/4
f 123/217/3 124/233/3 125/218/3
f 117/220/3 124/226/3 123/221/3
f 127/223/2 116/234/2 115/224/2
f 119/172/4 123/381/4 122/173/4
f 120/220/2 118/222/2 122/221/2
f 120/176/1 121/382/1 124/177/1
f 121/227/5 128/390/5 125/228/5
f 123/230/6 126/235/6 127/231/6
f 122/217/2 127/219/2 128/218/2
f 126/185/1 114/383/1 116/186/1
f 126/223/3 125/225/3 113/224/3
f 118/232/5 116/231/5 114/235/5
f 117/236/3 119/391/3 114/237/3
f 115/239/2 116/392/2 118/222/2
f 115/240/6 120/393/6 117/241/6
f 144/243/4 131/394/4 129/244/4
f 140/246/3 141/268/3 142/247/3
f 133/249/3 140/258/3 139/250/3
f 143/252/2 132/395/2 131/253/2
f 135/255/4 139/396/4 138/256/4
f 136/249/2 134/251/2 138/250/2
f 136/259/1 137/397/1 140/260/1
f 137/262/5 144/398/5 141/263/5
f 139/265/6 142/274/6 143/266/6
f 138/248/2 143/247/2 144/268/2
f 142/269/1 130/399/1 132/270/1
f 142/247/3 141/268/3 129/272/3
f 134/267/5 132/266/5 130/274/5
f 133/275/3 135/400/3 130/276/3
f 131/278/2 132/401/2 134/251/2
f 131/279/6 136/402/6 133/280/6
f 160/282/3 147/403/3 145/283/3
f 156/285/1 157/307/1 158/286/1
f 149/288/1 156/297/1 155/289/1
f 159/291/4 148/311/4 147/292/4
f 151/294/3 155/404/3 154/295/3
f 152/288/4 150/290/4 154/289/4
f 152/298/2 153/405/2 156/299/2
f 153/301/5 160/406/5 157/302/5
f 154/304/6 155/312/6 158/305/6
f 153/285/4 154/287/4 159/286/4
f 158/308/2 146/407/2 148/309/2
f 158/291/1 157/293/1 145/292/1
f 150/304/5 148/306/5 146/305/5
f 149/313/1 151/408/1 146/314/1
f 147/316/4 148/409/4 150/290/4
f 147/317/6 152/410/6 149/318/6
f 176/282/3 163/403/3 161/283/3
f 172/320/1 173/336/1 174/321/1
f 165/323/1 172/329/1 171/324/1
f 175/326/4 164/337/4 163/327/4
f 167/294/3 171/404/3 170/295/3
f 168/323/4 166/325/4 170/324/4
f 168/298/2 169/405/2 172/299/2
f 169/330/5 176/411/5 173/331/5
f 170/333/6 171/338/6 174/334/6
f 169/320/4 170/322/4 175/321/4
f 174/308/2 162/407/2 164/309/2
f 174/326/1 173/328/1 161/327/1
f 166/333/5 164/335/5 162/334/5
f 165/339/1 167/412/1 162/340/1
f 163/342/4 164/413/4 166/325/4
f 163/343/6 168/414/6 165/344/6
