# Blender 5.0.0
# www.blender.org
mtllib Scene@wall.mtl
o fence
v 49.964687 -4.200001 -21.200199
v 49.964687 4.199998 -21.200199
v 48.812248 -4.200001 -21.200199
v 48.812248 4.199998 -21.200199
v 49.964687 4.200003 36.811989
v 49.964687 -4.199997 36.811989
v 41.631355 4.200003 36.811989
v 41.631355 -4.199997 36.811989
v 41.631355 -4.200001 -13.069534
v 43.131359 -4.200001 -16.330868
v 41.631355 4.199999 -13.069534
v 43.131359 4.199998 -16.330868
v -50.035305 4.199998 -21.200199
v -50.035305 -4.200001 -21.200199
v -48.882866 4.199998 -21.200199
v -48.882866 -4.200001 -21.200199
v -50.035305 -4.199997 36.811989
v -50.035305 4.200003 36.811989
v -41.701973 -4.199997 36.811989
v -41.701973 4.200003 36.811989
v -41.701973 4.199999 -13.069534
v -43.201977 4.199998 -16.330868
v -41.701973 -4.200001 -13.069534
v -43.201977 -4.200001 -16.330868
v -9.868643 -4.200001 -13.330864
v -9.868643 4.199999 -13.330864
v -15.549534 -4.200001 -18.200203
v -15.549534 4.199998 -18.200203
v -17.854418 -4.200001 -18.200203
v -17.854418 4.199998 -18.200203
v -8.368643 4.200003 36.811989
v -8.368643 -4.199997 36.811989
v -25.035309 4.200003 36.811989
v -25.035309 -4.199997 36.811989
v -8.368643 -4.200001 -10.069538
v -8.368643 4.199999 -10.069538
v -25.035309 -4.200001 -10.069538
v -23.535307 -4.200001 -13.330864
v -25.035309 4.199999 -10.069538
v -23.535307 4.199999 -13.330864
v 23.464691 -4.200001 -20.330872
v 23.464691 4.199998 -20.330872
v 17.783800 -4.200002 -25.200207
v 17.783800 4.199998 -25.200207
v 15.478916 -4.200002 -25.200207
v 15.478916 4.199998 -25.200207
v 24.964691 4.200003 36.811989
v 24.964691 -4.199997 36.811989
v 8.298024 4.200003 36.811989
v 8.298024 -4.199997 36.811989
v 24.964691 -4.200001 -17.069538
v 24.964691 4.199998 -17.069538
v 8.298024 -4.200001 -17.069538
v 9.798025 -4.200001 -20.330872
v 8.298024 4.199998 -17.069538
v 9.798025 4.199998 -20.330872
v 21.214691 9.200001 15.811988
v 21.214691 4.200001 15.811989
v -50.035309 9.200001 15.811988
v -50.035309 4.200001 15.811989
v 49.964691 4.200000 -1.188012
v 49.964691 9.200000 -1.188012
v -20.861595 4.200000 -1.188012
v -20.861595 9.200000 -1.188012
v 49.964691 4.200001 15.811989
v 49.964691 9.200001 15.811988
v -50.035309 4.200000 -1.188012
v -50.035309 9.200000 -1.188012
v 28.714691 9.200001 15.811988
v 24.964691 9.200001 13.702613
v -24.611597 9.200000 0.921363
v -28.361597 9.200000 -1.188012
v -24.611597 4.200000 0.921364
v -28.361597 4.200000 -1.188012
v 28.714691 4.200001 15.811989
v 24.964691 4.200001 13.702614
v 21.214691 -4.199998 15.811989
v 21.214691 -9.199999 15.811990
v -50.035309 -4.199998 15.811989
v -50.035309 -9.199999 15.811990
v 49.964691 -9.200000 -1.188010
v 49.964691 -4.200000 -1.188011
v -20.861595 -9.200000 -1.188010
v -20.861595 -4.200000 -1.188011
v 49.964691 -9.199999 15.811990
v 49.964691 -4.199998 15.811989
v -50.035309 -9.200000 -1.188010
v -50.035309 -4.200000 -1.188011
v 24.964691 -9.199999 13.702615
v -24.611597 -9.200000 0.921365
v -28.361597 -9.200000 -1.188010
v 28.714691 -9.199999 15.811990
v -24.611597 -4.200000 0.921364
v -28.361597 -4.200000 -1.188011
v 28.714691 -4.199998 15.811989
v 24.964691 -4.199999 13.702614
v 40.131355 -3.150001 -13.330864
v 40.131355 3.149999 -13.330864
v 34.450466 -3.150002 -18.200203
v 34.450466 3.149999 -18.200203
v 32.145580 -3.150002 -18.200203
v 32.145580 3.149999 -18.200203
v 41.631355 3.150003 36.811989
v 41.631355 -3.149997 36.811989
v 24.964689 3.150003 36.811989
v 24.964689 -3.149997 36.811989
v 41.631355 -3.150001 -10.069538
v 41.631355 3.149999 -10.069538
v 24.964689 -3.150001 -10.069538
v 26.464689 -3.150001 -13.330864
v 24.964689 3.149999 -10.069538
v 26.464689 3.149999 -13.330864
v 6.798024 -3.150001 -16.330868
v 6.798024 3.149999 -16.330868
v 1.117134 -3.150002 -21.200199
v 1.117134 3.149998 -21.200199
v -1.187751 -3.150002 -21.200199
v -1.187751 3.149998 -21.200199
v 8.298025 3.150003 36.811989
v 8.298025 -3.149997 36.811989
v -8.368643 3.150003 36.811989
v -8.368643 -3.149997 36.811989
v 8.298025 -3.150001 -13.069534
v 8.298025 3.149999 -13.069534
v -8.368643 -3.150001 -13.069534
v -6.868641 -3.150001 -16.330868
v -8.368643 3.149999 -13.069534
v -6.868641 3.149999 -16.330868
v -26.535307 -3.150002 -20.330872
v -26.535307 3.149999 -20.330872
v -32.216198 -3.150002 -25.200207
v -32.216198 3.149998 -25.200207
v -34.521084 -3.150002 -25.200207
v -34.521084 3.149998 -25.200207
v -25.035309 3.150003 36.811989
v -25.035309 -3.149997 36.811989
v -41.701977 3.150003 36.811989
v -41.701977 -3.149997 36.811989
v -25.035309 -3.150001 -17.069538
v -25.035309 3.149999 -17.069538
v -41.701977 -3.150001 -17.069538
v -40.201973 -3.150002 -20.330872
v -41.701977 3.149999 -17.069538
v -40.201973 3.149999 -20.330872
vn -0.0000 -0.0000 -1.0000
vn -0.3469 -0.0000 -0.9379
vn -0.3470 -0.0000 -0.9379
vn -0.0000 -0.0000 1.0000
vn 0.9769 -0.0000 0.2139
vn 0.7982 -0.0000 0.6024
vn 1.0000 -0.0000 -0.0000
vn -0.7981 -0.0000 -0.6025
vn -0.0000 -1.0000 -0.0000
vn -0.0000 1.0000 -0.0000
vn -1.0000 -0.0000 -0.0000
vn 0.3469 -0.0000 -0.9379
vn -0.3469 -0.0000 0.9379
vn 0.9768 -0.0000 -0.2139
vn 0.7982 -0.0000 -0.6024
vn 0.9769 -0.0000 -0.2138
vn -0.9769 -0.0000 0.2138
vn 0.3470 -0.0000 -0.9379
vn 0.7981 -0.0000 -0.6025
vn -0.3470 -0.0000 0.9379
vn -0.7981 -0.0000 0.6025
vn 0.7981 0.0001 -0.6025
vn 0.3469 -0.0000 0.9379
vn -0.9769 -0.0000 -0.2139
vn -0.9769 -0.0000 -0.2138
vn -0.7982 -0.0000 -0.6024
vn 0.9768 -0.0000 0.2139
vn 0.9769 -0.0000 0.2138
vn -0.7982 -0.0000 0.6024
vn -0.9768 -0.0000 0.2139
vn -0.9768 -0.0000 -0.2139
vn 0.7981 -0.0000 0.6025
vn 0.3470 -0.0000 0.9379
vn 0.4903 -0.0000 -0.8716
vn -0.4903 -0.0000 -0.8716
vn -0.4903 -0.0000 0.8716
vn 0.4903 -0.0000 0.8716
vn -0.9769 -0.0000 0.2139
vt 0.218750 0.475000
vt 0.218750 0.275000
vt 0.218750 0.446969
vt 0.218750 0.458213
vt 0.218750 0.457297
vt 0.218750 0.445441
vt 0.218750 0.459296
vt 0.218750 0.448777
vt 0.156250 0.375000
vt 0.218750 0.416149
vt 0.218750 0.425000
vt 0.218750 0.325000
vt 0.218750 0.410220
vt 0.218750 0.416606
vt 0.218750 0.410985
vt 0.218750 0.417148
vt 0.218750 0.411889
s 1
usemtl colormap
f 1/1/1 3/1/2 2/1/1
f 4/1/3 2/1/1 3/1/2
f 5/2/4 7/2/4 6/2/4
f 6/2/1 8/2/1 7/2/1
f 11/3/5 9/3/5 10/4/6
f 10/4/6 12/4/6 11/3/5
f 7/2/7 8/2/7 9/3/5
f 9/3/5 11/3/5 7/2/7
f 3/1/2 10/4/8 4/1/3
f 12/4/8 4/1/3 10/4/8
f 1/1/9 6/2/9 9/3/9
f 9/3/10 8/2/10 6/2/10
f 1/1/10 10/4/10 9/3/10
f 1/1/10 3/1/10 10/4/10
f 2/1/9 5/2/9 7/2/9
f 7/2/9 11/3/9 2/1/9
f 11/3/9 12/4/9 2/1/9
f 12/4/9 4/1/9 2/1/9
f 2/1/11 1/1/11 6/2/11
f 6/2/11 5/2/11 2/1/11
f 13/1/1 15/1/12 14/1/1
f 14/1/4 16/1/13 15/1/13
f 20/2/4 18/2/4 19/2/4
f 19/2/1 17/2/1 18/2/1
f 21/3/14 23/3/14 22/4/15
f 24/4/15 22/4/15 23/3/14
f 20/2/7 19/2/7 21/3/16
f 21/3/17 23/3/17 19/2/11
f 15/1/18 22/4/19 16/1/18
f 16/1/20 24/4/21 22/4/21
f 20/2/10 21/3/10 18/2/10
f 22/4/10 13/1/10 21/3/10
f 18/2/9 13/1/9 21/3/9
f 13/1/9 15/1/9 22/4/9
f 24/4/9 23/3/9 14/1/9
f 14/1/10 17/2/10 19/2/10
f 19/2/10 23/3/10 14/1/10
f 24/4/10 16/1/10 14/1/10
f 17/2/11 18/2/11 14/1/11
f 14/1/7 13/1/7 18/2/7
f 25/5/22 27/1/18 26/5/19
f 28/1/18 26/5/19 27/1/18
f 27/1/12 29/1/2 28/1/12
f 28/1/13 30/1/23 29/1/23
f 31/2/4 33/2/4 32/2/4
f 34/2/4 32/2/4 33/2/4
f 35/6/16 36/6/16 32/2/7
f 32/2/11 31/2/11 36/6/17
f 37/6/24 39/6/25 38/5/26
f 38/5/6 40/5/6 39/6/27
f 31/2/10 36/6/10 33/2/10
f 39/6/10 33/2/10 36/6/10
f 40/5/10 39/6/10 26/5/10
f 28/1/10 30/1/10 26/5/10
f 39/6/9 26/5/9 36/6/9
f 40/5/9 30/1/9 26/5/9
f 39/6/25 37/6/24 33/2/11
f 33/2/7 34/2/7 37/6/28
f 29/1/3 38/5/8 30/1/3
f 40/5/8 30/1/3 38/5/8
f 34/2/9 37/6/9 32/2/9
f 35/6/9 32/2/9 37/6/9
f 38/5/9 25/5/9 37/6/9
f 29/1/9 25/5/9 38/5/9
f 27/1/9 25/5/9 29/1/9
f 35/6/10 25/5/10 37/6/10
f 26/5/29 25/5/29 35/6/30
f 35/6/30 36/6/30 26/5/29
f 41/7/19 43/1/18 42/7/19
f 44/1/18 42/7/19 43/1/18
f 43/1/18 45/1/2 44/1/18
f 46/1/2 44/1/18 45/1/2
f 47/2/4 49/2/4 48/2/4
f 50/2/4 48/2/4 49/2/4
f 47/2/7 48/2/7 52/8/16
f 52/8/17 51/8/17 48/2/11
f 53/8/31 55/8/31 54/7/26
f 56/7/26 54/7/26 55/8/31
f 55/8/10 49/2/10 52/8/10
f 56/7/10 55/8/10 42/7/10
f 46/1/10 56/7/10 42/7/10
f 52/8/9 47/2/9 49/2/9
f 55/8/9 42/7/9 52/8/9
f 46/1/9 44/1/9 42/7/9
f 50/2/11 49/2/11 53/8/25
f 53/8/28 55/8/28 49/2/7
f 54/7/32 45/1/33 46/1/33
f 46/1/33 56/7/32 54/7/32
f 41/7/9 51/8/9 53/8/9
f 54/7/9 41/7/9 53/8/9
f 45/1/9 41/7/9 54/7/9
f 53/8/10 50/2/10 48/2/10
f 48/2/10 51/8/10 53/8/10
f 41/7/10 43/1/10 45/1/10
f 52/8/14 51/8/14 42/7/15
f 42/7/29 41/7/29 51/8/30
f 57/9/4 59/9/4 58/9/4
f 60/9/4 58/9/4 59/9/4
f 61/9/1 63/9/1 62/9/1
f 64/9/1 62/9/1 63/9/1
f 61/9/7 62/9/7 65/9/7
f 66/9/7 65/9/7 62/9/7
f 60/9/11 59/9/11 67/9/11
f 68/9/11 67/9/11 59/9/11
f 66/9/10 62/9/10 69/9/10
f 70/9/10 69/9/10 62/9/10
f 71/9/10 70/9/10 62/9/10
f 64/9/10 71/9/10 62/9/10
f 71/9/10 68/9/10 70/9/10
f 72/9/10 68/9/10 71/9/10
f 68/9/10 59/9/10 70/9/10
f 57/9/10 70/9/10 59/9/10
f 73/9/1 74/9/34 71/9/1
f 72/9/34 71/9/1 74/9/34
f 63/9/35 73/9/1 64/9/35
f 71/9/1 64/9/35 73/9/1
f 74/9/1 67/9/1 72/9/1
f 68/9/1 72/9/1 67/9/1
f 69/9/36 70/9/4 75/9/36
f 76/9/4 75/9/36 70/9/4
f 70/9/4 57/9/37 76/9/4
f 58/9/37 76/9/4 57/9/37
f 66/9/4 69/9/4 65/9/4
f 75/9/4 65/9/4 69/9/4
f 60/9/9 67/9/9 58/9/9
f 76/9/9 58/9/9 67/9/9
f 73/9/9 76/9/9 67/9/9
f 74/9/9 73/9/9 67/9/9
f 73/9/9 61/9/9 76/9/9
f 63/9/9 61/9/9 73/9/9
f 76/9/9 61/9/9 75/9/9
f 65/9/9 75/9/9 61/9/9
f 77/9/4 79/9/4 78/9/4
f 80/9/4 78/9/4 79/9/4
f 81/9/1 83/9/1 82/9/1
f 84/9/1 82/9/1 83/9/1
f 81/9/7 82/9/7 85/9/7
f 86/9/7 85/9/7 82/9/7
f 80/9/11 79/9/11 87/9/11
f 88/9/11 87/9/11 79/9/11
f 80/9/9 87/9/9 78/9/9
f 89/9/9 78/9/9 87/9/9
f 90/9/9 89/9/9 87/9/9
f 91/9/9 90/9/9 87/9/9
f 90/9/9 81/9/9 89/9/9
f 83/9/9 81/9/9 90/9/9
f 89/9/9 81/9/9 92/9/9
f 85/9/9 92/9/9 81/9/9
f 90/9/1 91/9/34 93/9/1
f 94/9/34 93/9/1 91/9/34
f 83/9/35 90/9/1 84/9/35
f 93/9/1 84/9/35 90/9/1
f 91/9/1 87/9/1 94/9/1
f 88/9/1 94/9/1 87/9/1
f 95/9/36 96/9/4 92/9/36
f 89/9/4 92/9/36 96/9/4
f 96/9/4 77/9/37 89/9/4
f 78/9/37 89/9/4 77/9/37
f 86/9/4 95/9/4 85/9/4
f 92/9/4 85/9/4 95/9/4
f 86/9/10 82/9/10 95/9/10
f 96/9/10 95/9/10 82/9/10
f 93/9/10 96/9/10 82/9/10
f 84/9/10 93/9/10 82/9/10
f 93/9/10 88/9/10 96/9/10
f 94/9/10 88/9/10 93/9/10
f 88/9/10 79/9/10 96/9/10
f 77/9/10 96/9/10 79/9/10
f 97/10/19 99/11/18 98/10/19
f 100/11/18 98/10/19 99/11/18
f 99/11/18 101/11/3 100/11/18
f 102/11/3 100/11/18 101/11/3
f 105/12/1 103/12/1 104/12/1
f 104/12/1 106/12/1 105/12/1
f 108/13/38 107/13/38 104/12/11
f 104/12/11 103/12/11 108/13/17
f 109/13/31 111/13/31 110/10/26
f 110/10/6 112/10/6 111/13/27
f 103/12/10 108/13/10 105/12/10
f 111/13/10 105/12/10 108/13/10
f 98/10/10 111/13/10 108/13/10
f 112/10/10 111/13/10 98/10/10
f 102/11/10 112/10/10 98/10/10
f 100/11/10 102/11/10 98/10/10
f 106/12/11 105/12/11 109/13/25
f 109/13/28 111/13/28 105/12/7
f 101/11/3 110/10/8 102/11/3
f 112/10/8 102/11/3 110/10/8
f 106/12/9 109/13/9 104/12/9
f 107/13/9 104/12/9 109/13/9
f 99/11/9 97/10/9 101/11/9
f 107/13/10 97/10/10 109/13/10
f 97/10/10 110/10/10 109/13/10
f 97/10/10 101/11/10 110/10/10
f 97/10/15 98/10/15 107/13/14
f 107/13/38 108/13/38 98/10/29
f 113/14/22 115/11/18 114/14/19
f 116/11/18 114/14/19 115/11/18
f 115/11/18 117/11/3 116/11/18
f 118/11/3 116/11/18 117/11/3
f 121/12/1 119/12/1 120/12/1
f 120/12/1 122/12/1 121/12/1
f 123/15/16 124/15/16 120/12/7
f 120/12/11 119/12/11 124/15/17
f 125/15/31 127/15/31 126/14/8
f 128/14/8 126/14/8 127/15/31
f 119/12/10 124/15/10 121/12/10
f 127/15/10 121/12/10 124/15/10
f 114/14/10 127/15/10 124/15/10
f 128/14/10 127/15/10 114/14/10
f 128/14/9 118/11/9 114/14/9
f 118/11/9 116/11/9 114/14/9
f 122/12/11 121/12/11 125/15/25
f 127/15/25 125/15/25 121/12/11
f 117/11/3 126/14/8 118/11/3
f 128/14/8 118/11/3 126/14/8
f 122/12/9 125/15/9 120/12/9
f 123/15/9 120/12/9 125/15/9
f 123/15/10 113/14/10 125/15/10
f 113/14/10 126/14/10 125/15/10
f 113/14/10 117/11/10 126/14/10
f 113/14/10 115/11/10 117/11/10
f 114/14/29 113/14/29 123/15/30
f 123/15/30 124/15/30 114/14/29
f 129/16/19 131/11/18 130/16/19
f 132/11/18 130/16/19 131/11/18
f 133/11/23 131/11/13 132/11/13
f 132/11/13 134/11/23 133/11/23
f 137/12/1 135/12/1 136/12/1
f 136/12/1 138/12/1 137/12/1
f 140/17/38 139/17/38 136/12/11
f 136/12/11 135/12/11 140/17/17
f 141/17/24 143/17/24 142/16/8
f 144/16/8 142/16/8 143/17/24
f 130/16/10 143/17/10 140/17/10
f 140/17/9 135/12/9 137/12/9
f 137/12/9 143/17/9 140/17/9
f 143/17/9 144/16/9 130/16/9
f 144/16/9 134/11/9 130/16/9
f 134/11/9 132/11/9 130/16/9
f 138/12/11 137/12/11 141/17/24
f 143/17/24 141/17/24 137/12/11
f 133/11/3 142/16/8 134/11/3
f 144/16/8 134/11/3 142/16/8
f 138/12/9 141/17/9 136/12/9
f 139/17/9 136/12/9 141/17/9
f 129/16/9 139/17/9 141/17/9
f 142/16/9 129/16/9 141/17/9
f 133/11/9 129/16/9 142/16/9
f 131/11/9 129/16/9 133/11/9
f 130/16/29 129/16/29 139/17/38
f 139/17/38 140/17/38 130/16/29
