# Blender 4.5.4 LTS
# www.blender.org
mtllib Desk@item.mtl
o Desk.002
v -0.304795 0.304796 -0.403304
v -0.304795 0.304796 -0.432960
v -0.304795 -0.304795 -0.403304
v -0.304795 -0.304795 -0.432960
v 0.596217 0.304796 -0.385081
v 0.577994 0.304796 -0.432960
v 0.577994 -0.304795 -0.403304
v 0.577994 -0.304795 -0.432960
v 0.945321 -0.304795 -0.432960
v 0.945321 -0.304795 -0.403304
v 0.927097 0.304796 -0.385081
v 0.945321 0.304796 -0.432960
v 0.596217 0.304796 -0.018982
v 0.577994 -0.304795 -0.000759
v 0.927097 0.304796 -0.018982
v 0.945321 -0.304795 -0.000759
v -0.274860 -0.304795 -0.403304
v -0.274860 -0.304795 -0.432960
v -0.274860 0.304796 -0.403304
v -0.274860 0.304796 -0.432960
v -0.304795 -0.304795 0.000000
v -0.304795 0.304796 -0.000000
v -0.274860 -0.304795 0.000000
v -0.274860 0.304796 -0.000000
v 0.577994 0.304796 -0.403304
v 0.945321 0.304796 -0.403304
v 0.577994 0.304796 -0.000759
v 0.945321 0.304796 -0.000759
v 0.599302 0.293313 -0.381995
v 0.924012 0.293313 -0.381995
v 0.599302 0.293313 -0.022068
v 0.924012 0.293313 -0.022068
v 0.577994 -0.304795 -0.269122
v 0.577994 -0.304795 -0.134941
v 0.577994 0.304796 -0.134941
v 0.577994 0.304796 -0.269122
v 0.945321 -0.304795 -0.269122
v 0.945321 -0.304795 -0.134941
v 0.945321 0.304796 -0.134941
v 0.945321 0.304796 -0.269122
v 0.596217 0.304796 -0.141015
v 0.596217 0.304796 -0.263048
v 0.927097 0.304796 -0.141015
v 0.927097 0.304796 -0.263048
v 0.599302 0.293313 -0.141774
v 0.599302 0.293313 -0.263807
v 0.924012 0.293313 -0.141774
v 0.924012 0.293313 -0.263807
v 0.596217 0.293313 -0.018982
v 0.927097 0.293313 -0.018982
v 0.599302 0.293313 -0.144100
v 0.924012 0.293313 -0.144100
v 0.596217 0.293313 -0.141015
v 0.599302 0.293313 -0.266133
v 0.927097 0.293313 -0.141015
v 0.924012 0.293313 -0.266133
v 0.596217 0.293313 -0.385081
v 0.927097 0.293313 -0.385081
v 0.596217 0.293313 -0.263048
v 0.927097 0.293313 -0.263048
v 0.599302 0.303909 -0.022068
v 0.924012 0.303909 -0.022068
v 0.599302 0.303909 -0.141774
v 0.924012 0.303909 -0.141774
v 0.599302 0.303909 -0.144100
v 0.599302 0.303909 -0.263807
v 0.924012 0.303909 -0.144100
v 0.924012 0.303909 -0.263807
v 0.599302 0.303909 -0.381995
v 0.924012 0.303909 -0.381995
v 0.599302 0.303909 -0.266133
v 0.924012 0.303909 -0.266133
v 0.700812 0.317396 -0.354477
v 0.700812 0.317396 -0.374764
v 0.700812 0.297109 -0.354477
v 0.700812 0.297109 -0.374764
v 0.822182 0.317396 -0.354477
v 0.822182 0.317396 -0.374764
v 0.822182 0.297109 -0.354477
v 0.822182 0.297109 -0.374764
v 0.700812 0.317396 -0.231290
v 0.700812 0.317396 -0.251577
v 0.700812 0.297109 -0.231290
v 0.700812 0.297109 -0.251577
v 0.822182 0.317396 -0.231290
v 0.822182 0.317396 -0.251577
v 0.822182 0.297109 -0.231290
v 0.822182 0.297109 -0.251577
v 0.700812 0.317396 -0.108102
v 0.700812 0.317396 -0.128389
v 0.700812 0.297109 -0.108102
v 0.700812 0.297109 -0.128389
v 0.822182 0.317396 -0.108102
v 0.822182 0.317396 -0.128389
v 0.822182 0.297109 -0.108102
v 0.822182 0.297109 -0.128389
vn -0.0000 -1.0000 -0.0000
vn -0.0000 1.0000 -0.0000
vn -0.0000 -0.0000 1.0000
vn -0.0000 -0.0000 -1.0000
vn 1.0000 -0.0000 -0.0000
vn -1.0000 -0.0000 -0.0000
vt 0.271393 0.268832
vt 0.270274 0.246566
vt 0.271393 0.246587
vt 0.255690 0.250015
vt 0.255002 0.237216
vt 0.255690 0.237880
vt 0.269506 0.237785
vt 0.270194 0.250584
vt 0.269506 0.249920
vt 0.265130 0.237147
vt 0.270194 0.237112
vt 0.265130 0.250619
vt 0.264901 0.249952
vt 0.260066 0.250653
vt 0.255002 0.250688
vt 0.260066 0.237181
vt 0.260295 0.237848
vt 0.293451 0.216788
vt 0.293334 0.204767
vt 0.293451 0.204879
vt 0.297940 0.216870
vt 0.293334 0.216902
vt 0.297940 0.204735
vt 0.297968 0.204848
vt 0.270142 0.259297
vt 0.270170 0.250747
vt 0.270170 0.259378
vt 0.250510 0.252094
vt 0.246021 0.252012
vt 0.250626 0.251980
vt 0.250510 0.264003
vt 0.246021 0.264147
vt 0.245992 0.264034
vt 0.270142 0.259509
vt 0.270170 0.268059
vt 0.270142 0.267978
vt 0.250626 0.264116
vt 0.293451 0.217097
vt 0.293334 0.229120
vt 0.293334 0.216985
vt 0.297940 0.216953
vt 0.297823 0.217067
vt 0.297823 0.228976
vt 0.293451 0.229006
vt 0.297940 0.229088
vt 0.253883 0.237224
vt 0.253883 0.250696
vt 0.255002 0.205937
vt 0.253883 0.204847
vt 0.255002 0.204839
vt 0.293283 0.204737
vt 0.270274 0.236932
vt 0.270274 0.204735
vt 0.253831 0.250799
vt 0.230817 0.251928
vt 0.230817 0.250798
vt 0.268978 0.251221
vt 0.270091 0.273422
vt 0.268978 0.273388
vt 0.253832 0.218603
vt 0.230817 0.204735
vt 0.253832 0.204736
vt 0.270274 0.236985
vt 0.271393 0.237006
vt 0.286666 0.253890
vt 0.291732 0.270734
vt 0.286666 0.270730
vt 0.276457 0.237101
vt 0.276457 0.246682
vt 0.252850 0.251980
vt 0.252533 0.256588
vt 0.252533 0.251981
vt 0.230817 0.218602
vt 0.270222 0.204735
vt 0.270222 0.205833
vt 0.253883 0.205945
vt 0.271393 0.269613
vt 0.270274 0.268811
vt 0.286615 0.269118
vt 0.286615 0.269899
vt 0.301893 0.236998
vt 0.286666 0.253826
vt 0.286666 0.236985
vt 0.245941 0.252455
vt 0.230817 0.274147
vt 0.230817 0.251980
vt 0.263947 0.251063
vt 0.263947 0.273230
vt 0.253398 0.264471
vt 0.253832 0.251980
vt 0.253832 0.264471
vt 0.264901 0.237817
vt 0.294156 0.229171
vt 0.293771 0.233674
vt 0.293771 0.229183
vt 0.251579 0.251980
vt 0.251146 0.264472
vt 0.251146 0.251980
vt 0.252082 0.276548
vt 0.252482 0.264290
vt 0.252482 0.276548
vt 0.252947 0.268809
vt 0.253239 0.264290
vt 0.253239 0.268809
vt 0.860853 0.107051
vt 0.869066 0.154743
vt 0.860853 0.154799
vt 0.260295 0.249983
vt 0.258915 0.273072
vt 0.252533 0.261195
vt 0.252850 0.265801
vt 0.252533 0.265802
vt 0.252850 0.256587
vt 0.819511 0.106995
vt 0.811295 0.156142
vt 0.811295 0.106994
vt 0.852550 0.106995
vt 0.844336 0.156144
vt 0.844336 0.106994
vt 0.301864 0.253902
vt 0.296798 0.270738
vt 0.296798 0.253898
vt 0.291732 0.253894
vt 0.250677 0.265728
vt 0.251095 0.261137
vt 0.251095 0.265715
vt 0.250677 0.256572
vt 0.250677 0.261150
vt 0.251095 0.251980
vt 0.251095 0.256558
vt 0.245992 0.276138
vt 0.250510 0.264198
vt 0.250510 0.276107
vt 0.297968 0.216757
vt 0.270142 0.250827
vt 0.245992 0.252125
vt 0.270170 0.259429
vt 0.298020 0.216674
vt 0.302392 0.204735
vt 0.302392 0.216644
vt 0.302509 0.216953
vt 0.297991 0.228893
vt 0.297991 0.216984
vt 0.293719 0.229171
vt 0.293334 0.233674
vt 0.293334 0.229183
vt 0.252482 0.251980
vt 0.252082 0.264238
vt 0.252082 0.251980
vt 0.251631 0.264238
vt 0.252031 0.251980
vt 0.252031 0.264238
vt 0.252947 0.264238
vt 0.253347 0.251980
vt 0.253347 0.264238
vt 0.253398 0.268897
vt 0.253691 0.264523
vt 0.253691 0.268897
vt 0.251631 0.276548
vt 0.252031 0.264290
vt 0.252031 0.276548
vt 0.301916 0.266148
vt 0.302316 0.253890
vt 0.302316 0.266148
vt 0.294207 0.233674
vt 0.294592 0.229315
vt 0.294592 0.233662
vt 0.294643 0.233835
vt 0.294936 0.229315
vt 0.294936 0.233834
vt 0.846492 0.156190
vt 0.840480 0.164410
vt 0.840480 0.156195
vt 0.805544 0.164408
vt 0.811556 0.156188
vt 0.811556 0.164404
vt 0.827467 0.156188
vt 0.819556 0.164600
vt 0.819556 0.156436
vt 0.860808 0.154743
vt 0.852595 0.107051
vt 0.860808 0.106994
vt 0.844291 0.106995
vt 0.836077 0.156144
vt 0.836077 0.106994
vt 0.819556 0.156143
vt 0.827772 0.106995
vt 0.827772 0.156143
vt 0.819511 0.156188
vt 0.811601 0.164600
vt 0.811601 0.156436
vt 0.869111 0.107051
vt 0.877323 0.154743
vt 0.869111 0.154799
vt 0.827818 0.156144
vt 0.836031 0.106995
vt 0.836031 0.156145
vt 0.803034 0.156143
vt 0.811250 0.106995
vt 0.811250 0.156143
vt 0.852550 0.156190
vt 0.846537 0.164410
vt 0.846537 0.156195
vt 0.258915 0.250905
vt 0.253883 0.272914
vt 0.253883 0.250747
vt 0.860505 0.154845
vt 0.852595 0.163257
vt 0.852595 0.155093
vt 0.303013 0.253839
vt 0.301893 0.253838
vt 0.281522 0.246777
vt 0.286586 0.237291
vt 0.286586 0.246872
vt 0.293283 0.236934
vt 0.253832 0.251929
vt 0.270091 0.251256
vt 0.270274 0.269592
vt 0.245941 0.274622
vt 0.253398 0.251980
vt 0.294156 0.233662
vt 0.251579 0.264472
vt 0.252082 0.264290
vt 0.252947 0.264290
vt 0.869066 0.106994
vt 0.252850 0.261194
vt 0.819511 0.156143
vt 0.852550 0.156145
vt 0.301864 0.270743
vt 0.250677 0.251993
vt 0.245992 0.264229
vt 0.298020 0.204765
vt 0.302509 0.228862
vt 0.293719 0.233662
vt 0.252482 0.264238
vt 0.251631 0.251980
vt 0.252947 0.251980
vt 0.253398 0.264523
vt 0.251631 0.264290
vt 0.301916 0.253890
vt 0.294207 0.229327
vt 0.294643 0.229316
vt 0.846492 0.164405
vt 0.805544 0.156193
vt 0.827467 0.164352
vt 0.852595 0.154799
vt 0.844291 0.156145
vt 0.819556 0.106994
vt 0.819511 0.164352
vt 0.877323 0.106994
vt 0.827818 0.106994
vt 0.803034 0.106994
vt 0.852550 0.164405
vt 0.860505 0.163009
vt 0.303013 0.236998
vt 0.281522 0.237196
s 1
usemtl Material.001
f 17/1/1 8/2/1 7/3/1
f 11/4/2 25/5/2 5/6/2
f 13/7/2 28/8/2 15/9/2
f 13/7/2 35/10/2 27/11/2
f 15/9/2 39/12/2 43/13/2
f 11/4/2 40/14/2 26/15/2
f 5/6/2 36/16/2 42/17/2
f 31/18/2 50/19/2 32/20/2
f 31/18/2 53/21/2 49/22/2
f 32/20/2 55/23/2 47/24/2
f 45/25/1 55/26/1 53/27/1
f 51/28/2 59/29/2 53/30/2
f 52/31/2 60/32/2 48/33/2
f 48/34/1 59/35/1 46/36/1
f 51/28/2 55/37/2 52/31/2
f 29/38/2 58/39/2 57/40/2
f 29/38/2 59/41/2 54/42/2
f 56/43/2 58/39/2 30/44/2
f 54/42/2 60/45/2 56/43/2
f 6/46/2 26/15/2 12/47/2
f 19/48/2 2/49/2 1/50/2
f 17/51/3 25/52/3 19/53/3
f 18/54/4 2/55/4 20/56/4
f 10/57/5 12/58/5 26/59/5
f 8/60/4 12/61/4 9/62/4
f 7/3/1 9/63/1 10/64/1
f 27/65/6 34/66/6 14/67/6
f 7/3/1 37/68/1 33/69/1
f 15/70/6 55/71/6 50/72/6
f 8/60/4 20/56/4 6/73/4
f 19/48/2 22/74/2 24/75/2
f 25/5/2 20/76/2 19/48/2
f 3/77/1 18/78/1 17/1/1
f 3/77/1 23/79/1 21/80/1
f 1/81/6 21/82/6 22/83/6
f 17/84/5 24/85/5 23/86/5
f 37/87/5 26/59/5 40/88/5
f 11/4/2 26/15/2 25/5/2
f 13/7/2 27/11/2 28/8/2
f 13/89/4 50/90/4 49/91/4
f 13/7/2 41/92/2 35/10/2
f 15/9/2 28/8/2 39/12/2
f 32/93/5 64/94/5 62/95/5
f 11/96/3 57/97/3 58/98/3
f 54/99/3 72/100/3 71/101/3
f 46/102/6 65/103/6 66/104/6
f 93/105/2 90/106/2 89/107/2
f 11/4/2 44/108/2 40/14/2
f 35/10/2 42/17/2 36/16/2
f 5/6/2 25/5/2 36/16/2
f 39/109/5 37/87/5 40/88/5
f 60/110/6 11/111/6 58/112/6
f 43/113/6 60/110/6 55/71/6
f 96/114/4 90/115/4 94/116/4
f 91/117/3 93/118/3 89/119/3
f 25/120/6 33/121/6 36/122/6
f 33/121/6 35/123/6 36/122/6
f 5/124/5 59/125/5 57/126/5
f 41/127/5 59/125/5 42/128/5
f 41/127/5 49/129/5 53/130/5
f 64/131/2 61/132/2 62/133/2
f 31/18/2 49/22/2 50/19/2
f 31/18/2 45/134/2 53/21/2
f 32/20/2 50/19/2 55/23/2
f 45/25/1 47/135/1 55/26/1
f 51/28/2 46/136/2 59/29/2
f 52/31/2 55/37/2 60/32/2
f 48/34/1 60/137/1 59/35/1
f 51/28/2 53/30/2 55/37/2
f 29/38/2 30/44/2 58/39/2
f 29/38/2 57/40/2 59/41/2
f 56/43/2 60/45/2 58/39/2
f 54/42/2 59/41/2 60/45/2
f 70/138/2 71/139/2 72/140/2
f 65/141/2 68/142/2 66/143/2
f 52/144/5 68/145/5 67/146/5
f 30/147/4 69/148/4 70/149/4
f 47/150/4 63/151/4 64/152/4
f 48/153/4 66/154/4 68/155/4
f 29/156/6 71/157/6 69/158/6
f 31/159/3 62/160/3 61/161/3
f 51/162/3 67/163/3 65/164/3
f 56/165/5 70/166/5 72/167/5
f 45/168/6 61/169/6 63/170/6
f 73/171/6 76/172/6 75/173/6
f 81/174/6 84/175/6 83/176/6
f 79/177/5 78/178/5 77/179/5
f 77/180/2 74/181/2 73/182/2
f 75/183/3 77/184/3 73/185/3
f 80/186/4 74/187/4 78/188/4
f 87/189/5 86/190/5 85/191/5
f 85/192/2 82/193/2 81/194/2
f 83/195/3 85/196/3 81/197/3
f 88/198/4 82/199/4 86/200/4
f 89/201/6 92/202/6 91/203/6
f 44/108/2 39/12/2 40/14/2
f 38/204/5 28/205/5 16/206/5
f 95/207/5 94/208/5 93/209/5
f 1/81/6 4/210/6 3/211/6
f 37/68/1 34/212/1 33/69/1
f 34/212/1 16/213/1 14/214/1
f 17/1/1 18/78/1 8/2/1
f 6/46/2 25/5/2 26/15/2
f 19/48/2 20/76/2 2/49/2
f 17/51/3 7/215/3 25/52/3
f 18/54/4 4/216/4 2/55/4
f 10/57/5 9/217/5 12/58/5
f 8/60/4 6/73/4 12/61/4
f 7/3/1 8/2/1 9/63/1
f 27/65/6 35/123/6 34/66/6
f 7/3/1 10/64/1 37/68/1
f 15/70/6 43/113/6 55/71/6
f 8/60/4 18/54/4 20/56/4
f 19/48/2 1/50/2 22/74/2
f 25/5/2 6/46/2 20/76/2
f 3/77/1 4/218/1 18/78/1
f 3/77/1 17/1/1 23/79/1
f 1/81/6 3/211/6 21/82/6
f 17/84/5 19/219/5 24/85/5
f 37/87/5 10/57/5 26/59/5
f 13/89/4 15/220/4 50/90/4
f 32/93/5 47/221/5 64/94/5
f 11/96/3 5/222/3 57/97/3
f 54/99/3 56/223/3 72/100/3
f 46/102/6 51/224/6 65/103/6
f 93/105/2 94/225/2 90/106/2
f 35/10/2 41/92/2 42/17/2
f 39/109/5 38/204/5 37/87/5
f 60/110/6 44/226/6 11/111/6
f 43/113/6 44/226/6 60/110/6
f 96/114/4 92/227/4 90/115/4
f 91/117/3 95/228/3 93/118/3
f 25/120/6 7/229/6 33/121/6
f 33/121/6 34/66/6 35/123/6
f 5/124/5 42/128/5 59/125/5
f 41/127/5 53/130/5 59/125/5
f 41/127/5 13/230/5 49/129/5
f 64/131/2 63/231/2 61/132/2
f 70/138/2 69/232/2 71/139/2
f 65/141/2 67/233/2 68/142/2
f 52/144/5 48/234/5 68/145/5
f 30/147/4 29/235/4 69/148/4
f 47/150/4 45/236/4 63/151/4
f 48/153/4 46/237/4 66/154/4
f 29/156/6 54/238/6 71/157/6
f 31/159/3 32/239/3 62/160/3
f 51/162/3 52/240/3 67/163/3
f 56/165/5 30/241/5 70/166/5
f 45/168/6 31/242/6 61/169/6
f 73/171/6 74/243/6 76/172/6
f 81/174/6 82/244/6 84/175/6
f 79/177/5 80/245/5 78/178/5
f 77/180/2 78/246/2 74/181/2
f 75/183/3 79/247/3 77/184/3
f 80/186/4 76/248/4 74/187/4
f 87/189/5 88/249/5 86/190/5
f 85/192/2 86/250/2 82/193/2
f 83/195/3 87/251/3 85/196/3
f 88/198/4 84/252/4 82/199/4
f 89/201/6 90/253/6 92/202/6
f 44/108/2 43/13/2 39/12/2
f 38/204/5 39/109/5 28/205/5
f 95/207/5 96/254/5 94/208/5
f 1/81/6 2/255/6 4/210/6
f 37/68/1 38/256/1 34/212/1
f 34/212/1 38/256/1 16/213/1
