# Blender 4.5.4 LTS
# www.blender.org
mtllib Door1@keydoor.mtl
o Door.004
v -0.662144 -1.627388 0.057690
v -0.662144 1.350666 0.057690
v 0.669568 -1.627388 0.057690
v 0.669568 1.350666 0.057690
v -0.542932 1.247369 0.045739
v 0.550356 -1.524090 0.045739
v 0.634493 -1.586348 0.045739
v -0.627069 1.309626 0.045739
v 0.634493 1.309626 0.057690
v -0.542932 -0.407567 0.045739
v -0.542932 -0.960487 0.045739
v 0.634493 1.309626 0.045739
v 0.550356 -0.960487 0.045739
v 0.550356 -0.407567 0.045739
v 0.634493 -1.586348 0.057690
v -0.662144 -0.386959 0.057690
v -0.662144 -0.981096 0.057690
v 0.550356 1.247369 0.045739
v -0.542932 -1.524090 0.045739
v -0.627069 -1.586348 0.045739
v -0.627069 1.309626 0.057690
v -0.627069 -1.586348 0.057690
v -0.542932 -1.524090 0.035053
v 0.550356 -1.524090 0.035053
v 0.550356 1.247369 0.035053
v 0.669568 -0.981096 0.057690
v 0.669568 -0.386959 0.057690
v -0.542932 1.247369 0.035053
v -0.542932 -0.407567 0.035053
v -0.542932 -0.960487 0.035053
v 0.550356 -0.960487 0.035053
v 0.550356 -0.407567 0.035053
v -0.627069 -0.395147 0.057690
v -0.627069 -0.972908 0.057690
v -0.627069 -0.395147 0.045739
v -0.627069 -0.972908 0.045739
v 0.634493 -0.972908 0.057690
v 0.634493 -0.395147 0.057690
v 0.634493 -0.972908 0.045739
v 0.634493 -0.395147 0.045739
v -0.460203 -0.321667 0.035053
v -0.460203 1.154410 0.035053
v 0.467627 1.154410 0.035053
v 0.467627 -0.321667 0.035053
v 0.467627 -0.490505 0.035053
v -0.460203 -0.490505 0.035053
v 0.467627 -0.877549 0.035053
v -0.460203 -0.877549 0.035053
v -0.460203 -1.439550 0.035053
v 0.467627 -1.439550 0.035053
v 0.467627 -1.045028 0.035053
v -0.460203 -1.045028 0.035053
v -0.460203 -0.321667 0.013599
v -0.460203 1.154410 0.013599
v 0.467627 1.154410 0.013599
v 0.467627 -0.321667 0.013599
v 0.467627 -0.490505 0.013599
v -0.460203 -0.490505 0.013599
v 0.467627 -0.877549 0.013599
v -0.460203 -0.877549 0.013599
v -0.460203 -1.439550 0.013599
v 0.467627 -1.439550 0.013599
v 0.467627 -1.045028 0.013599
v -0.460203 -1.045028 0.013599
v -0.367420 -0.205822 0.053017
v -0.367420 1.038565 0.053017
v 0.374844 1.038565 0.053017
v 0.374844 -0.205822 0.053017
v 0.374844 -0.529210 0.053017
v -0.367420 -0.529210 0.053017
v 0.374844 -0.838845 0.053017
v -0.367420 -0.838845 0.053017
v -0.367420 -1.400098 0.053017
v 0.374844 -1.400098 0.053017
v 0.374844 -1.084480 0.053017
v -0.367420 -1.084480 0.053017
v -0.359997 -0.193378 0.036652
v -0.359997 1.026121 0.036652
v 0.367422 1.026121 0.036652
v 0.367422 -0.193378 0.036652
v 0.367422 -0.532306 0.036652
v -0.359997 -0.532306 0.036652
v 0.367422 -0.835749 0.036652
v -0.359997 -0.835749 0.036652
v -0.359997 -1.396941 0.036652
v 0.367422 -1.396941 0.036652
v 0.367422 -1.087636 0.036652
v -0.359997 -1.087636 0.036652
v -0.662144 -1.627388 -0.057347
v -0.662144 1.350666 -0.057347
v 0.669568 -1.627388 -0.057347
v 0.669568 1.350666 -0.057347
v -0.542932 1.247369 -0.045396
v 0.550356 -1.524090 -0.045396
v 0.634493 -1.586348 -0.045396
v -0.627069 1.309626 -0.045396
v 0.634493 1.309626 -0.057347
v -0.542932 -0.407567 -0.045396
v -0.542932 -0.960487 -0.045396
v 0.634493 1.309626 -0.045396
v 0.550356 -0.960487 -0.045396
v 0.550356 -0.407567 -0.045396
v 0.669568 -0.981096 0.000172
v 0.669568 -0.386959 0.000172
v 0.634493 -1.586348 -0.057347
v -0.662144 -0.386959 -0.057347
v -0.662144 -0.981096 -0.057347
v 0.550356 1.247369 -0.045396
v -0.542932 -1.524090 -0.045396
v -0.627069 -1.586348 -0.045396
v -0.627069 1.309626 -0.057347
v -0.627069 -1.586348 -0.057347
v -0.542932 -1.524090 -0.034710
v 0.550356 -1.524090 -0.034710
v 0.550356 1.247369 -0.034710
v 0.669568 -0.981096 -0.057347
v 0.669568 -0.386959 -0.057347
v -0.542932 1.247369 -0.034710
v -0.542932 -0.407567 -0.034710
v -0.542932 -0.960487 -0.034710
v 0.550356 -0.960487 -0.034710
v 0.550356 -0.407567 -0.034710
v -0.662144 -0.981096 0.000172
v -0.662144 -0.386959 0.000172
v -0.627069 -0.395147 -0.057347
v -0.627069 -0.972908 -0.057347
v -0.627069 -0.395147 -0.045396
v -0.662144 -1.627388 0.000172
v -0.662144 1.350666 0.000172
v 0.669568 -1.627388 0.000172
v 0.669568 1.350666 0.000172
v -0.627069 -0.972908 -0.045396
v 0.634493 -0.972908 -0.057347
v 0.634493 -0.395147 -0.057347
v 0.634493 -0.972908 -0.045396
v 0.634493 -0.395147 -0.045396
v -0.460203 -0.321667 -0.034710
v -0.460203 1.154410 -0.034710
v 0.467627 1.154410 -0.034710
v 0.467627 -0.321667 -0.034710
v 0.467627 -0.490505 -0.034710
v -0.460203 -0.490505 -0.034710
v 0.467627 -0.877549 -0.034710
v -0.460203 -0.877549 -0.034710
v -0.460203 -1.439550 -0.034710
v 0.467627 -1.439550 -0.034710
v 0.467627 -1.045028 -0.034710
v -0.460203 -1.045028 -0.034710
v -0.460203 -0.321667 -0.013255
v -0.460203 1.154410 -0.013255
v 0.467627 1.154410 -0.013255
v 0.467627 -0.321667 -0.013255
v 0.467627 -0.490505 -0.013255
v -0.460203 -0.490505 -0.013255
v 0.467627 -0.877549 -0.013255
v -0.460203 -0.877549 -0.013255
v -0.460203 -1.439550 -0.013255
v 0.467627 -1.439550 -0.013255
v 0.467627 -1.045028 -0.013255
v -0.460203 -1.045028 -0.013255
v -0.367420 -0.205822 -0.052673
v -0.367420 1.038565 -0.052673
v 0.374844 1.038565 -0.052673
v 0.374844 -0.205822 -0.052673
v 0.374844 -0.529210 -0.052673
v -0.367420 -0.529210 -0.052673
v 0.374844 -0.838845 -0.052673
v -0.367420 -0.838845 -0.052673
v -0.367420 -1.400098 -0.052673
v 0.374844 -1.400098 -0.052673
v 0.374844 -1.084480 -0.052673
v -0.367420 -1.084480 -0.052673
v -0.359997 -0.193378 -0.036309
v -0.359997 1.026121 -0.036309
v 0.367422 1.026121 -0.036309
v 0.367422 -0.193378 -0.036309
v 0.367422 -0.532306 -0.036309
v -0.359997 -0.532306 -0.036309
v 0.367422 -0.835749 -0.036309
v -0.359997 -0.835749 -0.036309
v -0.359997 -1.396941 -0.036309
v 0.367422 -1.396941 -0.036309
v 0.367422 -1.087636 -0.036309
v -0.359997 -1.087636 -0.036309
v -0.662161 -1.627388 0.155749
v -0.662161 1.350666 0.155749
v 0.669551 -1.627388 0.155749
v 0.669551 1.350666 0.155749
v -0.662161 -0.673888 0.155749
v 0.669551 -0.673888 0.155749
v -0.753391 -1.627388 0.155749
v 0.760781 1.407034 0.155749
v -0.753391 -0.673888 0.155749
v -0.753391 1.407034 0.155749
v 0.760781 -1.627388 0.155749
v 0.760781 -0.673888 0.155749
v 0.839807 1.433992 0.159728
v -0.832417 1.433992 0.159728
v 0.839807 1.458500 0.159728
v -0.832417 1.458500 0.159728
v 0.878003 1.478106 0.163381
v -0.870613 1.478106 0.163381
v 0.878003 1.512418 0.163381
v -0.870613 1.512418 0.163381
v -0.662161 -1.627388 -0.156155
v -0.662161 1.350666 -0.156155
v 0.669551 -1.627388 -0.156155
v 0.669551 1.350666 -0.156155
v 0.669551 -0.673888 -0.000203
v -0.662161 -0.673888 -0.156155
v -0.662161 -1.627388 -0.000203
v -0.662161 1.350666 -0.000203
v 0.669551 -1.627388 -0.000203
v 0.669551 1.350666 -0.000203
v 0.669551 -0.673888 -0.156155
v -0.662161 -0.673888 -0.000203
v -0.753391 -1.627388 -0.000203
v -0.753391 -1.627388 -0.156155
v 0.760781 1.407034 -0.000203
v 0.760781 1.407034 -0.156155
v 0.760781 -0.673888 -0.000203
v -0.753391 -0.673888 -0.156155
v -0.753391 1.407034 -0.156155
v -0.753391 -0.673888 -0.000203
v -0.753391 1.407034 -0.000203
v 0.760781 -1.627388 -0.156155
v 0.760781 -1.627388 -0.000203
v 0.760781 -0.673888 -0.156155
v 0.839807 1.433992 -0.000203
v 0.839807 1.433992 -0.160134
v -0.832417 1.433992 -0.160134
v -0.832417 1.433992 -0.000203
v 0.839807 1.458500 -0.000203
v 0.839807 1.458500 -0.160134
v -0.832417 1.458500 -0.160134
v -0.832417 1.458500 -0.000203
v 0.878003 1.478106 -0.000203
v 0.878003 1.478106 -0.163787
v -0.870613 1.478106 -0.163787
v -0.870613 1.478106 -0.000203
v 0.878003 1.512418 -0.000203
v 0.878003 1.512418 -0.163787
v -0.870613 1.512418 -0.163787
v -0.870613 1.512418 -0.000203
v -0.459006 -0.402783 0.104583
v -0.486325 -0.435255 0.136071
v -0.513644 -0.402783 0.104583
v -0.486325 -0.430102 0.104583
v -0.486325 -0.375464 0.104583
v -0.486325 -0.402783 0.157173
v -0.518798 -0.402783 0.136071
v -0.486325 -0.370310 0.136071
v -0.285931 -0.370310 0.136071
v -0.237419 -0.402783 0.136071
v -0.285931 -0.402783 0.157173
v -0.285931 -0.402783 0.114970
v -0.285931 -0.435255 0.136071
v -0.394148 -0.435255 0.136071
v -0.394148 -0.402783 0.114970
v -0.394148 -0.402783 0.157173
v -0.394148 -0.370310 0.136071
v -0.509779 -0.402783 0.086907
v -0.462872 -0.402783 0.086907
v -0.486325 -0.426236 0.086907
v -0.486325 -0.379329 0.086907
v -0.517510 -0.402783 0.117649
v -0.440215 -0.402783 0.112373
v -0.486325 -0.433967 0.117649
v -0.486325 -0.371598 0.117649
v -0.465836 -0.382294 0.104583
v -0.465836 -0.423272 0.104583
v -0.506814 -0.423272 0.104583
v -0.506814 -0.382294 0.104583
v -0.510680 -0.402783 0.151897
v -0.447044 -0.402783 0.157173
v -0.486325 -0.427137 0.151897
v -0.486325 -0.378428 0.151897
v -0.447044 -0.435255 0.136071
v -0.510680 -0.427137 0.136071
v -0.510680 -0.378428 0.136071
v -0.447044 -0.370310 0.136071
v -0.249547 -0.402783 0.120245
v -0.249547 -0.402783 0.151897
v -0.249547 -0.427137 0.136071
v -0.249547 -0.378428 0.136071
v -0.285931 -0.378428 0.151897
v -0.394148 -0.378428 0.120245
v -0.285931 -0.427137 0.151897
v -0.394148 -0.427137 0.120245
v -0.394148 -0.378428 0.151897
v -0.285931 -0.378428 0.120245
v -0.394148 -0.427137 0.151897
v -0.285931 -0.427137 0.120245
v -0.337241 -0.435255 0.136071
v -0.337241 -0.402783 0.114970
v -0.337241 -0.402783 0.157173
v -0.337241 -0.370310 0.136071
v -0.503915 -0.420373 0.086907
v -0.503915 -0.385193 0.086907
v -0.468735 -0.420373 0.086907
v -0.468735 -0.385193 0.086907
v -0.509713 -0.426171 0.117649
v -0.509713 -0.379394 0.117649
v -0.450114 -0.376124 0.116684
v -0.450114 -0.429441 0.116684
v -0.504366 -0.420823 0.147794
v -0.504366 -0.384742 0.147794
v -0.447044 -0.378428 0.151897
v -0.447044 -0.427137 0.151897
v -0.258980 -0.384742 0.124348
v -0.258980 -0.420823 0.124348
v -0.258980 -0.384742 0.147794
v -0.258980 -0.420823 0.147794
v -0.337241 -0.378428 0.151897
v -0.337241 -0.378428 0.120245
v -0.337241 -0.427137 0.151897
v -0.337241 -0.427137 0.120245
v -0.459006 -0.402783 -0.110170
v -0.486325 -0.435255 -0.141658
v -0.513644 -0.402783 -0.110170
v -0.486325 -0.430102 -0.110170
v -0.486325 -0.375464 -0.110170
v -0.486325 -0.402783 -0.162759
v -0.518798 -0.402783 -0.141658
v -0.486325 -0.370310 -0.141658
v -0.285931 -0.370310 -0.141658
v -0.237419 -0.402783 -0.141658
v -0.285931 -0.402783 -0.162759
v -0.285931 -0.402783 -0.120557
v -0.285931 -0.435255 -0.141658
v -0.394148 -0.435255 -0.141658
v -0.394148 -0.402783 -0.120557
v -0.394148 -0.402783 -0.162759
v -0.394148 -0.370310 -0.141658
v -0.509779 -0.402783 -0.092494
v -0.462872 -0.402783 -0.092494
v -0.486325 -0.426236 -0.092494
v -0.486325 -0.379329 -0.092494
v -0.517510 -0.402783 -0.123236
v -0.440215 -0.402783 -0.117960
v -0.486325 -0.433967 -0.123236
v -0.486325 -0.371598 -0.123236
v -0.465836 -0.382294 -0.110170
v -0.465836 -0.423272 -0.110170
v -0.506814 -0.423272 -0.110170
v -0.506814 -0.382294 -0.110170
v -0.510680 -0.402783 -0.157484
v -0.447044 -0.402783 -0.162759
v -0.486325 -0.427137 -0.157484
v -0.486325 -0.378428 -0.157484
v -0.447044 -0.435255 -0.141658
v -0.510680 -0.427137 -0.141658
v -0.510680 -0.378428 -0.141658
v -0.447044 -0.370310 -0.141658
v -0.249547 -0.402783 -0.125832
v -0.249547 -0.402783 -0.157484
v -0.249547 -0.427137 -0.141658
v -0.249547 -0.378428 -0.141658
v -0.285931 -0.378428 -0.157484
v -0.394148 -0.378428 -0.125832
v -0.285931 -0.427137 -0.157484
v -0.394148 -0.427137 -0.125832
v -0.394148 -0.378428 -0.157484
v -0.285931 -0.378428 -0.125832
v -0.394148 -0.427137 -0.157484
v -0.285931 -0.427137 -0.125832
v -0.337241 -0.435255 -0.141658
v -0.337241 -0.402783 -0.120557
v -0.337241 -0.402783 -0.162759
v -0.337241 -0.370310 -0.141658
v -0.503915 -0.420373 -0.092494
v -0.503915 -0.385193 -0.092494
v -0.468735 -0.420373 -0.092494
v -0.468735 -0.385193 -0.092494
v -0.509713 -0.426171 -0.123236
v -0.509713 -0.379394 -0.123236
v -0.450114 -0.376124 -0.122271
v -0.450114 -0.429441 -0.122271
v -0.504366 -0.420823 -0.153381
v -0.504366 -0.384742 -0.153381
v -0.447044 -0.378428 -0.157484
v -0.447044 -0.427137 -0.157484
v -0.258980 -0.384742 -0.129935
v -0.258980 -0.420823 -0.129935
v -0.258980 -0.384742 -0.153381
v -0.258980 -0.420823 -0.153381
v -0.337241 -0.378428 -0.157484
v -0.337241 -0.378428 -0.125832
v -0.337241 -0.427137 -0.157484
v -0.337241 -0.427137 -0.125832
v -0.509134 -0.402783 0.042057
v -0.463516 -0.402783 0.042057
v -0.486325 -0.425592 0.042057
v -0.486325 -0.379973 0.042057
v -0.503432 -0.419890 0.042057
v -0.503432 -0.385676 0.042057
v -0.469218 -0.419890 0.042057
v -0.469218 -0.385676 0.042057
v -0.509134 -0.402783 -0.047644
v -0.463516 -0.402783 -0.047644
v -0.486325 -0.425592 -0.047644
v -0.486325 -0.379973 -0.047644
v -0.503432 -0.419890 -0.047644
v -0.503432 -0.385676 -0.047644
v -0.469218 -0.419890 -0.047644
v -0.469218 -0.385676 -0.047644
v -0.532882 -0.402783 -0.002793
v -0.521243 -0.368602 -0.002793
v -0.521243 -0.436963 -0.002793
v -0.439768 -0.402783 -0.002793
v -0.451408 -0.368602 -0.002793
v -0.451408 -0.436963 -0.002793
v -0.486325 -0.448356 -0.002793
v -0.486325 -0.357209 -0.002793
v -0.522258 -0.367609 0.038096
v -0.450393 -0.437956 0.038096
v -0.522258 -0.367609 -0.043683
v -0.450393 -0.437956 -0.043683
v -0.534235 -0.402783 0.038096
v -0.438415 -0.402783 0.038096
v -0.486325 -0.449681 0.038096
v -0.486325 -0.355884 0.038096
v -0.522258 -0.437956 0.038096
v -0.450393 -0.367609 0.038096
v -0.534235 -0.402783 -0.043683
v -0.438415 -0.402783 -0.043683
v -0.486325 -0.449681 -0.043683
v -0.486325 -0.355884 -0.043683
v -0.522258 -0.437956 -0.043683
v -0.450393 -0.367609 -0.043683
vn 1.0000 -0.0000 -0.0000
vn -0.0000 -0.0000 1.0000
vn -0.0000 -1.0000 -0.0000
vn -1.0000 -0.0000 -0.0000
vn -0.0000 1.0000 -0.0000
vn 0.3910 -0.0000 0.9204
vn -0.3910 -0.0000 0.9204
vn -0.0000 0.7960 0.6053
vn 0.9107 -0.0000 0.4131
vn -0.0000 0.9819 0.1894
vn -0.0000 0.7068 0.7074
vn -0.0000 0.7135 0.7006
vn -0.0000 0.3221 0.9467
vn -0.0000 -0.7068 0.7074
vn -0.0000 -0.7135 0.7006
vn -0.0000 -0.3221 0.9467
vn -0.9107 -0.0000 0.4131
vn -0.0000 -0.7960 0.6053
vn -0.0000 -0.9826 0.1859
vn -0.0000 0.9826 0.1859
vn -0.0000 -0.9819 0.1894
vn -0.0000 -0.0000 -1.0000
vn 0.3910 -0.0000 -0.9204
vn -0.3910 -0.0000 -0.9204
vn -0.0000 0.7960 -0.6053
vn 0.9107 -0.0000 -0.4131
vn -0.0000 0.9819 -0.1894
vn -0.0000 0.7068 -0.7074
vn -0.0000 0.7135 -0.7006
vn -0.0000 0.3221 -0.9467
vn -0.0000 -0.7068 -0.7074
vn -0.0000 -0.7135 -0.7006
vn -0.0000 -0.3221 -0.9467
vn -0.9107 -0.0000 -0.4131
vn -0.0000 -0.7960 -0.6053
vn -0.0000 -0.9826 -0.1859
vn -0.0000 0.9826 -0.1859
vn -0.0000 -0.9819 -0.1894
vn -0.3229 -0.9464 -0.0000
vn -0.0000 -0.1460 0.9893
vn 0.3229 -0.9464 -0.0000
vn -0.0000 -0.1832 0.9831
vn -0.4567 -0.8896 -0.0000
vn 0.4567 -0.8896 -0.0000
vn -0.0000 -0.1460 -0.9893
vn -0.0000 -0.1832 -0.9831
vn -0.9486 -0.3162 -0.0136
vn -0.9486 0.3162 -0.0136
vn 0.9486 0.3162 -0.0136
vn 0.9486 -0.3162 -0.0136
vn 0.9289 -0.3096 -0.2031
vn 0.9289 0.3096 -0.2031
vn 0.4437 0.2435 -0.8625
vn 0.4686 0.2308 -0.8527
vn 0.3677 0.2799 -0.8868
vn 0.4437 -0.2435 -0.8625
vn 0.4686 -0.2308 -0.8527
vn 0.5531 -0.1844 -0.8125
vn 0.3162 -0.9486 -0.0136
vn -0.3162 -0.9486 -0.0136
vn -0.3162 0.9486 -0.0136
vn 0.3162 0.9486 -0.0136
vn -0.3155 -0.9466 -0.0662
vn 0.0833 -0.9866 -0.1404
vn 0.0338 -0.9729 -0.2286
vn -0.0000 -0.9579 -0.2873
vn -0.0000 -0.8898 0.4564
vn -0.3356 -0.8100 0.4808
vn -0.3083 -0.8015 0.5123
vn -0.2613 -0.7840 0.5630
vn -0.9289 0.3096 -0.2031
vn -0.9289 -0.3096 -0.2031
vn -0.9134 -0.3045 -0.2702
vn -0.9134 0.3045 -0.2702
vn -0.3096 -0.9289 -0.2031
vn 0.3096 -0.9289 -0.2031
vn 0.1419 -0.8634 -0.4842
vn 0.2250 -0.8967 -0.3812
vn 0.3045 -0.9134 -0.2702
vn -0.3045 -0.9134 -0.2702
vn 0.3096 0.9289 -0.2031
vn -0.3096 0.9289 -0.2031
vn -0.3045 0.9134 -0.2702
vn 0.2250 0.8967 -0.3812
vn 0.1419 0.8634 -0.4842
vn 0.3045 0.9134 -0.2702
vn -0.0000 -0.2117 0.9773
vn -0.0000 0.2117 0.9773
vn -0.2440 0.2440 0.9386
vn -0.2030 0.2842 0.9370
vn -0.2440 -0.2440 0.9386
vn -0.2842 -0.2030 0.9370
vn -0.9466 0.3155 -0.0662
vn -0.9466 -0.3155 -0.0662
vn -0.8100 -0.3356 0.4808
vn -0.8015 -0.3083 0.5123
vn -0.8217 -0.3835 0.4215
vn -0.8100 0.3356 0.4808
vn -0.8015 0.3083 0.5123
vn -0.7840 0.2613 0.5630
vn 0.0833 0.9866 -0.1404
vn 0.0338 0.9729 -0.2286
vn 0.1219 0.9901 -0.0692
vn -0.3155 0.9466 -0.0662
vn -0.3356 0.8100 0.4808
vn -0.3083 0.8015 0.5123
vn -0.3835 0.8217 0.4215
vn -0.0000 0.8898 0.4564
vn -0.0000 0.8898 -0.4564
vn 0.2411 0.8421 0.4824
vn 0.2023 0.8167 0.5404
vn 0.1783 0.7992 0.5740
vn 0.2411 0.8421 -0.4824
vn 0.2023 0.8167 -0.5404
vn 0.2678 0.8573 -0.4398
vn 0.6509 -0.4136 -0.6365
vn 0.6820 -0.3985 -0.6133
vn 0.7382 -0.3676 -0.5657
vn 0.6820 0.3985 -0.6133
vn 0.6509 0.4136 -0.6365
vn 0.7382 0.3676 -0.5657
vn 0.6509 0.4136 0.6365
vn 0.6820 0.3985 0.6133
vn 0.7382 0.3676 0.5657
vn 0.6820 -0.3985 0.6133
vn 0.6509 -0.4136 0.6365
vn 0.7382 -0.3676 0.5657
vn 0.1729 -0.2385 0.9556
vn 0.1584 -0.2587 0.9529
vn 0.1374 -0.2874 0.9479
vn 0.1729 0.2385 0.9556
vn 0.1584 0.2587 0.9529
vn 0.1946 0.2076 0.9587
vn -0.0000 -0.2117 -0.9773
vn -0.0000 0.2117 -0.9773
vn 0.1729 0.2385 -0.9556
vn 0.1584 0.2587 -0.9529
vn 0.1374 0.2874 -0.9479
vn 0.1729 -0.2385 -0.9556
vn 0.1584 -0.2587 -0.9529
vn 0.1946 -0.2076 -0.9587
vn -0.0000 -0.8898 -0.4564
vn 0.2411 -0.8421 -0.4824
vn 0.2023 -0.8167 -0.5404
vn 0.1783 -0.7992 -0.5740
vn 0.2411 -0.8421 0.4824
vn 0.2023 -0.8167 0.5404
vn 0.2678 -0.8573 0.4398
vn 0.0473 -0.9441 -0.3263
vn 0.0133 -0.9070 -0.4209
vn 0.0600 -0.2025 -0.9775
vn 0.0661 -0.1914 -0.9793
vn 0.0550 -0.2114 -0.9759
vn 0.0661 0.1914 -0.9793
vn 0.0600 0.2025 -0.9775
vn 0.0550 0.2114 -0.9759
vn 0.0133 0.9070 -0.4209
vn 0.0473 0.9441 -0.3263
vn -0.9486 -0.3162 0.0136
vn -0.9486 0.3162 0.0136
vn 0.9486 0.3162 0.0136
vn 0.9486 -0.3162 0.0136
vn 0.9289 -0.3096 0.2031
vn 0.9289 0.3096 0.2031
vn 0.4437 0.2435 0.8625
vn 0.4686 0.2308 0.8527
vn 0.5531 0.1844 0.8125
vn 0.4437 -0.2435 0.8625
vn 0.4686 -0.2308 0.8527
vn 0.3677 -0.2799 0.8868
vn 0.3162 -0.9486 0.0136
vn -0.3162 -0.9486 0.0136
vn -0.3162 0.9486 0.0136
vn 0.3162 0.9486 0.0136
vn -0.3155 -0.9466 0.0662
vn 0.0833 -0.9866 0.1404
vn 0.0338 -0.9729 0.2286
vn 0.1219 -0.9901 0.0692
vn -0.3356 -0.8100 -0.4808
vn -0.3083 -0.8015 -0.5123
vn -0.3835 -0.8217 -0.4215
vn -0.9289 0.3096 0.2031
vn -0.9289 -0.3096 0.2031
vn -0.9134 -0.3045 0.2702
vn -0.9134 0.3045 0.2702
vn -0.3096 -0.9289 0.2031
vn 0.3096 -0.9289 0.2031
vn 0.2250 -0.8967 0.3812
vn 0.1419 -0.8634 0.4842
vn 0.3045 -0.9134 0.2702
vn -0.3045 -0.9134 0.2702
vn 0.3096 0.9289 0.2031
vn -0.3096 0.9289 0.2031
vn -0.3045 0.9134 0.2702
vn 0.1419 0.8634 0.4842
vn 0.2250 0.8967 0.3812
vn 0.3045 0.9134 0.2702
vn -0.2440 0.2440 -0.9386
vn -0.2842 0.2030 -0.9370
vn -0.2440 -0.2440 -0.9386
vn -0.2030 -0.2842 -0.9370
vn -0.9466 0.3155 0.0662
vn -0.9466 -0.3155 0.0662
vn -0.8100 -0.3356 -0.4808
vn -0.8015 -0.3083 -0.5123
vn -0.7840 -0.2613 -0.5630
vn -0.8100 0.3356 -0.4808
vn -0.8015 0.3083 -0.5123
vn -0.8217 0.3835 -0.4215
vn 0.0833 0.9866 0.1404
vn 0.0338 0.9729 0.2286
vn -0.0000 0.9579 0.2873
vn -0.3155 0.9466 0.0662
vn -0.3356 0.8100 -0.4808
vn -0.3083 0.8015 -0.5123
vn -0.2613 0.7840 -0.5630
vn 0.2678 -0.8573 0.4397
vn 0.0133 -0.9070 0.4209
vn 0.0473 -0.9441 0.3263
vn 0.0661 -0.1914 0.9793
vn 0.0600 -0.2025 0.9775
vn 0.0550 -0.2114 0.9759
vn 0.0600 0.2025 0.9775
vn 0.0661 0.1914 0.9793
vn 0.0550 0.2114 0.9759
vn 0.0473 0.9441 0.3263
vn 0.0133 0.9070 0.4209
vn 0.1561 -0.0527 -0.9863
vn 0.1564 -0.0533 -0.9863
vn 0.1561 0.0527 0.9863
vn 0.1564 0.0533 0.9863
vn 0.0531 -0.1615 -0.9854
vn 0.0532 -0.1616 -0.9854
vn 0.0540 -0.1620 -0.9853
vn 0.1561 -0.0527 0.9863
vn 0.1557 -0.0519 0.9864
vn -0.0531 -0.1615 -0.9854
vn -0.0532 -0.1616 -0.9854
vn -0.0526 -0.1612 -0.9855
vn 0.0531 -0.1615 0.9854
vn 0.0532 -0.1616 0.9854
vn 0.0526 -0.1612 0.9855
vn -0.0531 0.1615 -0.9854
vn -0.0532 0.1616 -0.9854
vn -0.0540 0.1620 -0.9853
vn -0.0531 -0.1615 0.9854
vn -0.0532 -0.1616 0.9854
vn -0.0540 -0.1620 0.9853
vn 0.0531 0.1615 -0.9854
vn 0.0532 0.1616 -0.9854
vn 0.0526 0.1612 -0.9855
vn -0.0531 0.1615 0.9854
vn -0.0532 0.1616 0.9854
vn -0.0526 0.1612 0.9855
vn -0.1561 -0.0527 -0.9863
vn -0.1557 -0.0519 -0.9864
vn 0.0531 0.1615 0.9854
vn 0.0532 0.1616 0.9854
vn 0.0540 0.1620 0.9853
vn -0.1561 0.0527 -0.9863
vn -0.1564 0.0533 -0.9863
vn -0.1561 -0.0527 0.9863
vn -0.1564 -0.0533 0.9863
vn 0.1561 0.0527 -0.9863
vn 0.1557 0.0519 -0.9864
vn -0.1561 0.0527 0.9863
vn -0.1557 0.0519 0.9864
vn 0.3101 0.9502 -0.0308
vn -0.3101 0.9502 -0.0308
vn -0.3101 -0.9502 -0.0308
vn 0.3101 -0.9502 -0.0308
vn 0.9462 -0.3222 -0.0313
vn 0.9462 0.3222 -0.0313
vn -0.9462 0.3222 -0.0313
vn -0.9462 -0.3222 -0.0313
vn 0.3101 0.9502 0.0308
vn -0.3101 0.9502 0.0308
vn -0.3101 -0.9502 0.0308
vn 0.3101 -0.9502 0.0308
vn 0.9462 -0.3222 0.0313
vn 0.9462 0.3222 0.0313
vn -0.9462 0.3222 0.0313
vn -0.9462 -0.3222 0.0313
vn 0.5531 0.1844 -0.8125
vn 0.3677 -0.2799 -0.8868
vn 0.1219 -0.9901 -0.0692
vn -0.3835 -0.8217 0.4215
vn 0.0899 -0.8352 -0.5426
vn 0.0899 0.8352 -0.5426
vn -0.2842 0.2030 0.9370
vn -0.2030 -0.2842 0.9370
vn -0.7840 -0.2613 0.5630
vn -0.8217 0.3835 0.4215
vn -0.0000 0.9579 -0.2873
vn -0.2613 0.7840 0.5630
vn 0.2678 0.8573 0.4398
vn 0.1783 0.7992 -0.5740
vn 0.5608 -0.4511 -0.6942
vn 0.5608 0.4511 -0.6942
vn 0.5608 0.4511 0.6942
vn 0.5608 -0.4511 0.6942
vn 0.1946 -0.2076 0.9587
vn 0.1374 0.2874 0.9479
vn 0.1946 0.2076 -0.9587
vn 0.1374 -0.2874 -0.9479
vn 0.2678 -0.8573 -0.4398
vn 0.1783 -0.7992 0.5740
vn 0.0580 -0.9537 -0.2952
vn 0.0700 -0.1845 -0.9803
vn 0.0700 0.1845 -0.9803
vn 0.0580 0.9537 -0.2952
vn 0.3677 0.2799 0.8868
vn 0.5531 -0.1844 0.8125
vn -0.0000 -0.9579 0.2873
vn -0.2613 -0.7840 -0.5630
vn 0.0899 -0.8352 0.5426
vn 0.0899 0.8352 0.5426
vn -0.2030 0.2842 -0.9370
vn -0.2842 -0.2030 -0.9370
vn -0.8217 -0.3835 -0.4215
vn -0.7840 0.2613 -0.5630
vn 0.1219 0.9901 0.0692
vn -0.3835 0.8217 -0.4215
vn 0.2678 0.8573 0.4397
vn 0.0580 -0.9537 0.2952
vn 0.0700 -0.1845 0.9803
vn 0.0700 0.1845 0.9803
vn 0.0580 0.9537 0.2952
vn 0.1557 -0.0519 -0.9864
vn 0.1557 0.0519 0.9864
vn 0.0526 -0.1612 -0.9855
vn 0.1564 -0.0533 0.9863
vn -0.0540 -0.1620 -0.9853
vn 0.0540 -0.1620 0.9853
vn -0.0526 0.1612 -0.9855
vn -0.0526 -0.1612 0.9855
vn 0.0540 0.1620 -0.9853
vn -0.0540 0.1620 0.9853
vn -0.1564 -0.0533 -0.9863
vn 0.0526 0.1612 0.9855
vn -0.1557 0.0519 -0.9864
vn -0.1557 -0.0519 0.9864
vn 0.1564 0.0533 -0.9863
vn -0.1564 0.0533 0.9863
s 1
usemtl Wood.002
f 131//1 27//1 104//1
f 35//1 21//1 33//1
f 17//2 22//2 34//2
f 128//3 3//3 1//3
f 3//2 22//2 1//2
f 128//4 17//4 123//4
f 2//2 9//2 4//2
f 18//4 32//4 14//4
f 26//2 15//2 3//2
f 9//4 40//4 38//4
f 29//2 45//2 32//2
f 27//2 37//2 26//2
f 129//5 4//5 131//5
f 35//2 5//2 8//2
f 15//5 20//5 22//5
f 11//1 29//1 10//1
f 24//2 49//2 23//2
f 21//3 12//3 9//3
f 39//2 6//2 7//2
f 19//1 30//1 11//1
f 5//3 25//3 18//3
f 7//2 19//2 20//2
f 8//2 18//2 12//2
f 10//1 28//1 5//1
f 103//1 3//1 130//1
f 6//5 23//5 19//5
f 32//2 43//2 44//2
f 27//2 9//2 38//2
f 18//2 40//2 12//2
f 38//4 39//4 37//4
f 11//2 35//2 36//2
f 123//4 16//4 124//4
f 37//4 7//4 15//4
f 19//2 36//2 20//2
f 14//2 39//2 40//2
f 124//4 2//4 129//4
f 14//4 31//4 13//4
f 13//4 24//4 6//4
f 36//1 33//1 34//1
f 16//2 21//2 2//2
f 17//2 33//2 16//2
f 104//1 26//1 103//1
f 20//1 34//1 22//1
f 48//1 58//1 46//1
f 28//2 43//2 25//2
f 29//2 44//2 41//2
f 29//2 42//2 28//2
f 43//4 56//4 44//4
f 30//2 46//2 29//2
f 32//2 47//2 31//2
f 31//2 48//2 30//2
f 50//5 61//5 49//5
f 23//2 52//2 30//2
f 31//2 50//2 24//2
f 30//2 51//2 31//2
f 56//6 67//6 68//6
f 60//7 70//7 58//7
f 63//6 74//6 62//6
f 51//4 62//4 50//4
f 41//1 54//1 42//1
f 45//4 59//4 47//4
f 52//3 63//3 51//3
f 42//3 55//3 43//3
f 46//3 57//3 45//3
f 49//1 64//1 52//1
f 44//5 53//5 41//5
f 47//5 60//5 48//5
f 65//8 80//8 77//8
f 72//9 82//9 70//9
f 73//10 86//10 85//10
f 64//11 75//11 63//11
f 54//7 65//7 66//7
f 57//6 71//6 59//6
f 58//12 69//12 57//12
f 61//7 76//7 64//7
f 54//13 67//13 55//13
f 62//14 73//14 61//14
f 59//15 72//15 60//15
f 56//16 65//16 53//16
f 80//2 78//2 77//2
f 65//9 78//9 66//9
f 67//17 80//17 68//17
f 66//18 79//18 67//18
f 83//2 82//2 84//2
f 69//19 82//19 81//19
f 69//17 83//17 71//17
f 72//20 83//20 84//20
f 86//2 88//2 85//2
f 73//9 88//9 76//9
f 75//17 86//17 74//17
f 76//21 87//21 75//21
f 117//1 131//1 104//1
f 111//1 127//1 125//1
f 107//22 112//22 89//22
f 91//3 128//3 89//3
f 112//22 91//22 89//22
f 107//4 128//4 123//4
f 97//22 90//22 92//22
f 122//4 108//4 102//4
f 105//22 116//22 91//22
f 136//4 97//4 134//4
f 141//22 119//22 122//22
f 133//22 117//22 116//22
f 92//5 129//5 131//5
f 127//22 93//22 98//22
f 110//5 105//5 112//5
f 119//1 99//1 98//1
f 145//22 114//22 113//22
f 100//3 111//3 97//3
f 135//22 94//22 101//22
f 120//1 109//1 99//1
f 115//3 93//3 108//3
f 109//22 95//22 110//22
f 108//22 96//22 100//22
f 118//1 98//1 93//1
f 91//1 103//1 130//1
f 113//5 94//5 109//5
f 122//22 139//22 115//22
f 117//22 97//22 92//22
f 136//22 108//22 100//22
f 135//4 134//4 133//4
f 127//22 99//22 132//22
f 106//4 123//4 124//4
f 95//4 133//4 105//4
f 132//22 109//22 110//22
f 135//22 102//22 136//22
f 90//4 124//4 129//4
f 121//4 102//4 101//4
f 114//4 101//4 94//4
f 125//1 132//1 126//1
f 111//22 106//22 90//22
f 125//22 107//22 106//22
f 116//1 104//1 103//1
f 126//1 110//1 112//1
f 154//1 144//1 142//1
f 139//22 118//22 115//22
f 137//22 122//22 119//22
f 138//22 119//22 118//22
f 152//4 139//4 140//4
f 142//22 120//22 119//22
f 143//22 122//22 121//22
f 144//22 121//22 120//22
f 157//5 146//5 145//5
f 148//22 113//22 120//22
f 146//22 121//22 114//22
f 147//22 120//22 121//22
f 164//23 151//23 152//23
f 154//24 168//24 156//24
f 170//23 159//23 158//23
f 158//4 147//4 146//4
f 150//1 137//1 138//1
f 155//4 141//4 143//4
f 159//3 148//3 147//3
f 151//3 138//3 139//3
f 153//3 142//3 141//3
f 160//1 145//1 148//1
f 149//5 140//5 137//5
f 156//5 143//5 144//5
f 173//25 164//25 161//25
f 178//26 168//26 166//26
f 181//27 170//27 169//27
f 171//28 160//28 159//28
f 150//24 161//24 149//24
f 167//23 153//23 155//23
f 165//29 154//29 153//29
f 172//24 157//24 160//24
f 163//30 150//30 151//30
f 169//31 158//31 157//31
f 168//32 155//32 156//32
f 161//33 152//33 149//33
f 174//22 176//22 173//22
f 174//26 161//26 162//26
f 176//34 163//34 164//34
f 175//35 162//35 163//35
f 178//22 179//22 180//22
f 177//36 166//36 165//36
f 179//34 165//34 167//34
f 168//37 179//37 167//37
f 184//22 182//22 181//22
f 184//26 169//26 172//26
f 170//34 183//34 171//34
f 183//38 172//38 171//38
f 189//1 212//1 186//1
f 190//4 214//4 209//4
f 187//4 209//4 213//4
f 188//3 212//3 214//3
f 185//1 216//1 189//1
f 225//4 193//4 194//4
f 219//1 196//1 221//1
f 221//1 195//1 227//1
f 194//39 232//39 225//39
f 224//4 191//4 193//4
f 185//3 217//3 211//3
f 213//3 195//3 187//3
f 186//2 193//2 189//2
f 188//2 194//2 186//2
f 188//2 196//2 192//2
f 190//2 195//2 196//2
f 189//2 191//2 185//2
f 198//4 236//4 232//4
f 194//40 197//40 198//40
f 192//41 229//41 197//41
f 199//42 202//42 200//42
f 229//1 199//1 197//1
f 197//2 200//2 198//2
f 201//2 204//2 202//2
f 200//43 240//43 236//43
f 199//44 237//44 201//44
f 244//5 203//5 241//5
f 202//4 244//4 240//4
f 237//1 203//1 201//1
f 212//1 210//1 206//1
f 214//4 215//4 209//4
f 209//4 207//4 213//4
f 212//3 208//3 214//3
f 216//1 205//1 210//1
f 222//4 225//4 223//4
f 228//1 219//1 221//1
f 226//1 221//1 227//1
f 232//39 223//39 225//39
f 218//4 224//4 222//4
f 217//3 205//3 211//3
f 226//3 213//3 207//3
f 222//22 206//22 210//22
f 223//22 208//22 206//22
f 208//22 228//22 215//22
f 215//22 226//22 207//22
f 218//22 210//22 205//22
f 236//4 231//4 232//4
f 231//45 220//45 223//45
f 220//41 229//41 219//41
f 239//46 234//46 235//46
f 234//1 229//1 230//1
f 235//22 230//22 231//22
f 243//22 238//22 239//22
f 240//43 235//43 236//43
f 234//44 237//44 233//44
f 242//5 244//5 241//5
f 244//4 239//4 240//4
f 242//1 237//1 238//1
f 131//1 4//1 27//1
f 35//1 8//1 21//1
f 17//2 1//2 22//2
f 128//3 130//3 3//3
f 3//2 15//2 22//2
f 128//4 1//4 17//4
f 2//2 21//2 9//2
f 18//4 25//4 32//4
f 26//2 37//2 15//2
f 9//4 12//4 40//4
f 29//2 46//2 45//2
f 27//2 38//2 37//2
f 129//5 2//5 4//5
f 35//2 10//2 5//2
f 15//5 7//5 20//5
f 11//1 30//1 29//1
f 24//2 50//2 49//2
f 21//3 8//3 12//3
f 39//2 13//2 6//2
f 19//1 23//1 30//1
f 5//3 28//3 25//3
f 7//2 6//2 19//2
f 8//2 5//2 18//2
f 10//1 29//1 28//1
f 103//1 26//1 3//1
f 6//5 24//5 23//5
f 32//2 25//2 43//2
f 27//2 4//2 9//2
f 18//2 14//2 40//2
f 38//4 40//4 39//4
f 11//2 10//2 35//2
f 123//4 17//4 16//4
f 37//4 39//4 7//4
f 19//2 11//2 36//2
f 14//2 13//2 39//2
f 124//4 16//4 2//4
f 14//4 32//4 31//4
f 13//4 31//4 24//4
f 36//1 35//1 33//1
f 16//2 33//2 21//2
f 17//2 34//2 33//2
f 104//1 27//1 26//1
f 20//1 36//1 34//1
f 48//1 60//1 58//1
f 28//2 42//2 43//2
f 29//2 32//2 44//2
f 29//2 41//2 42//2
f 43//4 55//4 56//4
f 30//2 48//2 46//2
f 32//2 45//2 47//2
f 31//2 47//2 48//2
f 50//5 62//5 61//5
f 23//2 49//2 52//2
f 31//2 51//2 50//2
f 30//2 52//2 51//2
f 56//6 55//6 67//6
f 60//7 72//7 70//7
f 63//6 75//6 74//6
f 51//4 63//4 62//4
f 41//1 53//1 54//1
f 45//4 57//4 59//4
f 52//3 64//3 63//3
f 42//3 54//3 55//3
f 46//3 58//3 57//3
f 49//1 61//1 64//1
f 44//5 56//5 53//5
f 47//5 59//5 60//5
f 65//8 68//8 80//8
f 72//9 84//9 82//9
f 73//10 74//10 86//10
f 64//11 76//11 75//11
f 54//7 53//7 65//7
f 57//6 69//6 71//6
f 58//12 70//12 69//12
f 61//7 73//7 76//7
f 54//13 66//13 67//13
f 62//14 74//14 73//14
f 59//15 71//15 72//15
f 56//16 68//16 65//16
f 80//2 79//2 78//2
f 65//9 77//9 78//9
f 67//17 79//17 80//17
f 66//18 78//18 79//18
f 83//2 81//2 82//2
f 69//19 70//19 82//19
f 69//17 81//17 83//17
f 72//20 71//20 83//20
f 86//2 87//2 88//2
f 73//9 85//9 88//9
f 75//17 87//17 86//17
f 76//21 88//21 87//21
f 117//1 92//1 131//1
f 111//1 96//1 127//1
f 107//22 126//22 112//22
f 91//3 130//3 128//3
f 112//22 105//22 91//22
f 107//4 89//4 128//4
f 97//22 111//22 90//22
f 122//4 115//4 108//4
f 105//22 133//22 116//22
f 136//4 100//4 97//4
f 141//22 142//22 119//22
f 133//22 134//22 117//22
f 92//5 90//5 129//5
f 127//22 96//22 93//22
f 110//5 95//5 105//5
f 119//1 120//1 99//1
f 145//22 146//22 114//22
f 100//3 96//3 111//3
f 135//22 95//22 94//22
f 120//1 113//1 109//1
f 115//3 118//3 93//3
f 109//22 94//22 95//22
f 108//22 93//22 96//22
f 118//1 119//1 98//1
f 91//1 116//1 103//1
f 113//5 114//5 94//5
f 122//22 140//22 139//22
f 117//22 134//22 97//22
f 136//22 102//22 108//22
f 135//4 136//4 134//4
f 127//22 98//22 99//22
f 106//4 107//4 123//4
f 95//4 135//4 133//4
f 132//22 99//22 109//22
f 135//22 101//22 102//22
f 90//4 106//4 124//4
f 121//4 122//4 102//4
f 114//4 121//4 101//4
f 125//1 127//1 132//1
f 111//22 125//22 106//22
f 125//22 126//22 107//22
f 116//1 117//1 104//1
f 126//1 132//1 110//1
f 154//1 156//1 144//1
f 139//22 138//22 118//22
f 137//22 140//22 122//22
f 138//22 137//22 119//22
f 152//4 151//4 139//4
f 142//22 144//22 120//22
f 143//22 141//22 122//22
f 144//22 143//22 121//22
f 157//5 158//5 146//5
f 148//22 145//22 113//22
f 146//22 147//22 121//22
f 147//22 148//22 120//22
f 164//23 163//23 151//23
f 154//24 166//24 168//24
f 170//23 171//23 159//23
f 158//4 159//4 147//4
f 150//1 149//1 137//1
f 155//4 153//4 141//4
f 159//3 160//3 148//3
f 151//3 150//3 138//3
f 153//3 154//3 142//3
f 160//1 157//1 145//1
f 149//5 152//5 140//5
f 156//5 155//5 143//5
f 173//25 176//25 164//25
f 178//26 180//26 168//26
f 181//27 182//27 170//27
f 171//28 172//28 160//28
f 150//24 162//24 161//24
f 167//23 165//23 153//23
f 165//29 166//29 154//29
f 172//24 169//24 157//24
f 163//30 162//30 150//30
f 169//31 170//31 158//31
f 168//32 167//32 155//32
f 161//33 164//33 152//33
f 174//22 175//22 176//22
f 174//26 173//26 161//26
f 176//34 175//34 163//34
f 175//35 174//35 162//35
f 178//22 177//22 179//22
f 177//36 178//36 166//36
f 179//34 177//34 165//34
f 168//37 180//37 179//37
f 184//22 183//22 182//22
f 184//26 181//26 169//26
f 170//34 182//34 183//34
f 183//38 184//38 172//38
f 189//1 216//1 212//1
f 190//4 188//4 214//4
f 187//4 190//4 209//4
f 188//3 186//3 212//3
f 185//1 211//1 216//1
f 225//4 224//4 193//4
f 219//1 192//1 196//1
f 221//1 196//1 195//1
f 194//39 198//39 232//39
f 224//4 217//4 191//4
f 185//3 191//3 217//3
f 213//3 227//3 195//3
f 186//2 194//2 193//2
f 188//2 192//2 194//2
f 188//2 190//2 196//2
f 190//2 187//2 195//2
f 189//2 193//2 191//2
f 198//4 200//4 236//4
f 194//40 192//40 197//40
f 192//41 219//41 229//41
f 199//42 201//42 202//42
f 229//1 233//1 199//1
f 197//2 199//2 200//2
f 201//2 203//2 204//2
f 200//43 202//43 240//43
f 199//44 233//44 237//44
f 244//5 204//5 203//5
f 202//4 204//4 244//4
f 237//1 241//1 203//1
f 212//1 216//1 210//1
f 214//4 208//4 215//4
f 209//4 215//4 207//4
f 212//3 206//3 208//3
f 216//1 211//1 205//1
f 222//4 224//4 225//4
f 228//1 220//1 219//1
f 226//1 228//1 221//1
f 232//39 231//39 223//39
f 218//4 217//4 224//4
f 217//3 218//3 205//3
f 226//3 227//3 213//3
f 222//22 223//22 206//22
f 223//22 220//22 208//22
f 208//22 220//22 228//22
f 215//22 228//22 226//22
f 218//22 222//22 210//22
f 236//4 235//4 231//4
f 231//45 230//45 220//45
f 220//41 230//41 229//41
f 239//46 238//46 234//46
f 234//1 233//1 229//1
f 235//22 234//22 230//22
f 243//22 242//22 238//22
f 240//43 239//43 235//43
f 234//44 238//44 237//44
f 242//5 243//5 244//5
f 244//4 243//4 239//4
f 242//1 241//1 237//1
usemtl Metal.002
f 395//47 262//47 391//47
f 262//48 396//48 391//48
f 398//49 263//49 392//49
f 263//50 397//50 392//50
f 245//51 300//51 263//51
f 245//52 301//52 270//52
f 245//53 304//54 267//55
f 245//56 305//57 271//58
f 397//59 264//59 393//59
f 264//60 395//60 393//60
f 396//61 265//61 394//61
f 265//62 398//62 394//62
f 246//63 302//63 268//63
f 246//64 305//65 278//66
f 278//67 276//67 246//67
f 246//68 306//69 279//70
f 247//71 299//71 262//71
f 247//72 298//72 272//72
f 272//73 266//73 247//73
f 266//74 273//74 247//74
f 248//75 298//75 264//75
f 248//76 300//76 271//76
f 271//77 268//78 248//79
f 268//80 272//80 248//80
f 249//81 301//81 265//81
f 249//82 299//82 273//82
f 273//83 269//83 249//83
f 269//84 270//85 249//86
f 276//87 275//87 250//87
f 275//88 277//88 250//88
f 250//89 307//89 274//90
f 250//91 306//91 276//92
f 251//93 303//93 266//93
f 251//94 302//94 279//94
f 251//95 306//96 274//97
f 251//98 307//99 280//100
f 252//101 304//102 269//103
f 252//104 303//104 280//104
f 252//105 307//106 277//107
f 277//108 281//108 252//108
f 291//109 297//109 253//109
f 297//108 286//108 253//108
f 253//110 312//111 285//112
f 253//113 310//114 291//115
f 284//116 282//117 254//118
f 282//119 285//120 254//121
f 285//122 283//123 254//124
f 283//125 284//126 254//127
f 286//88 296//88 255//88
f 296//87 288//87 255//87
f 255//128 313//129 283//130
f 255//131 312//132 286//133
f 293//134 295//134 256//134
f 295//135 291//135 256//135
f 256//136 310//137 282//138
f 256//139 311//140 293//141
f 288//67 294//67 257//67
f 294//142 293//142 257//142
f 257//143 311//144 284//145
f 257//146 313//147 288//148
f 292//67 278//67 258//67
f 278//149 289//150 258//142
f 289//142 294//142 258//142
f 294//67 292//67 258//67
f 289//151 267//152 259//153
f 267//154 287//155 259//156
f 287//135 295//135 259//135
f 295//134 289//134 259//134
f 290//88 275//88 260//88
f 275//87 292//87 260//87
f 292//87 296//87 260//87
f 296//88 290//88 260//88
f 287//157 281//158 261//109
f 281//108 290//108 261//108
f 290//108 297//108 261//108
f 297//109 287//109 261//109
f 335//159 403//159 399//159
f 404//160 335//160 399//160
f 336//161 406//161 400//161
f 405//162 336//162 400//162
f 318//163 373//163 344//163
f 318//164 374//164 336//164
f 318//165 377//166 343//167
f 318//168 378//169 340//170
f 337//171 405//171 401//171
f 403//172 337//172 401//172
f 338//173 404//173 402//173
f 406//174 338//174 402//174
f 319//175 375//175 352//175
f 319//176 378//177 341//178
f 349//142 351//142 319//142
f 319//179 379//180 349//181
f 320//182 372//182 346//182
f 320//183 371//183 335//183
f 339//184 345//184 320//184
f 346//185 339//185 320//185
f 321//186 371//186 345//186
f 321//187 373//187 337//187
f 341//188 344//189 321//190
f 345//191 341//191 321//191
f 322//192 374//192 343//192
f 322//193 372//193 338//193
f 342//194 346//194 322//194
f 343//195 342//196 322//197
f 348//134 349//134 323//134
f 350//135 348//135 323//135
f 323//198 380//198 350//199
f 323//200 379//200 347//201
f 324//202 376//202 353//202
f 324//203 375//203 339//203
f 324//204 379//205 352//206
f 324//207 380//208 347//209
f 325//210 377//211 354//212
f 325//213 376//213 342//213
f 325//214 380//215 353//216
f 354//109 350//109 325//109
f 370//108 364//108 326//108
f 359//109 370//109 326//109
f 326//113 385//114 359//115
f 326//110 383//111 358//112
f 355//125 357//126 327//127
f 358//122 355//123 327//124
f 356//119 358//120 327//121
f 357//116 356//117 327//118
f 369//135 359//135 328//135
f 361//134 369//134 328//134
f 328//139 386//140 361//141
f 328//136 385//137 356//138
f 368//87 366//87 329//87
f 364//88 368//88 329//88
f 329//131 383//132 364//133
f 329//128 384//129 355//130
f 367//142 361//142 330//142
f 366//67 367//67 330//67
f 330//146 384//147 366//217
f 330//143 386//144 357//145
f 351//142 365//142 331//142
f 362//218 351//219 331//67
f 367//67 362//67 331//67
f 365//142 367//142 331//142
f 340//220 362//221 332//222
f 360//223 340//224 332//225
f 368//88 360//88 332//88
f 362//87 368//87 332//87
f 348//135 363//135 333//135
f 365//134 348//134 333//134
f 369//134 365//134 333//134
f 363//135 369//135 333//135
f 354//226 360//227 334//108
f 363//109 354//109 334//109
f 370//109 363//109 334//109
f 360//108 370//108 334//108
f 405//228 426//228 418//229
f 398//230 420//230 424//231
f 405//232 427//233 401//234
f 397//235 420//235 392//236
f 403//237 427//238 429//239
f 397//240 421//241 416//242
f 404//243 428//244 402//245
f 395//246 421//247 393//248
f 406//249 428//250 430//251
f 396//252 422//253 415//254
f 403//255 425//255 399//256
f 398//257 422//258 394//259
f 404//260 425//260 417//261
f 395//262 419//262 423//263
f 406//264 426//264 400//265
f 396//266 419//266 391//267
f 422//268 411//268 414//268
f 408//269 422//269 414//269
f 421//270 409//270 413//270
f 412//271 421//271 413//271
f 420//272 412//272 410//272
f 411//273 420//273 410//273
f 419//274 408//274 407//274
f 409//275 419//275 407//275
f 411//276 428//276 414//276
f 428//277 408//277 414//277
f 409//278 427//278 413//278
f 427//279 412//279 413//279
f 412//280 426//280 410//280
f 426//281 411//281 410//281
f 408//282 425//282 407//282
f 425//283 409//283 407//283
f 395//47 298//47 262//47
f 262//48 299//48 396//48
f 398//49 301//49 263//49
f 263//50 300//50 397//50
f 245//51 271//51 300//51
f 245//52 263//52 301//52
f 245//53 270//284 304//54
f 245//56 267//285 305//57
f 397//59 300//59 264//59
f 264//60 298//60 395//60
f 396//61 299//61 265//61
f 265//62 301//62 398//62
f 246//63 279//63 302//63
f 246//64 268//286 305//65
f 278//67 309//67 276//67
f 246//68 276//287 306//69
f 247//71 273//71 299//71
f 247//72 262//72 298//72
f 272//73 302//73 266//73
f 266//74 303//74 273//74
f 248//75 272//75 298//75
f 248//76 264//76 300//76
f 271//77 305//288 268//78
f 268//80 302//80 272//80
f 249//81 270//81 301//81
f 249//82 265//82 299//82
f 273//83 303//83 269//83
f 269//84 304//289 270//85
f 276//87 309//87 275//87
f 275//88 308//88 277//88
f 250//89 277//290 307//89
f 250//91 274//291 306//91
f 251//93 280//93 303//93
f 251//94 266//94 302//94
f 251//95 279//292 306//96
f 251//98 274//293 307//99
f 252//101 281//294 304//102
f 252//104 269//104 303//104
f 252//105 280//295 307//106
f 277//108 308//108 281//108
f 291//109 315//109 297//109
f 297//108 314//108 286//108
f 253//110 286//296 312//111
f 253//113 285//297 310//114
f 284//116 311//298 282//117
f 282//119 310//299 285//120
f 285//122 312//300 283//123
f 283//125 313//301 284//126
f 286//88 314//88 296//88
f 296//87 316//87 288//87
f 255//128 288//302 313//129
f 255//131 283//303 312//132
f 293//134 317//134 295//134
f 295//135 315//135 291//135
f 256//136 291//304 310//137
f 256//139 282//305 311//140
f 288//67 316//67 294//67
f 294//142 317//142 293//142
f 257//143 293//306 311//144
f 257//146 284//307 313//147
f 292//67 309//67 278//67
f 278//149 305//308 289//150
f 289//142 317//142 294//142
f 294//67 316//67 292//67
f 289//151 305//309 267//152
f 267//154 304//310 287//155
f 287//135 315//135 295//135
f 295//134 317//134 289//134
f 290//88 308//88 275//88
f 275//87 309//87 292//87
f 292//87 316//87 296//87
f 296//88 314//88 290//88
f 287//157 304//311 281//158
f 281//108 308//108 290//108
f 290//108 314//108 297//108
f 297//109 315//109 287//109
f 335//159 371//159 403//159
f 404//160 372//160 335//160
f 336//161 374//161 406//161
f 405//162 373//162 336//162
f 318//163 336//163 373//163
f 318//164 343//164 374//164
f 318//165 340//312 377//166
f 318//168 344//313 378//169
f 337//171 373//171 405//171
f 403//172 371//172 337//172
f 338//173 372//173 404//173
f 406//174 374//174 338//174
f 319//175 341//175 375//175
f 319//176 351//314 378//177
f 349//142 382//142 351//142
f 319//179 352//315 379//180
f 320//182 335//182 372//182
f 320//183 345//183 371//183
f 339//184 375//184 345//184
f 346//185 376//185 339//185
f 321//186 337//186 371//186
f 321//187 344//187 373//187
f 341//188 378//316 344//189
f 345//191 375//191 341//191
f 322//192 338//192 374//192
f 322//193 346//193 372//193
f 342//194 376//194 346//194
f 343//195 377//317 342//196
f 348//134 382//134 349//134
f 350//135 381//135 348//135
f 323//198 347//318 380//198
f 323//200 349//319 379//200
f 324//202 339//202 376//202
f 324//203 352//203 375//203
f 324//204 347//320 379//205
f 324//207 353//321 380//208
f 325//210 342//322 377//211
f 325//213 353//213 376//213
f 325//214 350//323 380//215
f 354//109 381//109 350//109
f 370//108 388//108 364//108
f 359//109 387//109 370//109
f 326//113 358//297 385//114
f 326//110 364//324 383//111
f 355//125 384//301 357//126
f 358//122 383//300 355//123
f 356//119 385//299 358//120
f 357//116 386//298 356//117
f 369//135 387//135 359//135
f 361//134 389//134 369//134
f 328//139 356//305 386//140
f 328//136 359//304 385//137
f 368//87 390//87 366//87
f 364//88 388//88 368//88
f 329//131 355//303 383//132
f 329//128 366//302 384//129
f 367//142 389//142 361//142
f 366//67 390//67 367//67
f 330//146 357//307 384//147
f 330//143 361//306 386//144
f 351//142 382//142 365//142
f 362//218 378//325 351//219
f 367//67 390//67 362//67
f 365//142 389//142 367//142
f 340//220 378//326 362//221
f 360//223 377//327 340//224
f 368//88 388//88 360//88
f 362//87 390//87 368//87
f 348//135 381//135 363//135
f 365//134 382//134 348//134
f 369//134 389//134 365//134
f 363//135 387//135 369//135
f 354//226 377//328 360//227
f 363//109 381//109 354//109
f 370//109 387//109 363//109
f 360//108 388//108 370//108
f 405//228 400//329 426//228
f 398//230 392//330 420//230
f 405//232 418//331 427//233
f 397//235 416//332 420//235
f 403//237 401//333 427//238
f 397//240 393//334 421//241
f 404//243 417//335 428//244
f 395//246 423//336 421//247
f 406//249 402//337 428//250
f 396//252 394//338 422//253
f 403//255 429//339 425//255
f 398//257 424//340 422//258
f 404//260 399//341 425//260
f 395//262 391//342 419//262
f 406//264 430//343 426//264
f 396//266 415//344 419//266
f 422//268 424//268 411//268
f 408//269 415//269 422//269
f 421//270 423//270 409//270
f 412//271 416//271 421//271
f 420//272 416//272 412//272
f 411//273 424//273 420//273
f 419//274 415//274 408//274
f 409//275 423//275 419//275
f 411//276 430//276 428//276
f 428//277 417//277 408//277
f 409//278 429//278 427//278
f 427//279 418//279 412//279
f 412//280 418//280 426//280
f 426//281 430//281 411//281
f 408//282 417//282 425//282
f 425//283 429//283 409//283
