# Blender 4.5.4 LTS
# www.blender.org
mtllib item.mtl
o Cube
v -0.178921 -0.243393 0.162161
v -0.178921 0.243393 0.162161
v -0.178921 -0.243393 -0.162161
v -0.178921 0.243393 -0.162161
v 0.178921 -0.243393 0.162161
v 0.178921 0.243393 0.162161
v 0.178921 -0.243393 -0.162161
v 0.178921 0.243393 -0.162161
v -0.000000 -0.370725 -0.273389
v -0.000000 0.370725 -0.273389
v -0.000000 -0.370725 0.273389
v 0.000000 0.370725 0.273389
v -0.198801 -0.000000 0.187427
v -0.198801 -0.000000 -0.187427
v 0.198801 -0.000000 -0.187427
v 0.198801 -0.000000 0.187427
v -0.000000 0.000000 0.352104
v 0.000000 0.000000 -0.352104
v -0.191991 -0.248343 0.000000
v -0.195396 0.140447 0.187215
v -0.191991 0.248343 -0.000000
v -0.195396 -0.140447 -0.187215
v -0.111734 -0.321891 -0.236643
v 0.111734 0.321891 -0.236643
v 0.195396 -0.140447 -0.187215
v 0.191991 -0.248343 0.000000
v 0.191991 0.248343 0.000000
v 0.195396 -0.140447 0.187215
v 0.111734 -0.321891 0.236643
v -0.111734 0.321891 0.236643
v 0.111734 -0.321891 -0.236643
v -0.111734 0.321891 -0.236643
v -0.111734 -0.321891 0.236643
v 0.111734 0.321891 0.236643
v 0.000000 0.426334 -0.000000
v 0.000000 -0.426334 -0.000000
v -0.000000 -0.213167 0.359658
v 0.000000 -0.213167 -0.359658
v -0.195396 -0.140447 0.187215
v -0.195396 0.140447 -0.187215
v 0.195396 0.140447 -0.187215
v 0.195396 0.140447 0.187215
v -0.000000 0.213167 0.359658
v 0.000000 0.213167 -0.359658
v -0.114311 0.000000 -0.310230
v 0.114311 0.000000 0.310230
v -0.114311 -0.000000 0.310230
v 0.228622 -0.000000 0.000000
v 0.114311 -0.000000 -0.310230
v -0.228622 -0.000000 0.000000
v -0.224020 0.124961 -0.000000
v 0.113667 0.185451 -0.313789
v 0.224020 0.124961 0.000000
v -0.113667 0.185451 0.313789
v 0.113022 -0.367588 -0.000000
v -0.113022 0.367588 0.000000
v 0.113022 0.367588 0.000000
v -0.113022 -0.367588 -0.000000
v 0.113667 0.185451 0.313789
v -0.113667 0.185451 -0.313789
v -0.113667 -0.185451 -0.313789
v 0.113667 -0.185451 0.313789
v -0.113667 -0.185451 0.313789
v 0.224020 -0.124961 0.000000
v 0.113667 -0.185451 -0.313789
v -0.224020 -0.124961 0.000000
vn -0.9878 0.0299 0.1529
vn -0.9694 0.2198 0.1091
vn -0.9694 0.2198 -0.1091
vn -0.9878 0.0299 -0.1529
vn 0.3564 -0.0255 -0.9340
vn 0.4369 0.4392 -0.7850
vn 0.8455 0.2633 -0.4645
vn 0.8325 0.0047 -0.5540
vn 0.9878 0.0299 -0.1529
vn 0.9694 0.2198 -0.1091
vn 0.9694 0.2198 0.1091
vn 0.9878 0.0299 0.1529
vn -0.3564 -0.0255 0.9340
vn -0.4369 0.4392 0.7850
vn -0.8455 0.2633 0.4645
vn -0.8325 0.0047 0.5540
vn 0.4482 -0.8766 -0.1752
vn 0.8179 -0.5663 -0.1014
vn 0.8179 -0.5663 0.1014
vn 0.4482 -0.8766 0.1752
vn -0.4482 0.8766 -0.1752
vn -0.8179 0.5663 -0.1014
vn -0.8179 0.5663 0.1014
vn -0.4482 0.8766 0.1752
vn 0.8179 0.5663 -0.1014
vn 0.4482 0.8766 -0.1752
vn 0.4482 0.8766 0.1752
vn 0.8179 0.5663 0.1014
vn -0.8179 -0.5663 -0.1014
vn -0.4482 -0.8766 -0.1752
vn -0.4482 -0.8766 0.1752
vn -0.8179 -0.5663 0.1014
vn 0.8325 0.0047 0.5540
vn 0.8455 0.2633 0.4645
vn 0.4369 0.4392 0.7850
vn 0.3564 -0.0255 0.9340
vn -0.8325 0.0047 -0.5540
vn -0.8455 0.2633 -0.4645
vn -0.4369 0.4392 -0.7850
vn -0.3564 -0.0255 -0.9340
vn -0.8455 -0.2633 -0.4645
vn -0.8325 -0.0047 -0.5540
vn -0.3564 0.0255 -0.9340
vn -0.4369 -0.4392 -0.7850
vn 0.8455 -0.2633 0.4645
vn 0.8325 -0.0047 0.5540
vn 0.3564 0.0255 0.9340
vn 0.4369 -0.4392 0.7850
vn -0.4369 -0.4392 0.7850
vn -0.3564 0.0255 0.9340
vn -0.8325 -0.0047 0.5540
vn -0.8455 -0.2633 0.4645
vn 0.9694 -0.2198 -0.1091
vn 0.9878 -0.0299 -0.1529
vn 0.9878 -0.0299 0.1529
vn 0.9694 -0.2198 0.1091
vn 0.4369 -0.4392 -0.7850
vn 0.3564 0.0255 -0.9340
vn 0.8325 -0.0047 -0.5540
vn 0.8455 -0.2633 -0.4645
vn -0.9694 -0.2198 0.1091
vn -0.9878 -0.0299 0.1529
vn -0.9878 -0.0299 -0.1529
vn -0.9694 -0.2198 -0.1091
vt 0.500000 0.000000
vt 0.562500 0.000000
vt 0.562500 0.122830
vt 0.500000 0.122396
vt 0.625000 0.000000
vt 0.625000 0.125000
vt 0.625000 0.250000
vt 0.562500 0.230903
vt 0.500000 0.229167
vt 0.500000 0.375000
vt 0.562500 0.375000
vt 0.562500 0.439670
vt 0.500000 0.440104
vt 0.625000 0.375000
vt 0.625000 0.437500
vt 0.625000 0.500000
vt 0.562500 0.519097
vt 0.500000 0.520833
vt 0.562500 0.625000
vt 0.500000 0.625000
vt 0.625000 0.625000
vt 0.625000 0.750000
vt 0.562500 0.730903
vt 0.500000 0.729167
vt 0.500000 0.875000
vt 0.562500 0.875000
vt 0.562500 0.937500
vt 0.500000 0.937500
vt 0.625000 0.875000
vt 0.625000 0.937500
vt 0.625000 1.000000
vt 0.562500 1.000000
vt 0.500000 1.000000
vt 0.250000 0.500000
vt 0.312500 0.500000
vt 0.312500 0.625000
vt 0.250000 0.625000
vt 0.375000 0.500000
vt 0.375000 0.625000
vt 0.375000 0.750000
vt 0.312500 0.750000
vt 0.250000 0.750000
vt 0.750000 0.500000
vt 0.812500 0.500000
vt 0.812500 0.625000
vt 0.750000 0.625000
vt 0.875000 0.500000
vt 0.875000 0.625000
vt 0.875000 0.750000
vt 0.812500 0.750000
vt 0.750000 0.750000
vt 0.687500 0.500000
vt 0.687500 0.625000
vt 0.687500 0.750000
vt 0.125000 0.500000
vt 0.187500 0.500000
vt 0.187500 0.625000
vt 0.125000 0.625000
vt 0.187500 0.750000
vt 0.125000 0.750000
vt 0.562500 0.810330
vt 0.500000 0.809896
vt 0.625000 0.812500
vt 0.562500 0.310330
vt 0.500000 0.309896
vt 0.625000 0.312500
vt 0.375000 0.250000
vt 0.437500 0.230903
vt 0.437500 0.310330
vt 0.375000 0.312500
vt 0.437500 0.375000
vt 0.375000 0.375000
vt 0.437500 0.730903
vt 0.437500 0.810330
vt 0.375000 0.812500
vt 0.437500 0.875000
vt 0.375000 0.875000
vt 0.437500 0.937500
vt 0.375000 0.937500
vt 0.437500 1.000000
vt 0.375000 1.000000
vt 0.437500 0.519097
vt 0.437500 0.625000
vt 0.437500 0.439670
vt 0.375000 0.437500
vt 0.375000 0.000000
vt 0.437500 0.000000
vt 0.437500 0.122830
vt 0.375000 0.125000
s 0
usemtl Material.001
f 13/1/1 20/2/1 51/3/1 50/4/1
f 20/2/2 2/5/2 21/6/2 51/3/2
f 51/3/3 21/6/3 4/7/3 40/8/3
f 50/4/4 51/3/4 40/8/4 14/9/4
f 18/10/5 44/11/5 52/12/5 49/13/5
f 44/11/6 10/14/6 24/15/6 52/12/6
f 52/12/7 24/15/7 8/16/7 41/17/7
f 49/13/8 52/12/8 41/17/8 15/18/8
f 15/18/9 41/17/9 53/19/9 48/20/9
f 41/17/10 8/16/10 27/21/10 53/19/10
f 53/19/11 27/21/11 6/22/11 42/23/11
f 48/20/12 53/19/12 42/23/12 16/24/12
f 17/25/13 43/26/13 54/27/13 47/28/13
f 43/26/14 12/29/14 30/30/14 54/27/14
f 54/27/15 30/30/15 2/31/15 20/32/15
f 47/28/16 54/27/16 20/32/16 13/33/16
f 9/34/17 31/35/17 55/36/17 36/37/17
f 31/35/18 7/38/18 26/39/18 55/36/18
f 55/36/19 26/39/19 5/40/19 29/41/19
f 36/37/20 55/36/20 29/41/20 11/42/20
f 10/43/21 32/44/21 56/45/21 35/46/21
f 32/44/22 4/47/22 21/48/22 56/45/22
f 56/45/23 21/48/23 2/49/23 30/50/23
f 35/46/24 56/45/24 30/50/24 12/51/24
f 8/16/25 24/52/25 57/53/25 27/21/25
f 24/52/26 10/43/26 35/46/26 57/53/26
f 57/53/27 35/46/27 12/51/27 34/54/27
f 27/21/28 57/53/28 34/54/28 6/22/28
f 3/55/29 23/56/29 58/57/29 19/58/29
f 23/56/30 9/34/30 36/37/30 58/57/30
f 58/57/31 36/37/31 11/42/31 33/59/31
f 19/58/32 58/57/32 33/59/32 1/60/32
f 16/24/33 42/23/33 59/61/33 46/62/33
f 42/23/34 6/22/34 34/63/34 59/61/34
f 59/61/35 34/63/35 12/29/35 43/26/35
f 46/62/36 59/61/36 43/26/36 17/25/36
f 14/9/37 40/8/37 60/64/37 45/65/37
f 40/8/38 4/7/38 32/66/38 60/64/38
f 60/64/39 32/66/39 10/14/39 44/11/39
f 45/65/40 60/64/40 44/11/40 18/10/40
f 3/67/41 22/68/41 61/69/41 23/70/41
f 22/68/42 14/9/42 45/65/42 61/69/42
f 61/69/43 45/65/43 18/10/43 38/71/43
f 23/70/44 61/69/44 38/71/44 9/72/44
f 5/40/45 28/73/45 62/74/45 29/75/45
f 28/73/46 16/24/46 46/62/46 62/74/46
f 62/74/47 46/62/47 17/25/47 37/76/47
f 29/75/48 62/74/48 37/76/48 11/77/48
f 11/77/49 37/76/49 63/78/49 33/79/49
f 37/76/50 17/25/50 47/28/50 63/78/50
f 63/78/51 47/28/51 13/33/51 39/80/51
f 33/79/52 63/78/52 39/80/52 1/81/52
f 7/38/53 25/82/53 64/83/53 26/39/53
f 25/82/54 15/18/54 48/20/54 64/83/54
f 64/83/55 48/20/55 16/24/55 28/73/55
f 26/39/56 64/83/56 28/73/56 5/40/56
f 9/72/57 38/71/57 65/84/57 31/85/57
f 38/71/58 18/10/58 49/13/58 65/84/58
f 65/84/59 49/13/59 15/18/59 25/82/59
f 31/85/60 65/84/60 25/82/60 7/38/60
f 1/86/61 39/87/61 66/88/61 19/89/61
f 39/87/62 13/1/62 50/4/62 66/88/62
f 66/88/63 50/4/63 14/9/63 22/68/63
f 19/89/64 66/88/64 22/68/64 3/67/64
