# Blender 4.5.4 LTS
# www.blender.org
mtllib foundation.mtl
o foundation
v 2.702203 0.345604 -5.149638
v 1.245346 0.345604 -5.149638
v -1.025546 0.345604 -5.149638
v 4.467705 0.345604 -5.149638
v -4.066812 0.345604 -5.149638
v 4.567705 0.009120 -5.149638
v -0.795033 0.009120 4.450363
v -4.066812 0.009120 -4.749637
v 0.232619 0.009120 4.450363
v 4.567705 0.345604 4.450363
v 0.232619 0.009120 4.550363
v 4.567705 0.345604 -5.049637
v -0.795033 0.009120 4.550363
v 4.567705 0.009120 2.545987
v 3.019846 0.009120 4.550363
v 4.567705 0.009120 1.129854
v 1.571986 0.009120 4.550363
v -4.066812 0.009120 -5.049637
v -1.025546 0.009120 -5.049637
v -5.032295 0.345604 -5.149638
v -0.795033 0.009120 4.150363
v 0.232619 0.009120 4.150363
v -1.025546 0.009120 -4.749637
v 2.702203 0.009120 -5.149638
v 1.245346 0.009120 -5.149638
v -1.025546 0.009120 -5.149638
v -4.066812 0.345604 -4.749637
v -0.795033 0.345604 4.450363
v 4.567705 0.009120 -2.166838
v 4.567705 0.009120 -3.579839
v 4.567705 0.009120 4.450363
v 4.567705 0.009120 -5.049637
v -4.066812 0.345604 -5.049637
v -0.795033 0.345604 4.150362
v -4.066812 0.009120 -5.149638
v 4.567705 0.345604 -5.149638
v 4.467705 0.009120 -5.149638
v 0.232619 0.345604 4.450363
v -2.129992 0.009120 4.550363
v -3.568155 0.009120 4.550363
v 4.467705 0.009120 4.550363
v -5.032295 0.009120 4.550363
v -1.025546 0.345604 -5.049637
v -5.032295 0.009120 -5.149638
v 0.232619 0.345604 4.150362
v -1.025546 0.345604 -4.749637
v -5.032295 0.009120 4.450363
v -5.032295 0.009120 -5.049637
v 4.467705 0.009120 -5.049637
v 4.467705 0.009120 4.450363
v -3.568155 0.009120 4.450363
v -2.129992 0.009120 4.450363
v 1.571986 0.009120 4.450363
v 3.019846 0.009120 4.450363
v -0.795033 0.009120 4.450363
v -4.066812 0.009120 -4.749637
v 0.232619 0.009120 4.450363
v -5.032295 0.009120 -3.579839
v 4.467705 0.009120 -3.579839
v -5.032295 0.009120 -2.166838
v 4.467705 0.009120 -2.166838
v -5.032295 0.009120 1.129854
v 4.467705 0.009120 1.129854
v -5.032295 0.009120 2.545987
v 4.467705 0.009120 2.545987
v -4.066812 0.009120 -5.049637
v -1.025546 0.009120 -5.049637
v 0.749807 0.009120 4.450363
v 1.245346 0.009120 -5.049637
v 2.702203 0.009120 -5.049637
v -0.795033 0.009120 4.150363
v 0.232619 0.009120 4.150363
v -1.025546 0.009120 -4.749637
v -5.032295 0.345604 -5.049637
v -3.568155 0.345604 4.450363
v -2.129992 0.345604 4.450363
v -5.032295 0.345604 4.450363
v -4.066812 0.345604 -4.749637
v -0.795033 0.345604 4.450363
v -5.032295 0.345604 -3.579839
v -5.032295 0.345604 -2.166838
v -5.032295 0.345604 1.129854
v -5.032295 0.345604 2.545987
v -4.066812 0.345604 -5.049637
v -0.795033 0.345604 4.150362
v 4.467705 0.345604 -5.049637
v 4.467705 0.345604 4.450363
v 1.571986 0.345604 4.450363
v 3.019846 0.345604 4.450363
v 0.232619 0.345604 4.450363
v 4.467705 0.345604 -3.579839
v 4.467705 0.345604 -2.166838
v 4.467705 0.345604 1.129854
v 4.467705 0.345604 2.545987
v -1.025546 0.345604 -5.049637
v 1.245346 0.345604 -5.049637
v 0.749807 0.345604 4.450363
v 2.702203 0.345604 -5.049637
v 0.232619 0.345604 4.150362
v -1.025546 0.345604 -4.749637
v -5.132296 0.009120 4.450363
v -5.132296 0.009120 -5.049637
v -5.132296 0.009120 -3.579839
v -5.132296 0.009120 -2.166838
v -5.132296 0.009120 1.129854
v -5.132296 0.009120 2.545987
v -5.132296 0.345604 -5.049637
v -5.132296 0.345604 4.450363
v -5.132296 0.345604 -3.579839
v -5.132296 0.345604 -2.166838
v -5.132296 0.345604 1.129854
v -5.132296 0.345604 2.545987
v -5.132296 0.009120 4.450363
v -5.132296 0.009120 -5.049637
v -5.132296 0.009120 -3.579839
v -5.132296 0.009120 -2.166838
v -5.132296 0.009120 1.129854
v -5.132296 0.009120 2.545987
v -5.132296 0.345604 -5.049637
v -5.132296 0.345604 4.450363
v -5.132296 0.345604 -3.579839
v -5.132296 0.345604 -2.166838
v -5.132296 0.345604 1.129854
v -5.132296 0.345604 2.545987
v 4.567705 0.345604 -3.579839
v 4.567705 0.345604 -2.166838
v 4.567705 0.345604 1.129854
v 4.567705 0.345604 2.545987
v 4.567705 0.009120 -5.049637
v 4.567705 0.009120 4.450363
v 4.567705 0.009120 -3.579839
v 4.567705 0.009120 -2.166838
v 4.567705 0.009120 1.129854
v 4.567705 0.009120 2.545987
v 4.567705 0.345604 -5.049637
v 4.567705 0.345604 4.450363
v 4.567705 0.345604 -3.579839
v 4.567705 0.345604 -2.166838
v 4.567705 0.345604 1.129854
v 4.567705 0.345604 2.545987
v 4.567705 0.345604 4.550363
v 0.749807 0.009120 4.550363
v -3.568155 0.345604 4.550363
v -2.129992 0.345604 4.550363
v -5.032295 0.345604 4.550363
v -0.795033 0.345604 4.550363
v 4.567705 0.009120 4.550363
v 4.467705 0.345604 4.550363
v 1.571986 0.345604 4.550363
v 3.019846 0.345604 4.550363
v 0.232619 0.345604 4.550363
v 0.749807 0.345604 4.550363
v -5.032295 0.009120 4.550363
v 4.467705 0.009120 4.550363
v -3.568155 0.009120 4.550363
v -2.129992 0.009120 4.550363
v 1.571986 0.009120 4.550363
v 3.019846 0.009120 4.550363
v -0.795033 0.009120 4.550363
v 0.232619 0.009120 4.550363
v 0.749807 0.009120 4.550363
v -3.568155 0.345604 4.550363
v -2.129992 0.345604 4.550363
v -5.032295 0.345604 4.550363
v -0.795033 0.345604 4.550363
v 4.467705 0.345604 4.550363
v 1.571986 0.345604 4.550363
v 3.019846 0.345604 4.550363
v 0.232619 0.345604 4.550363
v 0.749807 0.345604 4.550363
v -5.132296 0.009120 4.550363
v -5.132296 0.345604 4.550363
v -5.132296 0.009120 4.550363
v -5.132296 0.345604 4.550363
v 4.567705 0.009120 4.550363
v 4.567705 0.345604 4.550363
v -5.032295 0.009120 -5.149638
v 4.467705 0.009120 -5.149638
v -4.066812 0.009120 -5.149638
v -1.025546 0.009120 -5.149638
v 1.245346 0.009120 -5.149638
v 2.702203 0.009120 -5.149638
v -5.032295 0.345604 -5.149638
v -4.066812 0.345604 -5.149638
v 4.467705 0.345604 -5.149638
v -1.025546 0.345604 -5.149638
v 1.245346 0.345604 -5.149638
v 2.702203 0.345604 -5.149638
v -5.132296 0.009120 -5.149638
v -5.132296 0.345604 -5.149638
v -5.132296 0.009120 -5.149638
v -5.132296 0.345604 -5.149638
v 4.567705 0.009120 -5.149638
v 4.567705 0.345604 -5.149638
vn -0.0000 1.0000 -0.0000
vn 1.0000 -0.0000 -0.0000
vn -0.0000 -1.0000 -0.0000
vn -1.0000 -0.0000 -0.0000
vn -0.0000 -0.0000 1.0000
vn -0.0000 -0.0000 -1.0000
vt 0.400030 0.531269
vt 0.500031 -0.881731
vt 0.500031 0.531269
vt 0.100031 0.001068
vt 0.100031 0.101068
vt 0.764944 0.501068
vt 0.764944 0.401067
vt 0.402333 0.401067
vt 1.737292 0.501068
vt 0.402333 0.501068
vt 0.101068 0.500025
vt 0.001068 0.836509
vt 0.001068 0.500025
vt 0.000031 0.401067
vt 0.100031 0.501068
vt 0.000031 0.501068
vt 0.400030 0.118269
vt 0.500031 1.531269
vt 0.500031 0.118269
vt 0.000031 -1.468731
vt 0.000031 0.001068
vt 0.737292 0.401067
vt -0.597667 0.501068
vt 0.737292 0.501068
vt 0.465514 0.001068
vt 0.465514 0.101068
vt 0.400030 0.101068
vt 0.500031 0.001068
vt 0.400030 0.001068
vt 0.500031 -1.468731
vt 0.506780 0.101068
vt 2.777672 0.001068
vt 0.506780 0.001068
vt -1.447828 0.501068
vt 0.400030 0.821576
vt 0.500031 4.118269
vt 0.500031 0.821576
vt 0.401067 0.836509
vt 0.501068 0.500025
vt 0.501068 0.836509
vt 0.101068 0.836509
vt 0.400030 0.401067
vt 0.500031 0.501068
vt 0.400030 0.501068
vt -0.298933 0.836509
vt 0.777672 0.101068
vt 2.234529 0.001068
vt 0.777672 0.001068
vt -0.298933 0.500025
vt 0.801067 0.500025
vt 0.100031 0.405443
vt 0.100031 1.821576
vt 0.100031 0.531269
vt 0.100031 -0.881731
vt 0.100031 -1.498932
vt 0.100031 0.821576
vt 0.100031 -0.594557
vt -0.594557 0.836509
vt 0.821576 0.500025
vt 0.821576 0.836509
vt -3.178424 0.836509
vt 0.118269 0.500025
vt 0.118269 0.836509
vt -0.881731 0.836509
vt 0.531269 0.500025
vt 0.531269 0.836509
vt -1.468731 0.836509
vt -1.498932 0.836509
vt 0.405443 0.500025
vt 0.405443 0.836509
vt 0.400030 0.405443
vt 0.400030 1.821576
vt 0.400030 -0.881731
vt 0.400030 1.531269
vt 0.400030 -0.594557
vt 0.400030 2.405443
vt 0.400030 2.001068
vt 0.400030 -1.498932
vt 0.400030 -1.468731
vt 0.400030 4.118269
vt 0.400030 -3.178424
vt 2.405443 0.836509
vt 1.821576 0.836509
vt 4.118269 0.836509
vt 1.531269 0.836509
vt 2.001068 0.836509
vt 0.100031 0.401067
vt 0.737292 0.801067
vt 0.100031 0.118269
vt 0.000031 -3.178424
vt 0.000031 0.118269
vt 0.500031 0.401067
vt 1.964170 0.501068
vt 0.764944 0.801067
vt 0.282133 0.401067
vt 1.104312 0.501068
vt 0.282133 0.501068
vt 0.401067 0.500025
vt 0.000031 1.821576
vt 0.000031 0.405443
vt -1.493220 0.001068
vt 0.234529 0.101068
vt -1.222328 0.001068
vt 0.234529 0.001068
vt 0.506780 -0.298933
vt 0.000031 -1.498932
vt 0.500031 0.101068
vt 1.465514 0.001068
vt 0.764944 0.801068
vt 0.500031 -1.498932
vt 0.500031 0.405443
vt 0.500031 2.405443
vt 0.737292 0.801068
vt 0.000031 2.405443
vt 1.282133 0.501068
vt 0.000031 0.101068
vt -1.765471 0.001068
vt 0.964170 0.401067
vt -0.499969 0.501068
vt 0.964170 0.501068
vt 2.000031 0.001068
vt 0.500031 2.001068
vt 0.104312 0.401067
vt 1.552172 0.501068
vt 0.104312 0.501068
vt -0.499969 0.001068
vt 0.000031 -0.594557
vt 0.000031 0.821576
vt 0.506780 0.701067
vt 0.500031 -0.594557
vt -0.235056 0.501068
vt -1.035830 0.501068
vt 0.500031 1.821576
vt 0.000031 4.118269
vt -0.717867 0.501068
vt 0.552172 0.401067
vt 2.000031 0.501068
vt 0.552172 0.501068
vt 0.000031 1.531269
vt 0.465514 0.701067
vt 0.465514 1.001068
vt 0.506780 1.001068
vt 0.500031 -3.178424
vt 0.000031 -0.881731
vt 0.000031 0.531269
vt 0.465514 -0.298933
vt 0.100031 1.531269
vt 0.100031 -1.468731
vt 0.100031 2.001068
vt 0.100031 4.118269
vt 0.100031 -3.178424
vt 0.100031 2.405443
vt 0.000031 2.001068
vt -1.035830 0.836509
vt 0.402333 0.500025
vt 0.402333 0.836509
vt -1.447828 0.836509
vt 0.000031 0.500025
vt 0.000031 0.836509
vt -0.235056 0.836509
vt 0.282133 0.500025
vt 0.282133 0.836509
vt -0.597667 0.836509
vt 0.737292 0.500025
vt 0.737292 0.836509
vt -0.717867 0.836509
vt 0.104312 0.500025
vt 0.104312 0.836509
vt -0.895688 0.836509
vt 0.552172 0.500025
vt 0.552172 0.836509
vt -0.499969 0.836509
vt 0.964170 0.500025
vt 0.964170 0.836509
vt 1.552172 0.401067
vt -0.235056 0.401067
vt -1.035830 0.401067
vt 1.964170 0.401067
vt -0.895688 0.401067
vt -0.597667 0.401067
vt 1.737292 0.401067
vt 2.000031 0.401067
vt 0.400030 0.836509
vt 0.500031 0.500025
vt 0.500031 0.836509
vt 1.282133 0.401067
vt -0.499969 0.401067
vt 2.402333 0.401067
vt 1.104312 0.401067
vt -0.717867 0.401067
vt -1.447828 0.401067
vt 0.100031 0.500025
vt 2.402333 0.501068
vt -0.895688 0.501068
vt 0.100031 0.836509
vt 2.777672 0.836509
vt 0.506780 0.500025
vt 0.506780 0.836509
vt 0.400030 0.500025
vt 0.234529 0.500025
vt -1.222328 0.836509
vt 0.234529 0.836509
vt 1.465514 0.836509
vt 2.000031 0.836509
vt -1.493220 0.101068
vt -1.222328 0.101068
vt 2.777672 0.101068
vt 2.234529 0.101068
vt 2.000031 0.101068
vt -0.499969 0.101068
vt -1.765471 0.101068
vt 1.465514 0.101068
vt 0.801068 0.836509
vt -0.594557 0.500025
vt -3.178424 0.500025
vt -0.881731 0.500025
vt -1.468731 0.500025
vt -1.498932 0.500025
vt 2.405443 0.500025
vt 1.821576 0.500025
vt 4.118269 0.500025
vt 1.531269 0.500025
vt 2.001068 0.500025
vt -1.035830 0.500025
vt -1.447828 0.500025
vt -0.235056 0.500025
vt -0.597667 0.500025
vt -0.717867 0.500025
vt -0.895688 0.500025
vt -0.499969 0.500025
vt 2.777672 0.500025
vt -1.222328 0.500025
vt 1.465514 0.500025
vt 2.000031 0.500025
s 0
usemtl foundation_brown_brick
f 121/1/1 81/2/1 80/3/1
f 12/4/1 194/5/1 135/4/1
f 57/6/1 11/7/1 9/6/1
f 163/8/1 79/9/1 76/10/1
f 35/11/2 33/12/2 18/13/2
f 166/14/1 136/15/1 87/16/1
f 116/17/3 58/18/3 60/19/3
f 129/4/3 59/20/3 49/21/3
f 159/22/3 52/23/3 55/24/3
f 33/25/1 184/26/1 84/25/1
f 191/27/3 48/28/3 114/29/3
f 119/29/1 80/30/1 74/28/1
f 180/31/3 69/32/3 67/33/3
f 154/14/3 54/34/3 50/16/3
f 117/35/3 60/36/3 62/37/3
f 146/38/2 7/39/2 28/40/2
f 190/41/4 102/13/4 107/12/4
f 174/42/1 77/43/1 120/44/1
f 19/13/4 46/45/4 43/12/4
f 181/46/3 70/47/3 69/48/3
f 108/44/1 174/42/1 120/44/1
f 141/38/2 31/39/2 10/40/2
f 33/12/2 8/49/2 18/13/2
f 38/40/4 22/50/4 9/39/4
f 14/51/1 133/52/1 16/52/1
f 125/53/1 138/54/1 126/54/1
f 128/51/1 136/55/1 10/55/1
f 127/56/1 140/57/1 128/57/1
f 128/58/2 16/59/2 127/60/2
f 127/61/2 29/62/2 126/63/2
f 126/64/2 30/65/2 125/66/2
f 125/67/2 32/13/2 12/12/2
f 10/68/2 14/69/2 128/70/2
f 95/33/1 3/31/1 43/33/1
f 112/71/1 123/72/1 111/72/1
f 103/1/1 116/73/1 104/73/1
f 110/17/1 121/74/1 109/74/1
f 105/35/1 118/75/1 106/75/1
f 108/44/1 124/76/1 112/76/1
f 109/1/1 119/77/1 107/77/1
f 106/71/1 113/78/1 101/78/1
f 102/29/1 115/79/1 103/79/1
f 111/35/1 122/80/1 110/80/1
f 104/17/1 117/81/1 105/81/1
f 112/82/4 101/39/4 108/40/4
f 111/83/4 106/69/4 112/70/4
f 110/84/4 105/59/4 111/60/4
f 109/85/4 104/62/4 110/63/4
f 107/86/4 103/65/4 109/66/4
f 175/87/3 50/16/3 130/15/3
f 79/24/1 146/22/1 28/24/1
f 7/24/1 71/88/1 21/88/1
f 132/89/3 63/90/3 61/91/3
f 164/92/1 75/93/1 77/43/1
f 113/44/1 171/42/1 101/44/1
f 22/94/1 57/6/1 9/6/1
f 170/95/1 88/96/1 97/97/1
f 171/98/4 108/40/4 101/39/4
f 194/5/1 86/21/1 135/4/1
f 140/51/1 93/99/1 94/100/1
f 187/46/1 95/101/1 96/48/1
f 188/102/1 96/103/1 98/104/1
f 19/33/1 73/105/1 23/105/1
f 134/51/3 50/106/3 65/100/3
f 177/107/3 66/108/3 48/28/3
f 38/6/1 99/109/1 45/109/1
f 31/15/1 175/87/1 130/15/1
f 7/24/1 159/22/1 55/24/1
f 124/71/1 77/110/1 83/111/1
f 113/44/3 64/112/3 47/43/3
f 34/113/1 79/24/1 28/24/1
f 136/15/1 94/114/1 87/16/1
f 169/7/1 97/115/1 90/6/1
f 185/116/1 98/117/1 86/21/1
f 45/109/1 72/94/1 22/94/1
f 119/29/1 190/27/1 107/29/1
f 155/118/3 47/119/3 51/120/3
f 182/102/3 49/121/3 70/104/3
f 115/1/3 48/122/3 58/3/3
f 167/123/1 89/124/1 88/125/1
f 183/107/1 119/29/1 74/28/1
f 153/92/3 113/44/3 47/43/3
f 184/26/1 74/126/1 84/25/1
f 136/15/1 141/87/1 10/15/1
f 133/56/3 65/127/3 63/128/3
f 23/129/1 100/129/1 46/129/1
f 123/35/1 83/130/1 82/37/1
f 161/95/3 57/131/3 68/97/3
f 156/8/3 51/132/3 52/10/3
f 118/71/3 62/133/3 64/111/3
f 3/41/4 19/13/4 43/12/4
f 11/98/4 38/40/4 9/39/4
f 139/56/1 92/134/1 93/128/1
f 157/123/3 68/135/3 53/125/3
f 21/88/1 85/113/1 34/113/1
f 168/136/1 87/137/1 89/138/1
f 138/89/1 91/139/1 92/91/1
f 8/140/1 66/141/1 18/141/1
f 27/140/1 56/140/1 8/140/1
f 46/129/1 95/142/1 43/142/1
f 122/17/1 82/143/1 81/19/1
f 131/53/3 61/144/3 59/145/3
f 33/25/1 78/146/1 27/146/1
f 29/89/1 131/147/1 30/147/1
f 12/4/1 137/148/1 125/148/1
f 30/53/1 129/149/1 32/149/1
f 16/56/1 132/150/1 29/150/1
f 126/89/1 139/151/1 127/151/1
f 31/15/1 134/152/1 14/152/1
f 137/53/1 86/153/1 91/145/1
f 143/154/5 39/155/5 144/156/5
f 150/157/5 41/158/5 148/159/5
f 151/160/5 142/161/5 152/162/5
f 154/14/1 147/87/1 41/14/1
f 148/14/1 176/87/1 166/14/1
f 144/163/5 13/164/5 146/165/5
f 152/166/5 17/167/5 149/168/5
f 149/169/5 15/170/5 150/171/5
f 145/172/5 40/173/5 143/174/5
f 17/123/1 158/175/1 15/175/1
f 152/95/1 169/176/1 151/176/1
f 144/8/1 162/177/1 143/177/1
f 42/92/1 155/178/1 40/178/1
f 150/136/1 167/179/1 149/179/1
f 146/22/1 163/180/1 144/180/1
f 42/92/1 173/42/1 153/92/1
f 39/8/1 159/181/1 13/181/1
f 15/136/1 154/182/1 41/182/1
f 172/183/5 42/184/5 145/185/5
f 11/7/1 161/186/1 142/186/1
f 143/118/1 164/187/1 145/187/1
f 40/118/1 156/188/1 39/188/1
f 142/95/1 157/189/1 17/189/1
f 149/123/1 170/190/1 152/190/1
f 164/92/1 172/42/1 145/92/1
f 148/14/1 168/191/1 150/191/1
f 147/192/5 148/159/5 41/158/5
f 162/118/1 76/193/1 75/120/1
f 38/6/1 169/7/1 90/6/1
f 158/136/3 53/194/3 54/138/3
f 36/195/6 37/158/6 4/159/6
f 2/196/6 26/197/6 3/198/6
f 189/199/6 20/185/6 44/184/6
f 185/116/1 36/5/1 4/116/1
f 24/200/6 2/201/6 1/202/6
f 5/203/6 44/184/6 20/185/6
f 4/204/6 24/200/6 1/202/6
f 177/107/1 189/27/1 44/107/1
f 25/46/1 180/205/1 26/205/1
f 20/107/1 192/27/1 183/107/1
f 37/116/1 193/5/1 178/116/1
f 24/102/1 181/206/1 25/206/1
f 3/31/1 187/207/1 2/207/1
f 2/46/1 188/208/1 1/208/1
f 1/102/1 185/209/1 4/209/1
f 35/26/1 177/210/1 44/210/1
f 37/116/1 182/211/1 24/211/1
f 20/107/1 184/212/1 5/212/1
f 102/29/1 191/27/1 114/29/1
f 19/33/1 180/31/1 67/33/1
f 66/25/1 35/26/1 18/25/1
f 178/116/3 129/4/3 49/21/3
f 6/11/2 12/12/2 32/13/2
f 129/4/1 6/5/1 32/4/1
f 121/1/1 122/73/1 81/2/1
f 12/4/1 36/5/1 194/5/1
f 57/6/1 160/7/1 11/7/1
f 163/8/1 165/181/1 79/9/1
f 35/11/2 5/41/2 33/12/2
f 166/14/1 176/87/1 136/15/1
f 116/17/3 115/74/3 58/18/3
f 129/4/3 131/148/3 59/20/3
f 159/22/3 156/180/3 52/23/3
f 33/25/1 5/26/1 184/26/1
f 191/27/3 177/107/3 48/28/3
f 119/29/1 121/79/1 80/30/1
f 180/31/3 181/207/3 69/32/3
f 154/14/3 158/191/3 54/34/3
f 117/35/3 116/80/3 60/36/3
f 146/38/2 13/98/2 7/39/2
f 190/41/4 189/11/4 102/13/4
f 174/42/1 164/92/1 77/43/1
f 19/13/4 23/49/4 46/45/4
f 181/46/3 182/208/3 70/47/3
f 108/44/1 172/42/1 174/42/1
f 141/38/2 147/98/2 31/39/2
f 33/12/2 27/45/2 8/49/2
f 38/40/4 45/213/4 22/50/4
f 14/51/1 134/51/1 133/52/1
f 125/53/1 137/53/1 138/54/1
f 128/51/1 140/51/1 136/55/1
f 127/56/1 139/56/1 140/57/1
f 128/58/2 14/214/2 16/59/2
f 127/61/2 16/215/2 29/62/2
f 126/64/2 29/216/2 30/65/2
f 125/67/2 30/217/2 32/13/2
f 10/68/2 31/218/2 14/69/2
f 95/33/1 186/31/1 3/31/1
f 112/71/1 124/71/1 123/72/1
f 103/1/1 115/1/1 116/73/1
f 110/17/1 122/17/1 121/74/1
f 105/35/1 117/35/1 118/75/1
f 108/44/1 120/44/1 124/76/1
f 109/1/1 121/1/1 119/77/1
f 106/71/1 118/71/1 113/78/1
f 102/29/1 114/29/1 115/79/1
f 111/35/1 123/35/1 122/80/1
f 104/17/1 116/17/1 117/81/1
f 112/82/4 106/219/4 101/39/4
f 111/83/4 105/220/4 106/69/4
f 110/84/4 104/221/4 105/59/4
f 109/85/4 103/222/4 104/62/4
f 107/86/4 102/223/4 103/65/4
f 175/87/3 154/14/3 50/16/3
f 79/24/1 165/22/1 146/22/1
f 7/24/1 55/24/1 71/88/1
f 132/89/3 133/151/3 63/90/3
f 164/92/1 162/178/1 75/93/1
f 113/44/1 173/42/1 171/42/1
f 22/94/1 72/94/1 57/6/1
f 170/95/1 167/189/1 88/96/1
f 171/98/4 172/38/4 108/40/4
f 194/5/1 185/116/1 86/21/1
f 140/51/1 139/52/1 93/99/1
f 187/46/1 186/205/1 95/101/1
f 188/102/1 187/206/1 96/103/1
f 19/33/1 67/33/1 73/105/1
f 134/51/3 130/55/3 50/106/3
f 177/107/3 179/212/3 66/108/3
f 38/6/1 90/6/1 99/109/1
f 31/15/1 147/87/1 175/87/1
f 7/24/1 13/22/1 159/22/1
f 124/71/1 120/78/1 77/110/1
f 113/44/3 118/76/3 64/112/3
f 34/113/1 85/113/1 79/24/1
f 136/15/1 140/152/1 94/114/1
f 169/7/1 170/186/1 97/115/1
f 185/116/1 188/211/1 98/117/1
f 45/109/1 99/109/1 72/94/1
f 119/29/1 192/27/1 190/27/1
f 155/118/3 153/187/3 47/119/3
f 182/102/3 178/209/3 49/121/3
f 115/1/3 114/77/3 48/122/3
f 167/123/1 168/175/1 89/124/1
f 183/107/1 192/27/1 119/29/1
f 153/92/3 173/42/3 113/44/3
f 184/26/1 183/210/1 74/126/1
f 136/15/1 176/87/1 141/87/1
f 133/56/3 134/57/3 65/127/3
f 23/129/1 73/129/1 100/129/1
f 123/35/1 124/75/1 83/130/1
f 161/95/3 160/176/3 57/131/3
f 156/8/3 155/177/3 51/132/3
f 118/71/3 117/72/3 62/133/3
f 3/41/4 26/11/4 19/13/4
f 11/98/4 151/38/4 38/40/4
f 139/56/1 138/150/1 92/134/1
f 157/123/3 161/190/3 68/135/3
f 21/88/1 71/88/1 85/113/1
f 168/136/1 166/182/1 87/137/1
f 138/89/1 137/147/1 91/139/1
f 8/140/1 56/140/1 66/141/1
f 27/140/1 78/140/1 56/140/1
f 46/129/1 100/129/1 95/142/1
f 122/17/1 123/81/1 82/143/1
f 131/53/3 132/54/3 61/144/3
f 33/25/1 84/25/1 78/146/1
f 29/89/1 132/89/1 131/147/1
f 12/4/1 135/4/1 137/148/1
f 30/53/1 131/53/1 129/149/1
f 16/56/1 133/56/1 132/150/1
f 126/89/1 138/89/1 139/151/1
f 31/15/1 130/15/1 134/152/1
f 137/53/1 135/149/1 86/153/1
f 143/154/5 40/224/5 39/155/5
f 150/157/5 15/225/5 41/158/5
f 151/160/5 11/226/5 142/161/5
f 154/14/1 175/87/1 147/87/1
f 148/14/1 141/87/1 176/87/1
f 144/163/5 39/227/5 13/164/5
f 152/166/5 142/228/5 17/167/5
f 149/169/5 17/229/5 15/170/5
f 145/172/5 42/230/5 40/173/5
f 17/123/1 157/123/1 158/175/1
f 152/95/1 170/95/1 169/176/1
f 144/8/1 163/8/1 162/177/1
f 42/92/1 153/92/1 155/178/1
f 150/136/1 168/136/1 167/179/1
f 146/22/1 165/22/1 163/180/1
f 42/92/1 171/42/1 173/42/1
f 39/8/1 156/8/1 159/181/1
f 15/136/1 158/136/1 154/182/1
f 172/183/5 171/199/5 42/184/5
f 11/7/1 160/7/1 161/186/1
f 143/118/1 162/118/1 164/187/1
f 40/118/1 155/118/1 156/188/1
f 142/95/1 161/95/1 157/189/1
f 149/123/1 167/123/1 170/190/1
f 164/92/1 174/42/1 172/42/1
f 148/14/1 166/14/1 168/191/1
f 147/192/5 141/195/5 148/159/5
f 162/118/1 163/188/1 76/193/1
f 38/6/1 151/7/1 169/7/1
f 158/136/3 157/179/3 53/194/3
f 36/195/6 6/192/6 37/158/6
f 2/196/6 25/231/6 26/197/6
f 189/199/6 190/183/6 20/185/6
f 185/116/1 194/5/1 36/5/1
f 24/200/6 25/232/6 2/201/6
f 5/203/6 35/233/6 44/184/6
f 4/204/6 37/234/6 24/200/6
f 177/107/1 191/27/1 189/27/1
f 25/46/1 181/46/1 180/205/1
f 20/107/1 190/27/1 192/27/1
f 37/116/1 6/5/1 193/5/1
f 24/102/1 182/102/1 181/206/1
f 3/31/1 186/31/1 187/207/1
f 2/46/1 187/46/1 188/208/1
f 1/102/1 188/102/1 185/209/1
f 35/26/1 179/26/1 177/210/1
f 37/116/1 178/116/1 182/211/1
f 20/107/1 183/107/1 184/212/1
f 102/29/1 189/27/1 191/27/1
f 19/33/1 26/31/1 180/31/1
f 66/25/1 179/26/1 35/26/1
f 178/116/3 193/5/3 129/4/3
f 6/11/2 36/41/2 12/12/2
f 129/4/1 193/5/1 6/5/1
