# Blender 4.5.4 LTS
# www.blender.org
mtllib castle.020.mtl
o castle.017
v 0.499950 -0.499950 0.000000
v -0.499950 -0.499950 0.000000
v 0.499950 0.499950 0.000000
v -0.499950 0.499950 0.000000
v 0.499950 -0.499950 -0.146652
v 0.499950 -0.499950 0.000000
v 0.499950 0.499950 -0.146652
v 0.499950 0.499950 0.000000
v -0.499950 -0.499950 0.000000
v -0.499950 -0.499950 -0.146652
v -0.499950 0.499950 0.000000
v -0.499950 0.499950 -0.146652
v 0.499950 -0.499950 -0.146652
v 0.499950 0.499950 -0.146652
v 0.399960 -0.499950 -0.146652
v 0.399960 0.499950 -0.146652
v 0.399960 -0.499950 -0.063327
v 0.399960 -0.499950 -0.146652
v 0.399960 0.499950 -0.063327
v 0.399960 0.499950 -0.146652
v -0.399960 -0.499950 -0.146652
v -0.499950 -0.499950 -0.146652
v -0.399960 -0.499950 -0.063327
v -0.499950 -0.499950 0.000000
v 0.499950 -0.499950 0.000000
v 0.399960 -0.499950 -0.063327
v 0.499950 -0.499950 -0.146652
v 0.399960 -0.499950 -0.146652
v -0.399960 -0.499950 -0.146652
v -0.399960 -0.499950 -0.063327
v -0.399960 0.499950 -0.146652
v -0.399960 0.499950 -0.063327
v 0.399960 0.499950 -0.146652
v 0.499950 0.499950 -0.146652
v 0.399960 0.499950 -0.063327
v 0.499950 0.499950 0.000000
v -0.499950 0.499950 0.000000
v -0.399960 0.499950 -0.063327
v -0.499950 0.499950 -0.146652
v -0.399960 0.499950 -0.146652
v -0.399960 -0.499950 -0.146652
v -0.399960 0.499950 -0.146652
v -0.499950 -0.499950 -0.146652
v -0.499950 0.499950 -0.146652
v -0.274972 -0.154987 -0.596602
v -0.403864 -0.154987 -0.493489
v -0.274972 0.154987 -0.596602
v -0.403864 0.154987 -0.493489
v -0.423386 -0.129987 -0.477871
v -0.423386 0.129987 -0.477871
v -0.294982 -0.154987 -0.651029
v -0.294982 0.154987 -0.651029
v -0.438223 -0.154987 -0.536436
v -0.438223 0.154987 -0.536436
v -0.457744 -0.129987 -0.520819
v -0.457744 0.129987 -0.520819
v -0.092201 -0.129987 -0.520819
v -0.126559 -0.129987 -0.477871
v -0.092201 0.129987 -0.520819
v -0.126559 0.129987 -0.477871
v -0.146081 0.154987 -0.493489
v -0.274972 0.154987 -0.596602
v -0.111722 0.154987 -0.536436
v -0.254963 0.154987 -0.651029
v -0.294982 0.154987 -0.651029
v -0.438223 0.154987 -0.536436
v -0.403864 0.154987 -0.493489
v -0.403864 -0.154987 -0.493489
v -0.274972 -0.154987 -0.596602
v -0.438223 -0.154987 -0.536436
v -0.294982 -0.154987 -0.651029
v -0.254963 -0.154987 -0.651029
v -0.111722 -0.154987 -0.536436
v -0.146081 -0.154987 -0.493489
v -0.423386 -0.129987 -0.477871
v -0.457744 -0.129987 -0.520819
v -0.423386 0.129987 -0.477871
v -0.457744 0.129987 -0.520819
v -0.126559 -0.129987 -0.477871
v -0.092201 -0.129987 -0.520819
v -0.146081 -0.154987 -0.493489
v -0.111722 -0.154987 -0.536436
v -0.423386 0.129987 -0.477871
v -0.457744 0.129987 -0.520819
v -0.403864 0.154987 -0.493489
v -0.438223 0.154987 -0.536436
v -0.423386 -0.129987 -0.477871
v -0.403864 -0.154987 -0.493489
v -0.457744 -0.129987 -0.520819
v -0.438223 -0.154987 -0.536436
v -0.254963 -0.154987 -0.651029
v -0.254963 0.154987 -0.651029
v -0.294982 -0.154987 -0.651029
v -0.294982 0.154987 -0.651029
v -0.126559 0.129987 -0.477871
v -0.146081 0.154987 -0.493489
v -0.092201 0.129987 -0.520819
v -0.111722 0.154987 -0.536436
v -0.126559 0.129987 -0.477871
v -0.126559 -0.129987 -0.477871
v -0.146081 0.154987 -0.493489
v -0.146081 -0.154987 -0.493489
v -0.274972 -0.154987 -0.596602
v -0.274972 0.154987 -0.596602
v -0.092201 -0.129987 -0.520819
v -0.092201 0.129987 -0.520819
v -0.111722 -0.154987 -0.536436
v -0.111722 0.154987 -0.536436
v -0.254963 -0.154987 -0.651029
v -0.254963 0.154987 -0.651029
v 0.274972 -0.154987 -0.596602
v 0.146081 -0.154987 -0.493489
v 0.274972 0.154987 -0.596602
v 0.146081 0.154987 -0.493489
v 0.126559 -0.129987 -0.477871
v 0.126559 0.129987 -0.477871
v 0.254963 -0.154987 -0.651029
v 0.254963 0.154987 -0.651029
v 0.111722 -0.154987 -0.536436
v 0.111722 0.154987 -0.536436
v 0.092201 -0.129987 -0.520819
v 0.092201 0.129987 -0.520819
v 0.457744 -0.129987 -0.520819
v 0.423386 -0.129987 -0.477871
v 0.457744 0.129987 -0.520819
v 0.423386 0.129987 -0.477871
v 0.403864 0.154987 -0.493489
v 0.274972 0.154987 -0.596602
v 0.438223 0.154987 -0.536436
v 0.294982 0.154987 -0.651029
v 0.254963 0.154987 -0.651029
v 0.111722 0.154987 -0.536436
v 0.146081 0.154987 -0.493489
v 0.146081 -0.154987 -0.493489
v 0.274972 -0.154987 -0.596602
v 0.111722 -0.154987 -0.536436
v 0.254963 -0.154987 -0.651029
v 0.294982 -0.154987 -0.651029
v 0.438223 -0.154987 -0.536436
v 0.403864 -0.154987 -0.493489
v 0.126559 -0.129987 -0.477871
v 0.092201 -0.129987 -0.520819
v 0.126559 0.129987 -0.477871
v 0.092201 0.129987 -0.520819
v 0.423386 -0.129987 -0.477871
v 0.457744 -0.129987 -0.520819
v 0.403864 -0.154987 -0.493489
v 0.438223 -0.154987 -0.536436
v 0.126559 0.129987 -0.477871
v 0.092201 0.129987 -0.520819
v 0.146081 0.154987 -0.493489
v 0.111722 0.154987 -0.536436
v 0.126559 -0.129987 -0.477871
v 0.146081 -0.154987 -0.493489
v 0.092201 -0.129987 -0.520819
v 0.111722 -0.154987 -0.536436
v 0.294982 -0.154987 -0.651029
v 0.294982 0.154987 -0.651029
v 0.254963 -0.154987 -0.651029
v 0.254963 0.154987 -0.651029
v 0.423386 0.129987 -0.477871
v 0.403864 0.154987 -0.493489
v 0.457744 0.129987 -0.520819
v 0.438223 0.154987 -0.536436
v 0.423386 0.129987 -0.477871
v 0.423386 -0.129987 -0.477871
v 0.403864 0.154987 -0.493489
v 0.403864 -0.154987 -0.493489
v 0.274972 -0.154987 -0.596602
v 0.274972 0.154987 -0.596602
v 0.457744 -0.129987 -0.520819
v 0.457744 0.129987 -0.520819
v 0.438223 -0.154987 -0.536436
v 0.438223 0.154987 -0.536436
v 0.294982 -0.154987 -0.651029
v 0.294982 0.154987 -0.651029
v 0.149985 -0.124987 -0.363292
v 0.149985 0.000000 -0.463282
v -0.149985 -0.124987 -0.363292
v -0.149985 0.000000 -0.463282
v 0.149985 0.000000 -0.463282
v 0.149985 0.124987 -0.363292
v -0.149985 0.000000 -0.463282
v -0.149985 0.124987 -0.363292
v 0.399960 -0.499950 -0.063327
v 0.399960 0.499950 -0.063327
v -0.399960 -0.499950 -0.063327
v -0.399960 0.499950 -0.063327
v 0.399960 0.124987 -0.063327
v 0.149985 0.124987 -0.063327
v 0.399960 0.124987 -0.496612
v 0.149985 0.124987 -0.155305
v 0.133902 0.124987 -0.207321
v 0.100337 0.124987 -0.250239
v 0.053672 0.124987 -0.278458
v 0.149985 0.124987 -0.363292
v 0.000000 0.124987 -0.288292
v 0.149985 0.124987 -0.496612
v 0.274972 0.124987 -0.596602
v -0.149985 0.124987 -0.363292
v -0.053672 0.124987 -0.278458
v -0.399960 0.124987 -0.496612
v -0.149985 0.124987 -0.496612
v -0.274972 0.124987 -0.596602
v -0.100337 0.124987 -0.250239
v -0.133902 0.124987 -0.207321
v -0.149985 0.124987 -0.155305
v -0.399960 0.124987 -0.063327
v -0.149985 0.124987 -0.063327
v -0.399960 -0.124987 -0.496612
v -0.399960 0.124987 -0.496612
v -0.399960 -0.124987 -0.063327
v -0.399960 0.124987 -0.063327
v 0.399960 -0.124987 -0.496612
v 0.399960 -0.124987 -0.063327
v 0.399960 0.124987 -0.496612
v 0.399960 0.124987 -0.063327
v 0.149985 -0.124987 -0.363292
v 0.149985 0.124987 -0.363292
v -0.149985 -0.124987 -0.363292
v -0.149985 0.124987 -0.363292
v 0.149985 -0.124987 -0.363292
v 0.149985 -0.124987 -0.496612
v 0.149985 0.124987 -0.363292
v 0.149985 0.124987 -0.496612
v -0.149985 -0.124987 -0.496612
v -0.149985 -0.124987 -0.363292
v -0.149985 0.124987 -0.496612
v -0.149985 0.124987 -0.363292
v -0.399960 -0.124987 -0.063327
v -0.149985 -0.124987 -0.063327
v -0.399960 -0.124987 -0.496612
v -0.149985 -0.124987 -0.155305
v -0.133902 -0.124987 -0.207321
v -0.100337 -0.124987 -0.250239
v -0.053672 -0.124987 -0.278458
v -0.149985 -0.124987 -0.363292
v 0.000000 -0.124987 -0.288292
v -0.149985 -0.124987 -0.496612
v -0.274972 -0.124987 -0.596602
v 0.149985 -0.124987 -0.363292
v 0.053672 -0.124987 -0.278458
v 0.399960 -0.124987 -0.496612
v 0.149985 -0.124987 -0.496612
v 0.274972 -0.124987 -0.596602
v 0.100337 -0.124987 -0.250239
v 0.133902 -0.124987 -0.207321
v 0.149985 -0.124987 -0.155305
v 0.399960 -0.124987 -0.063327
v 0.149985 -0.124987 -0.063327
v -0.149985 -0.124987 -0.155305
v -0.149985 -0.124987 -0.063327
v -0.149985 0.124987 -0.155305
v -0.149985 0.124987 -0.063327
v -0.133902 -0.124987 -0.207321
v -0.149985 -0.124987 -0.155305
v -0.133902 0.124987 -0.207321
v -0.149985 0.124987 -0.155305
v -0.100337 -0.124987 -0.250239
v -0.133902 -0.124987 -0.207321
v -0.100337 0.124987 -0.250239
v -0.133902 0.124987 -0.207321
v -0.053672 0.124987 -0.278458
v -0.053672 -0.124987 -0.278458
v -0.100337 0.124987 -0.250239
v -0.100337 -0.124987 -0.250239
v 0.000000 0.124987 -0.288292
v 0.000000 -0.124987 -0.288292
v -0.053672 0.124987 -0.278458
v -0.053672 -0.124987 -0.278458
v 0.053672 0.124987 -0.278458
v 0.053672 -0.124987 -0.278458
v 0.000000 0.124987 -0.288292
v 0.000000 -0.124987 -0.288292
v 0.100337 0.124987 -0.250239
v 0.100337 -0.124987 -0.250239
v 0.053672 0.124987 -0.278458
v 0.053672 -0.124987 -0.278458
v 0.133902 -0.124987 -0.207321
v 0.100337 -0.124987 -0.250239
v 0.133902 0.124987 -0.207321
v 0.100337 0.124987 -0.250239
v 0.149985 -0.124987 -0.155305
v 0.133902 -0.124987 -0.207321
v 0.149985 0.124987 -0.155305
v 0.133902 0.124987 -0.207321
v 0.149985 -0.124987 -0.063327
v 0.149985 -0.124987 -0.155305
v 0.149985 0.124987 -0.063327
v 0.149985 0.124987 -0.155305
vn -0.0000 -0.0000 1.0000
vn 1.0000 -0.0000 -0.0000
vn -1.0000 -0.0000 -0.0000
vn -0.0000 -0.0000 -1.0000
vn -0.0000 -1.0000 -0.0000
vn -0.0000 1.0000 -0.0000
vn 0.6247 -0.0000 0.7809
vn -0.6247 -0.0000 -0.7809
vn -0.3310 -0.0000 -0.9436
vn 0.7214 0.3827 0.5772
vn 0.7215 -0.3827 0.5771
vn 0.7214 -0.3827 0.5772
vn 0.7215 0.3827 0.5771
vn 0.2987 0.9239 0.2391
vn 0.2988 0.9239 0.2390
vn -0.2988 0.9239 0.2391
vn -0.2988 0.9239 0.2390
vn -0.2987 -0.9239 0.2392
vn -0.2988 -0.9239 0.2390
vn 0.2988 -0.9239 0.2391
vn 0.2988 -0.9239 0.2390
vn -0.7215 0.3827 0.5771
vn -0.7214 -0.3827 0.5772
vn -0.7215 -0.3827 0.5771
vn -0.7214 0.3827 0.5772
vn 0.2989 -0.9238 0.2391
vn 0.7214 -0.3828 0.5771
vn 0.7214 -0.3827 0.5771
vn 0.2987 -0.9239 0.2392
vn -0.2989 0.9238 0.2391
vn -0.7214 0.3828 0.5771
vn -0.7214 0.3827 0.5771
vn -0.7215 -0.3828 0.5770
vn -0.2989 -0.9238 0.2391
vn -0.7214 -0.3827 0.5771
vn -0.2988 -0.9239 0.2391
vn 0.3310 -0.0000 -0.9436
vn 0.7214 0.3828 0.5771
vn 0.2990 0.9239 0.2389
vn 0.7214 0.3827 0.5771
vn 0.2988 0.9239 0.2391
vn -0.6247 -0.0000 0.7809
vn 0.6247 -0.0000 -0.7809
vn 0.2987 0.9239 0.2392
vn -0.2987 -0.9239 0.2391
vn -0.2987 0.9239 0.2392
vn -0.7214 -0.3828 0.5771
vn -0.2990 -0.9239 0.2389
vn 0.7215 0.3828 0.5770
vn 0.2989 0.9238 0.2391
vn -0.0000 -0.6247 -0.7809
vn -0.0000 0.6247 -0.7809
vn 0.9888 -0.0000 0.1492
vn 0.8862 -0.0000 0.4633
vn 0.9888 -0.0000 0.1495
vn 0.6635 -0.0000 0.7482
vn 0.8861 -0.0000 0.4634
vn 0.3547 -0.0000 0.9350
vn 0.3546 -0.0000 0.9350
vn 0.0002 -0.0000 1.0000
vn -0.0002 -0.0000 1.0000
vn -0.3546 -0.0000 0.9350
vn -0.3547 -0.0000 0.9350
vn -0.6635 -0.0000 0.7482
vn -0.8861 -0.0000 0.4634
vn -0.9888 -0.0000 0.1495
vn -0.8862 -0.0000 0.4633
vn -0.9888 -0.0000 0.1492
vt 0.718750 0.025000
vt 0.718750 0.225000
vt 0.718750 0.111364
vt 0.718750 0.162136
vt 0.718750 0.043038
vt 0.718750 0.092644
vt 0.718750 0.074605
vt 0.156250 0.375000
vt 0.093750 0.406250
vt 0.093750 0.325000
vt 0.093750 0.342248
vt 0.093750 0.352002
vt 0.093750 0.360050
vt 0.093750 0.365341
vt 0.093750 0.381250
vt 0.093750 0.367186
vt 0.093750 0.425000
s 1
usemtl colormap
f 3/1/1 2/1/1 1/1/1
f 2/1/1 3/1/1 4/1/1
f 7/2/2 6/1/2 5/2/2
f 6/1/2 7/2/2 8/1/2
f 11/1/3 10/2/3 9/1/3
f 10/2/3 11/1/3 12/2/3
f 15/2/4 14/2/4 13/2/4
f 14/2/4 15/2/4 16/2/4
f 19/3/3 18/2/3 17/3/3
f 18/2/3 19/3/3 20/2/3
f 23/3/5 22/2/5 21/2/5
f 23/3/5 24/1/5 22/2/5
f 24/1/5 23/3/5 25/1/5
f 26/3/5 25/1/5 23/3/5
f 25/1/5 26/3/5 27/2/5
f 27/2/5 26/3/5 28/2/5
f 31/2/2 30/3/2 29/2/2
f 30/3/2 31/2/2 32/3/2
f 35/3/6 34/2/6 33/2/6
f 35/3/6 36/1/6 34/2/6
f 36/1/6 35/3/6 37/1/6
f 38/3/6 37/1/6 35/3/6
f 37/1/6 38/3/6 39/2/6
f 39/2/6 38/3/6 40/2/6
f 43/2/4 42/2/4 41/2/4
f 42/2/4 43/2/4 44/2/4
f 47/4/7 46/5/7 45/4/7
f 46/5/7 47/4/7 48/5/7
f 46/5/7 48/5/7 49/1/7
f 49/1/7 48/5/7 50/1/7
f 53/6/8 52/2/9 51/2/9
f 52/2/9 53/6/8 54/6/8
f 54/6/8 53/6/8 55/7/8
f 54/6/8 55/7/8 56/7/8
f 59/7/10 58/1/11 57/7/12
f 58/1/11 59/7/10 60/1/13
f 63/6/14 62/4/6 61/5/15
f 62/4/6 63/6/14 64/2/6
f 62/4/6 64/2/6 65/2/6
f 66/6/16 62/4/6 65/2/6
f 62/4/6 66/6/16 67/5/17
f 70/6/18 69/4/5 68/5/19
f 69/4/5 70/6/18 71/2/5
f 72/2/5 69/4/5 71/2/5
f 73/6/20 69/4/5 72/2/5
f 69/4/5 73/6/20 74/5/21
f 77/1/22 76/7/23 75/1/24
f 76/7/23 77/1/22 78/7/25
f 81/5/26 80/7/27 79/1/28
f 80/7/27 81/5/26 82/6/29
f 85/5/30 84/7/31 83/1/32
f 84/7/31 85/5/30 86/6/16
f 89/7/33 88/5/34 87/1/35
f 88/5/34 89/7/33 90/6/36
f 93/2/9 92/2/37 91/2/37
f 92/2/37 93/2/9 94/2/9
f 97/7/38 96/5/39 95/1/40
f 96/5/39 97/7/38 98/6/41
f 101/5/42 100/1/42 99/1/42
f 100/1/42 101/5/42 102/5/42
f 102/5/42 101/5/42 103/4/42
f 103/4/42 101/5/42 104/4/42
f 107/6/43 106/7/43 105/7/43
f 106/7/43 107/6/43 108/6/43
f 108/6/43 107/6/43 109/2/37
f 108/6/43 109/2/37 110/2/37
f 113/4/7 112/5/7 111/4/7
f 112/5/7 113/4/7 114/5/7
f 112/5/7 114/5/7 115/1/7
f 115/1/7 114/5/7 116/1/7
f 119/6/8 118/2/9 117/2/9
f 118/2/9 119/6/8 120/6/8
f 120/6/8 119/6/8 121/7/8
f 120/6/8 121/7/8 122/7/8
f 125/7/10 124/1/11 123/7/12
f 124/1/11 125/7/10 126/1/13
f 129/6/44 128/4/6 127/5/15
f 128/4/6 129/6/44 130/2/6
f 128/4/6 130/2/6 131/2/6
f 132/6/16 128/4/6 131/2/6
f 128/4/6 132/6/16 133/5/17
f 136/6/45 135/4/5 134/5/19
f 135/4/5 136/6/45 137/2/5
f 138/2/5 135/4/5 137/2/5
f 139/6/20 135/4/5 138/2/5
f 135/4/5 139/6/20 140/5/21
f 143/1/22 142/7/23 141/1/24
f 142/7/23 143/1/22 144/7/25
f 147/5/26 146/7/27 145/1/28
f 146/7/27 147/5/26 148/6/20
f 151/5/30 150/7/31 149/1/32
f 150/7/31 151/5/30 152/6/46
f 155/7/47 154/5/48 153/1/35
f 154/5/48 155/7/47 156/6/36
f 159/2/9 158/2/37 157/2/37
f 158/2/37 159/2/9 160/2/9
f 163/7/49 162/5/50 161/1/40
f 162/5/50 163/7/49 164/6/41
f 167/5/42 166/1/42 165/1/42
f 166/1/42 167/5/42 168/5/42
f 168/5/42 167/5/42 169/4/42
f 169/4/42 167/5/42 170/4/42
f 173/6/43 172/7/43 171/7/43
f 172/7/43 173/6/43 174/6/43
f 174/6/43 173/6/43 175/2/37
f 174/6/43 175/2/37 176/2/37
f 179/1/51 178/2/4 177/1/51
f 178/2/4 179/1/51 180/2/4
f 183/2/4 182/1/52 181/2/4
f 182/1/52 183/2/4 184/1/52
f 187/8/4 186/8/4 185/8/4
f 186/8/4 187/8/4 188/8/4
f 191/9/6 190/10/6 189/10/6
f 190/10/6 191/9/6 192/11/6
f 192/11/6 191/9/6 193/12/6
f 193/12/6 191/9/6 194/13/6
f 194/13/6 191/9/6 195/14/6
f 195/14/6 191/9/6 196/15/6
f 195/14/6 196/15/6 197/16/6
f 196/15/6 191/9/6 198/9/6
f 198/9/6 191/9/6 199/17/6
f 200/15/6 197/16/6 196/15/6
f 200/15/6 201/14/6 197/16/6
f 202/9/6 201/14/6 200/15/6
f 202/9/6 200/15/6 203/9/6
f 202/9/6 203/9/6 204/17/6
f 202/9/6 205/13/6 201/14/6
f 202/9/6 206/12/6 205/13/6
f 202/9/6 207/11/6 206/12/6
f 208/10/6 207/11/6 202/9/6
f 207/11/6 208/10/6 209/10/6
f 212/10/3 211/9/3 210/9/3
f 211/9/3 212/10/3 213/10/3
f 216/9/2 215/10/2 214/9/2
f 215/10/2 216/9/2 217/10/2
f 220/15/4 219/15/4 218/15/4
f 219/15/4 220/15/4 221/15/4
f 224/15/3 223/9/3 222/15/3
f 223/9/3 224/15/3 225/9/3
f 228/9/2 227/15/2 226/9/2
f 227/15/2 228/9/2 229/15/2
f 232/9/5 231/10/5 230/10/5
f 231/10/5 232/9/5 233/11/5
f 233/11/5 232/9/5 234/12/5
f 234/12/5 232/9/5 235/13/5
f 235/13/5 232/9/5 236/14/5
f 236/14/5 232/9/5 237/15/5
f 236/14/5 237/15/5 238/16/5
f 237/15/5 232/9/5 239/9/5
f 239/9/5 232/9/5 240/17/5
f 241/15/5 238/16/5 237/15/5
f 241/15/5 242/14/5 238/16/5
f 243/9/5 242/14/5 241/15/5
f 243/9/5 241/15/5 244/9/5
f 243/9/5 244/9/5 245/17/5
f 243/9/5 246/13/5 242/14/5
f 243/9/5 247/12/5 246/13/5
f 243/9/5 248/11/5 247/12/5
f 249/10/5 248/11/5 243/9/5
f 248/11/5 249/10/5 250/10/5
f 253/11/53 252/10/2 251/11/53
f 252/10/2 253/11/53 254/10/2
f 257/12/54 256/11/55 255/12/54
f 256/11/55 257/12/54 258/11/55
f 261/13/56 260/12/57 259/13/56
f 260/12/57 261/13/56 262/12/57
f 265/13/56 264/14/58 263/14/58
f 264/14/58 265/13/56 266/13/56
f 269/14/59 268/16/60 267/16/60
f 268/16/60 269/14/59 270/14/59
f 273/16/61 272/14/62 271/14/62
f 272/14/62 273/16/61 274/16/61
f 277/14/63 276/13/64 275/13/64
f 276/13/64 277/14/63 278/14/63
f 281/12/65 280/13/64 279/12/65
f 280/13/64 281/12/65 282/13/64
f 285/11/66 284/12/67 283/11/66
f 284/12/67 285/11/66 286/12/67
f 289/10/3 288/11/68 287/10/3
f 288/11/68 289/10/3 290/11/68
