# Blender 4.5.4 LTS
# www.blender.org
mtllib Scene.002.mtl
o road-dirt-tile.255
v 25.000000 -25.000000 -5.000000
v 25.000000 25.000000 -5.000000
v -25.000000 -25.000000 -5.000000
v -25.000000 25.000000 -5.000000
v 25.000000 25.000000 0.000000
v 25.000000 -25.000000 0.000000
v -25.000000 25.000000 0.000000
v -25.000000 -25.000000 0.000000
vn -0.0000 -0.0000 -1.0000
vn -0.0000 -0.0000 1.0000
vn -0.0000 -1.0000 -0.0000
vn -1.0000 -0.0000 -0.0000
vn -0.0000 1.0000 -0.0000
vn 1.0000 -0.0000 -0.0000
vt 0.000000 0.000000
vt 0.500000 0.000000
vt 0.000000 0.500000
vt 0.500000 0.500000
vt 0.500000 -0.500000
vt 0.000000 -0.500000
vt 3.000000 -12.050000
vt 3.000000 -12.000000
vt 2.500000 -12.050000
vt 2.500000 -12.000000
vt 3.500000 -12.050000
vt 3.500000 -12.000000
vt 2.000000 -12.050000
vt 2.000000 -12.000000
vt 1.500000 -12.050000
vt 1.500000 -12.000000
s 1
usemtl concrete.001
f 1/1/1 3/2/1 2/3/1
f 4/4/1 2/3/1 3/2/1
f 5/2/2 7/1/2 6/5/2
f 8/6/2 6/5/2 7/1/2
f 8/7/3 3/8/3 6/9/3
f 1/10/3 6/9/3 3/8/3
f 8/7/4 7/11/4 3/8/4
f 4/12/4 3/8/4 7/11/4
f 5/13/5 2/14/5 7/15/5
f 4/16/5 7/15/5 2/14/5
f 1/10/6 2/14/6 6/9/6
f 5/13/6 6/9/6 2/14/6
