# Blender 4.5.4 LTS
# www.blender.org
mtllib boards_support.mtl
o boards_support
v -4.670559 3.535771 -5.899944
v -4.670559 3.535772 -5.067513
v -4.864595 3.535772 -5.067513
v -4.864595 3.535771 -5.899944
v -4.670559 3.731573 -5.899944
v -4.670559 3.731574 -5.067513
v -4.864595 3.731574 -5.067513
v -4.864595 3.731573 -5.899944
v -1.880559 5.875771 -5.899943
v -1.880559 5.875771 -5.067513
v -2.074596 5.875771 -5.067513
v -2.074596 5.875771 -5.899943
v -1.880559 6.071573 -5.899943
v -1.880559 6.071573 -5.067513
v -2.074596 6.071573 -5.067513
v -2.074596 6.071573 -5.899943
v 1.335403 5.875771 -5.899943
v 1.335403 5.875771 -5.067512
v 1.529440 5.875771 -5.067512
v 1.529440 5.875771 -5.899943
v 1.335403 6.071573 -5.899943
v 1.335403 6.071573 -5.067512
v 1.529440 6.071573 -5.067512
v 1.529440 6.071573 -5.899943
v 4.125405 3.535772 -5.899942
v 4.125405 3.535772 -5.067512
v 4.319442 3.535772 -5.067512
v 4.319442 3.535772 -5.899942
v 4.125405 3.731574 -5.899942
v 4.125405 3.731574 -5.067512
v 4.319442 3.731574 -5.067512
v 4.319442 3.731574 -5.899942
v -4.670561 3.535772 5.319700
v -4.670561 3.535772 4.487269
v -4.864597 3.535772 4.487269
v -4.864597 3.535772 5.319700
v -4.670561 3.731574 5.319700
v -4.670561 3.731574 4.487269
v -4.864597 3.731574 4.487269
v -4.864597 3.731574 5.319700
v -1.880560 5.875772 5.319700
v -1.880560 5.875772 4.487269
v -2.074597 5.875772 4.487269
v -2.074597 5.875772 5.319700
v -1.880560 6.071574 5.319700
v -1.880560 6.071574 4.487269
v -2.074597 6.071574 4.487269
v -2.074597 6.071574 5.319700
v 1.335403 5.875772 5.319701
v 1.335403 5.875772 4.487270
v 1.529440 5.875772 4.487270
v 1.529439 5.875772 5.319701
v 1.335403 6.071574 5.319701
v 1.335403 6.071574 4.487270
v 1.529440 6.071574 4.487270
v 1.529439 6.071574 5.319701
v 4.125402 3.535772 5.319701
v 4.125401 3.535772 4.487270
v 4.319438 3.535772 4.487270
v 4.319438 3.535772 5.319701
v 4.125402 3.731574 5.319701
v 4.125401 3.731574 4.487270
v 4.319438 3.731574 4.487270
v 4.319438 3.731574 5.319701
vn 1.0000 -0.0000 -0.0000
vn -0.0000 -0.0000 1.0000
vn -1.0000 -0.0000 -0.0000
vn -0.0000 -0.0000 -1.0000
vn -0.0000 -1.0000 -0.0000
vn -0.0000 1.0000 -0.0000
vt 1.016873 1.579571
vt 1.505446 -0.526515
vt 1.010416 -0.524996
vt -0.986127 3.070686
vt -0.494046 3.564210
vt -0.495567 3.069181
vt 0.515386 1.579571
vt 1.003960 -0.526515
vt 0.508930 -0.524996
vt -0.494044 3.070688
vt -0.001963 3.564211
vt -0.003480 3.069183
vt 0.999494 1.579571
vt 0.515384 3.685643
vt 1.005949 3.684138
vt -2.489077 3.685641
vt -2.004968 1.579569
vt -2.495532 1.581074
vt -1.998510 -2.631083
vt -2.500000 -0.528035
vt -2.004968 -0.526517
vt 0.016839 1.581086
vt 0.508926 2.074613
vt 0.507406 1.579582
vt -1.992052 -0.526516
vt -1.503478 -2.632602
vt -0.003480 2.572648
vt -0.492527 2.076112
vt -0.494045 2.571142
vt 2.002473 -0.526515
vt 1.518363 1.579559
vt 2.008929 1.578054
vt 2.512413 1.579559
vt 2.996523 -0.526515
vt 2.505953 -0.525009
vt -0.995532 -0.528035
vt -1.497021 -2.631083
vt -1.490563 -0.526517
vt -0.494045 2.077615
vt -0.986131 2.571140
vt -0.495562 2.572646
vt -1.998512 1.578050
vt -2.500000 -0.524997
vt -2.493542 1.579569
vt -1.506423 1.581077
vt -1.998510 2.074601
vt -1.507941 2.076107
vt 3.002976 3.684125
vt 2.505953 1.581063
vt 2.512408 3.685630
vt 2.008929 1.581062
vt 2.505951 3.684124
vt 2.499496 1.579558
vt -0.494045 1.578056
vt -0.995531 -0.524991
vt -0.989075 1.579575
vt 0.018358 2.572650
vt 0.507406 2.076116
vt 0.016839 2.077621
vt -0.487589 -0.526510
vt 0.000984 1.579575
vt 0.007441 -0.524991
vt -1.996992 3.069177
vt -1.507943 2.572642
vt -1.998510 2.574147
vt 3.002977 -0.528036
vt 2.505953 -2.631097
vt 2.512410 -0.526531
vt 3.002976 -0.525010
vt 3.500000 1.578051
vt 3.493543 -0.526515
vt -1.490563 -0.526517
vt -1.001988 1.579568
vt -0.995532 -0.524993
vt -1.506429 3.070682
vt -1.998510 3.564207
vt -1.507951 3.565712
vt -1.497024 1.578054
vt -1.998510 -0.524992
vt -1.992053 1.579571
vt -0.492527 3.069183
vt -0.494044 2.574152
vt 2.008929 -2.631104
vt 2.505953 -0.528041
vt 2.499503 -2.632602
vt -0.999997 3.684128
vt -1.497019 1.581071
vt -1.490562 3.685640
vt 0.013896 -0.526510
vt 0.502469 1.579582
vt 0.508926 -0.524991
vt 0.508925 2.574154
vt 0.016839 3.067678
vt 0.507405 3.069183
vt 0.508929 -0.528029
vt 0.007442 -2.631083
vt 0.013900 -0.526510
vt 0.508925 3.070687
vt 0.016842 3.564212
vt 0.507407 3.565715
vt 1.010416 1.581076
vt 1.507436 3.684127
vt 1.500980 1.579571
vt 2.008929 -0.528039
vt 1.511903 -2.631094
vt 1.518358 -0.526529
vt -0.487586 -0.526510
vt 0.000987 -2.632602
vt -0.494045 -2.631083
vt -0.986131 2.574153
vt -0.494046 3.067677
vt -0.495563 2.572647
vt -0.494045 -2.631087
vt -0.995532 -0.528032
vt -0.500504 -0.526510
vt -1.507942 2.572642
vt -1.996991 2.076107
vt -1.998510 2.571136
vt 3.009431 -0.526529
vt 3.493543 -2.632602
vt 3.002976 -2.631094
vt 2.002471 1.579559
vt 1.518359 3.685627
vt 2.008926 3.684122
vt 1.010416 -2.631085
vt 0.508929 -0.528039
vt 1.003961 -0.526515
vt -0.986131 1.581080
vt -0.494045 2.074606
vt -0.495564 1.579575
vt 1.511903 -0.528039
vt 1.505446 -2.632602
vt -0.494045 1.581081
vt -0.001960 2.074607
vt -0.003478 1.579575
vt 3.002976 1.581061
vt 3.500000 3.684121
vt 3.493542 1.579556
vt 2.008929 1.578048
vt 2.505953 -0.525010
vt 2.015388 -0.526515
vt 1.511903 1.578052
vt -0.984613 3.565714
vt 1.010416 1.578052
vt -0.492527 3.565715
vt 0.508930 1.581076
vt -1.998512 3.684136
vt -2.493543 -2.632602
vt 0.018357 2.076116
vt -1.497021 -0.528034
vt -0.001960 2.077618
vt 1.511903 -0.525009
vt 3.002976 1.578052
vt -1.001989 -2.632602
vt -0.984612 2.076112
vt -2.004970 -0.526517
vt -1.996992 1.579571
vt 2.996520 1.579559
vt 2.015383 3.685629
vt -0.500502 -0.526510
vt 0.508925 2.571146
vt -1.506424 3.067672
vt 2.996520 -2.632602
vt 3.009433 1.579556
vt -1.497019 1.578051
vt -1.996993 3.069177
vt -1.503480 -0.526516
vt -0.001960 3.067678
vt 2.015384 -0.526532
vt -1.006450 1.579568
vt 0.007442 1.578060
vt 0.018357 2.572650
vt 0.502474 -2.632602
vt 0.018357 3.069183
vt 1.016869 3.685636
vt 2.002471 -2.632602
vt 0.007442 -0.528029
vt -0.984612 3.069181
vt -0.989078 -2.632602
vt -1.506425 2.077612
vt 3.500000 -0.528034
vt 1.511903 1.581064
vt 0.515386 -2.632602
vt -0.984612 2.076112
vt 1.016872 -0.526515
vt -0.492527 2.076112
vt 3.009432 3.685628
vt 2.499496 1.579558
s 0
usemtl wood_brown
f 6/1/1 1/2/1 5/3/1
f 7/4/2 2/5/2 6/6/2
f 8/7/3 3/8/3 7/9/3
f 5/10/4 4/11/4 8/12/4
f 2/13/5 4/14/5 1/15/5
f 7/16/6 5/17/6 8/18/6
f 14/19/1 9/20/1 13/21/1
f 15/22/2 10/23/2 14/24/2
f 16/25/3 11/26/3 15/19/3
f 13/27/4 12/28/4 16/29/4
f 10/30/5 12/31/5 9/32/5
f 15/33/6 13/34/6 16/35/6
f 17/36/3 22/37/3 21/38/3
f 18/39/2 23/40/2 22/41/2
f 19/42/1 24/43/1 23/44/1
f 20/45/4 21/46/4 24/47/4
f 20/48/5 18/49/5 17/50/5
f 21/51/6 23/52/6 24/53/6
f 25/54/3 30/55/3 29/56/3
f 26/57/2 31/58/2 30/59/2
f 27/60/1 32/61/1 31/62/1
f 28/63/4 29/64/4 32/65/4
f 28/66/5 26/67/5 25/68/5
f 29/69/6 31/70/6 32/71/6
f 33/72/1 38/73/1 37/74/1
f 34/75/4 39/76/4 38/77/4
f 35/78/3 40/79/3 39/80/3
f 36/81/2 37/27/2 40/82/2
f 36/83/5 34/84/5 33/85/5
f 37/86/6 39/87/6 40/88/6
f 41/89/1 46/90/1 45/91/1
f 42/92/4 47/93/4 46/94/4
f 43/95/3 48/96/3 47/97/3
f 44/98/2 45/99/2 48/100/2
f 44/101/5 42/102/5 41/103/5
f 45/104/6 47/105/6 48/106/6
f 54/107/3 49/108/3 53/109/3
f 55/110/4 50/111/4 54/112/4
f 56/113/1 51/114/1 55/115/1
f 53/116/2 52/117/2 56/118/2
f 50/119/5 52/120/5 49/121/5
f 55/122/6 53/123/6 56/124/6
f 62/125/3 57/126/3 61/127/3
f 63/128/4 58/129/4 62/130/4
f 63/125/1 60/131/1 59/132/1
f 61/133/2 60/134/2 64/135/2
f 57/136/5 59/137/5 60/138/5
f 63/139/6 61/140/6 64/141/6
f 6/1/1 2/142/1 1/2/1
f 7/4/2 3/143/2 2/5/2
f 8/7/3 4/144/3 3/8/3
f 5/10/4 1/145/4 4/11/4
f 2/13/5 3/146/5 4/14/5
f 7/16/6 6/147/6 5/17/6
f 14/19/1 10/148/1 9/20/1
f 15/22/2 11/149/2 10/23/2
f 16/25/3 12/150/3 11/26/3
f 13/27/4 9/151/4 12/28/4
f 10/30/5 11/152/5 12/31/5
f 15/33/6 14/153/6 13/34/6
f 17/36/3 18/154/3 22/37/3
f 18/39/2 19/155/2 23/40/2
f 19/42/1 20/156/1 24/43/1
f 20/45/4 17/157/4 21/46/4
f 20/48/5 19/158/5 18/49/5
f 21/51/6 22/159/6 23/52/6
f 25/54/3 26/160/3 30/55/3
f 26/57/2 27/161/2 31/58/2
f 27/60/1 28/54/1 32/61/1
f 28/63/4 25/162/4 29/64/4
f 28/66/5 27/163/5 26/67/5
f 29/69/6 30/164/6 31/70/6
f 33/72/1 34/165/1 38/73/1
f 34/75/4 35/166/4 39/76/4
f 35/78/3 36/167/3 40/79/3
f 36/81/2 33/168/2 37/27/2
f 36/83/5 35/169/5 34/84/5
f 37/86/6 38/170/6 39/87/6
f 41/89/1 42/171/1 46/90/1
f 42/92/4 43/172/4 47/93/4
f 43/95/3 44/173/3 48/96/3
f 44/98/2 41/174/2 45/99/2
f 44/101/5 43/175/5 42/102/5
f 45/104/6 46/176/6 47/105/6
f 54/107/3 50/177/3 49/108/3
f 55/110/4 51/178/4 50/111/4
f 56/113/1 52/179/1 51/114/1
f 53/116/2 49/180/2 52/117/2
f 50/119/5 51/181/5 52/120/5
f 55/122/6 54/182/6 53/123/6
f 62/125/3 58/183/3 57/126/3
f 63/128/4 59/184/4 58/129/4
f 63/125/1 64/185/1 60/131/1
f 61/133/2 57/186/2 60/134/2
f 57/136/5 58/187/5 59/137/5
f 63/139/6 62/188/6 61/140/6
