# Blender 5.0.0
# www.blender.org
mtllib Julia@NPC.mtl
o Sphere
v 0.000000 1.000000 0.000000
v 0.000000 0.831470 -0.555570
v 0.000000 0.555570 -0.831470
v 0.000000 0.195090 -0.980785
v 0.000000 0.000000 -1.000000
v 0.000000 -0.195090 -0.980785
v 0.000000 -0.555570 -0.831470
v 0.000000 -1.000000 0.000000
v 0.038060 0.980785 -0.191342
v 0.074658 0.923880 -0.375330
v 0.108386 0.831470 -0.544895
v 0.137950 0.707107 -0.693520
v 0.162212 0.555570 -0.815493
v 0.180240 0.382683 -0.906127
v 0.191342 0.195090 -0.961940
v 0.195090 0.000000 -0.980785
v 0.191342 -0.195090 -0.961940
v 0.180240 -0.382683 -0.906127
v 0.162212 -0.555570 -0.815493
v 0.137950 -0.707107 -0.693520
v 0.108386 -0.831470 -0.544895
v 0.074658 -0.923880 -0.375330
v 0.038060 -0.980785 -0.191342
v 0.074658 0.980785 -0.180240
v 0.146447 0.923880 -0.353553
v 0.212608 0.831470 -0.513280
v 0.270598 0.707107 -0.653281
v 0.318190 0.555570 -0.768178
v 0.353553 0.382683 -0.853553
v 0.375330 0.195090 -0.906127
v 0.382683 0.000000 -0.923879
v 0.375330 -0.195090 -0.906127
v 0.353553 -0.382683 -0.853553
v 0.318190 -0.555570 -0.768178
v 0.270598 -0.707107 -0.653281
v 0.212608 -0.831470 -0.513280
v 0.146447 -0.923880 -0.353553
v 0.074658 -0.980785 -0.180240
v 0.108386 0.980785 -0.162212
v 0.212608 0.923880 -0.318190
v 0.308658 0.831470 -0.461940
v 0.392847 0.707107 -0.587938
v 0.461940 0.555570 -0.691342
v 0.513280 0.382683 -0.768178
v 0.544895 0.195090 -0.815493
v 0.555570 0.000000 -0.831469
v 0.544895 -0.195090 -0.815493
v 0.513280 -0.382683 -0.768178
v 0.461940 -0.555570 -0.691342
v 0.392847 -0.707107 -0.587938
v 0.308658 -0.831470 -0.461940
v 0.212608 -0.923880 -0.318190
v 0.108386 -0.980785 -0.162212
v 0.137950 0.980785 -0.137950
v 0.270598 0.923880 -0.270598
v 0.392847 0.831470 -0.392847
v 0.500000 0.707107 -0.500000
v 0.587938 0.555570 -0.587938
v 0.653281 0.382683 -0.653281
v 0.693520 0.195090 -0.693520
v 0.707107 0.000000 -0.707107
v 0.693520 -0.195090 -0.693520
v 0.653281 -0.382683 -0.653281
v 0.587938 -0.555570 -0.587938
v 0.500000 -0.707107 -0.500000
v 0.392847 -0.831470 -0.392847
v 0.270598 -0.923880 -0.270598
v 0.137950 -0.980785 -0.137950
v 0.162212 0.980785 -0.108386
v 0.318190 0.923880 -0.212608
v 0.461940 0.831470 -0.308658
v 0.587938 0.707107 -0.392847
v 0.691342 0.555570 -0.461940
v 0.768178 0.382683 -0.513280
v 0.815493 0.195090 -0.544895
v 0.831470 0.000000 -0.555570
v 0.815493 -0.195090 -0.544895
v 0.768178 -0.382683 -0.513280
v 0.691342 -0.555570 -0.461940
v 0.587938 -0.707107 -0.392847
v 0.461940 -0.831470 -0.308658
v 0.318190 -0.923880 -0.212608
v 0.162212 -0.980785 -0.108386
v 0.180240 0.980785 -0.074658
v 0.353553 0.923880 -0.146447
v 0.513280 0.831470 -0.212607
v 0.653281 0.707107 -0.270598
v 0.768178 0.555570 -0.318190
v 0.853553 0.382683 -0.353553
v 0.906127 0.195090 -0.375330
v 0.923879 0.000000 -0.382683
v 0.906127 -0.195090 -0.375330
v 0.853553 -0.382683 -0.353553
v 0.768178 -0.555570 -0.318190
v 0.653281 -0.707107 -0.270598
v 0.513280 -0.831470 -0.212607
v 0.353553 -0.923880 -0.146447
v 0.180240 -0.980785 -0.074658
v 0.191342 0.980785 -0.038060
v 0.375330 0.923880 -0.074658
v 0.544895 0.831470 -0.108386
v 0.693520 0.707107 -0.137950
v 0.815493 0.555570 -0.162212
v 0.906127 0.382683 -0.180240
v 0.961940 0.195090 -0.191342
v 0.980785 0.000000 -0.195090
v 0.961940 -0.195090 -0.191342
v 0.906127 -0.382683 -0.180240
v 0.815493 -0.555570 -0.162212
v 0.693520 -0.707107 -0.137950
v 0.544895 -0.831470 -0.108386
v 0.375330 -0.923880 -0.074658
v 0.191342 -0.980785 -0.038060
v 0.195090 0.980785 0.000000
v 0.382683 0.923880 0.000000
v 0.555570 0.831470 0.000000
v 0.707107 0.707107 -0.000000
v 0.831469 0.555570 0.000000
v 0.923879 0.382683 -0.000000
v 0.980785 0.195090 0.000000
v 1.000000 0.000000 0.000000
v 0.980785 -0.195090 0.000000
v 0.923879 -0.382683 -0.000000
v 0.831469 -0.555570 0.000000
v 0.707107 -0.707107 -0.000000
v 0.555570 -0.831470 0.000000
v 0.382683 -0.923880 0.000000
v 0.195090 -0.980785 0.000000
v 0.191342 0.980785 0.038060
v 0.375330 0.923880 0.074658
v 0.544895 0.831470 0.108386
v 0.693520 0.707107 0.137950
v 0.815493 0.555570 0.162212
v 0.906127 0.382683 0.180240
v 0.961940 0.195090 0.191342
v 0.980785 0.000000 0.195090
v 0.961940 -0.195090 0.191342
v 0.906127 -0.382683 0.180240
v 0.815493 -0.555570 0.162212
v 0.693520 -0.707107 0.137950
v 0.544895 -0.831470 0.108386
v 0.375330 -0.923880 0.074658
v 0.191342 -0.980785 0.038060
v 0.180240 0.980785 0.074658
v 0.353553 0.923880 0.146447
v 0.513280 0.831470 0.212608
v 0.653281 0.707107 0.270598
v 0.768178 0.555570 0.318190
v 0.853553 0.382683 0.353553
v 0.906127 0.195090 0.375330
v 0.923879 0.000000 0.382683
v 0.906127 -0.195090 0.375330
v 0.853553 -0.382683 0.353553
v 0.768178 -0.555570 0.318190
v 0.653281 -0.707107 0.270598
v 0.513280 -0.831470 0.212608
v 0.353553 -0.923880 0.146447
v 0.180240 -0.980785 0.074658
v 0.162212 0.980785 0.108386
v 0.318190 0.923880 0.212608
v 0.461940 0.831470 0.308658
v 0.587938 0.707107 0.392847
v 0.691341 0.555570 0.461940
v 0.768178 0.382683 0.513280
v 0.815493 0.195090 0.544895
v 0.831469 0.000000 0.555570
v 0.815493 -0.195090 0.544895
v 0.768178 -0.382683 0.513280
v 0.691341 -0.555570 0.461940
v 0.587938 -0.707107 0.392847
v 0.461940 -0.831470 0.308658
v 0.318190 -0.923880 0.212608
v 0.162212 -0.980785 0.108386
v 0.137950 0.980785 0.137950
v 0.270598 0.923880 0.270598
v 0.392847 0.831470 0.392847
v 0.500000 0.707107 0.500000
v 0.587938 0.555570 0.587938
v 0.653281 0.382683 0.653281
v 0.693520 0.195090 0.693520
v 0.707106 0.000000 0.707107
v 0.693520 -0.195090 0.693520
v 0.653281 -0.382683 0.653281
v 0.587938 -0.555570 0.587938
v 0.500000 -0.707107 0.500000
v 0.392847 -0.831470 0.392847
v 0.270598 -0.923880 0.270598
v 0.137950 -0.980785 0.137950
v 0.108386 0.980785 0.162212
v 0.212607 0.923880 0.318190
v 0.308658 0.831470 0.461940
v 0.392847 0.707107 0.587938
v 0.461940 0.555570 0.691342
v 0.513280 0.382683 0.768178
v 0.544895 0.195090 0.815493
v 0.555570 0.000000 0.831469
v 0.544895 -0.195090 0.815493
v 0.513280 -0.382683 0.768178
v 0.461940 -0.555570 0.691342
v 0.392847 -0.707107 0.587938
v 0.308658 -0.831470 0.461940
v 0.212607 -0.923880 0.318190
v 0.108386 -0.980785 0.162212
v 0.074658 0.980785 0.180240
v 0.146447 0.923880 0.353553
v 0.212607 0.831470 0.513280
v 0.270598 0.707107 0.653281
v 0.318189 0.555570 0.768178
v 0.353553 0.382683 0.853553
v 0.375330 0.195090 0.906127
v 0.382683 0.000000 0.923879
v 0.375330 -0.195090 0.906127
v 0.353553 -0.382683 0.853553
v 0.318189 -0.555570 0.768178
v 0.270598 -0.707107 0.653281
v 0.212607 -0.831470 0.513280
v 0.146447 -0.923880 0.353553
v 0.074658 -0.980785 0.180240
v 0.038060 0.980785 0.191342
v 0.074658 0.923880 0.375330
v 0.108386 0.831470 0.544895
v 0.137950 0.707107 0.693520
v 0.162212 0.555570 0.815493
v 0.180240 0.382683 0.906127
v 0.191342 0.195090 0.961939
v 0.195090 0.000000 0.980785
v 0.191342 -0.195090 0.961939
v 0.180240 -0.382683 0.906127
v 0.162212 -0.555570 0.815493
v 0.137950 -0.707107 0.693520
v 0.108386 -0.831470 0.544895
v 0.074658 -0.923880 0.375330
v 0.038060 -0.980785 0.191342
v -0.000000 0.980785 0.195090
v -0.000000 0.923880 0.382683
v -0.000000 0.831470 0.555570
v -0.000000 0.707107 0.707107
v -0.000000 0.555570 0.831469
v 0.000000 0.382683 0.923879
v -0.000000 0.195090 0.980785
v -0.000000 0.000000 0.999999
v -0.000000 -0.195090 0.980785
v 0.000000 -0.382683 0.923879
v -0.000000 -0.555570 0.831469
v -0.000000 -0.707107 0.707107
v -0.000000 -0.831470 0.555570
v -0.000000 -0.923880 0.382683
v -0.000000 -0.980785 0.195090
v -0.038060 0.980785 0.191342
v -0.074658 0.923880 0.375330
v -0.108386 0.831470 0.544895
v -0.137950 0.707107 0.693520
v -0.162212 0.555570 0.815493
v -0.180240 0.382683 0.906127
v -0.191342 0.195090 0.961939
v -0.195091 0.000000 0.980785
v -0.191342 -0.195090 0.961939
v -0.180240 -0.382683 0.906127
v -0.162212 -0.555570 0.815493
v -0.137950 -0.707107 0.693520
v -0.108386 -0.831470 0.544895
v -0.074658 -0.923880 0.375330
v -0.038060 -0.980785 0.191342
v -0.074658 0.980785 0.180240
v -0.146447 0.923880 0.353553
v -0.212608 0.831470 0.513280
v -0.270598 0.707107 0.653281
v -0.318190 0.555570 0.768177
v -0.353553 0.382683 0.853553
v -0.375330 0.195090 0.906127
v -0.382683 0.000000 0.923879
v -0.375330 -0.195090 0.906127
v -0.353553 -0.382683 0.853553
v -0.318190 -0.555570 0.768177
v -0.270598 -0.707107 0.653281
v -0.212608 -0.831470 0.513280
v -0.146447 -0.923880 0.353553
v -0.074658 -0.980785 0.180240
v -0.108386 0.980785 0.162212
v -0.212608 0.923880 0.318190
v -0.308658 0.831470 0.461939
v -0.392847 0.707107 0.587938
v -0.461940 0.555570 0.691341
v -0.513280 0.382683 0.768178
v -0.544895 0.195090 0.815493
v -0.555570 0.000000 0.831469
v -0.544895 -0.195090 0.815493
v -0.513280 -0.382683 0.768178
v -0.461940 -0.555570 0.691341
v -0.392847 -0.707107 0.587938
v -0.308658 -0.831470 0.461939
v -0.212608 -0.923880 0.318190
v -0.108386 -0.980785 0.162212
v -0.137950 0.980785 0.137950
v -0.270598 0.923880 0.270598
v -0.392847 0.831470 0.392847
v -0.500000 0.707107 0.500000
v -0.587938 0.555570 0.587937
v -0.653281 0.382683 0.653281
v -0.693520 0.195090 0.693520
v -0.707106 0.000000 0.707106
v -0.693520 -0.195090 0.693520
v -0.653281 -0.382683 0.653281
v -0.587938 -0.555570 0.587937
v -0.500000 -0.707107 0.500000
v -0.392847 -0.831470 0.392847
v -0.270598 -0.923880 0.270598
v -0.137950 -0.980785 0.137950
v -0.162212 0.980785 0.108386
v -0.318190 0.923880 0.212607
v -0.461940 0.831470 0.308658
v -0.587938 0.707107 0.392847
v -0.691341 0.555570 0.461939
v -0.768177 0.382683 0.513280
v -0.815493 0.195090 0.544895
v -0.831469 0.000000 0.555569
v -0.815493 -0.195090 0.544895
v -0.768177 -0.382683 0.513280
v -0.691341 -0.555570 0.461939
v -0.587938 -0.707107 0.392847
v -0.461940 -0.831470 0.308658
v -0.318190 -0.923880 0.212607
v -0.162212 -0.980785 0.108386
v -0.180240 0.980785 0.074658
v -0.353553 0.923880 0.146447
v -0.513280 0.831470 0.212607
v -0.653281 0.707107 0.270598
v -0.768177 0.555570 0.318189
v -0.853553 0.382683 0.353553
v -0.906127 0.195090 0.375330
v -0.923879 0.000000 0.382683
v -0.906127 -0.195090 0.375330
v -0.853553 -0.382683 0.353553
v -0.768177 -0.555570 0.318189
v -0.653281 -0.707107 0.270598
v -0.513280 -0.831470 0.212607
v -0.353553 -0.923880 0.146447
v -0.180240 -0.980785 0.074658
v -0.191342 0.980785 0.038060
v -0.375330 0.923880 0.074658
v -0.544895 0.831470 0.108386
v -0.693520 0.707107 0.137950
v -0.815493 0.555570 0.162211
v -0.906127 0.382683 0.180240
v -0.961939 0.195090 0.191341
v -0.980784 0.000000 0.195090
v -0.961939 -0.195090 0.191341
v -0.906127 -0.382683 0.180240
v -0.815493 -0.555570 0.162211
v -0.693520 -0.707107 0.137950
v -0.544895 -0.831470 0.108386
v -0.375330 -0.923880 0.074658
v -0.191342 -0.980785 0.038060
v -0.195090 0.980785 -0.000000
v -0.382683 0.923880 -0.000000
v -0.555570 0.831470 -0.000000
v -0.707107 0.707107 -0.000000
v -0.831469 0.555570 -0.000000
v -0.923879 0.382683 -0.000000
v -0.980785 0.195090 -0.000000
v -0.999999 0.000000 -0.000000
v -0.980785 -0.195090 -0.000000
v -0.923879 -0.382683 -0.000000
v -0.831469 -0.555570 -0.000000
v -0.707107 -0.707107 -0.000000
v -0.555570 -0.831470 -0.000000
v -0.382683 -0.923880 -0.000000
v -0.195090 -0.980785 -0.000000
v -0.191342 0.980785 -0.038060
v -0.375330 0.923880 -0.074658
v -0.544895 0.831470 -0.108386
v -0.693520 0.707107 -0.137950
v -0.815493 0.555570 -0.162212
v -0.906127 0.382683 -0.180240
v -0.961939 0.195090 -0.191342
v -0.980784 0.000000 -0.195091
v -0.961939 -0.195090 -0.191342
v -0.906127 -0.382683 -0.180240
v -0.815493 -0.555570 -0.162212
v -0.693520 -0.707107 -0.137950
v -0.544895 -0.831470 -0.108386
v -0.375330 -0.923880 -0.074658
v -0.191342 -0.980785 -0.038060
v -0.180240 0.980785 -0.074658
v -0.353553 0.923880 -0.146447
v -0.513279 0.831470 -0.212607
v -0.653281 0.707107 -0.270598
v -0.768177 0.555570 -0.318190
v -0.853553 0.382683 -0.353553
v -0.906127 0.195090 -0.375330
v -0.923878 0.000000 -0.382683
v -0.906127 -0.195090 -0.375330
v -0.853553 -0.382683 -0.353553
v -0.768177 -0.555570 -0.318190
v -0.653281 -0.707107 -0.270598
v -0.513279 -0.831470 -0.212607
v -0.353553 -0.923880 -0.146447
v -0.180240 -0.980785 -0.074658
v -0.162212 0.980785 -0.108386
v -0.318189 0.923880 -0.212607
v -0.461939 0.831470 -0.308658
v -0.587938 0.707107 -0.392847
v -0.691341 0.555570 -0.461940
v -0.768177 0.382683 -0.513280
v -0.815493 0.195090 -0.544895
v -0.831468 0.000000 -0.555570
v -0.815493 -0.195090 -0.544895
v -0.768177 -0.382683 -0.513280
v -0.691341 -0.555570 -0.461940
v -0.587938 -0.707107 -0.392847
v -0.461939 -0.831470 -0.308658
v -0.318189 -0.923880 -0.212607
v -0.162212 -0.980785 -0.108386
v -0.137950 0.980785 -0.137950
v -0.270598 0.923880 -0.270598
v -0.392847 0.831470 -0.392847
v -0.500000 0.707107 -0.500000
v -0.587937 0.555570 -0.587938
v -0.653281 0.382683 -0.653281
v -0.693519 0.195090 -0.693520
v -0.707106 0.000000 -0.707106
v -0.693519 -0.195090 -0.693520
v -0.653281 -0.382683 -0.653281
v -0.587937 -0.555570 -0.587938
v -0.500000 -0.707107 -0.500000
v -0.392847 -0.831470 -0.392847
v -0.270598 -0.923880 -0.270598
v -0.137950 -0.980785 -0.137950
v -0.108386 0.980785 -0.162212
v -0.212607 0.923880 -0.318190
v -0.308658 0.831470 -0.461939
v -0.392847 0.707107 -0.587938
v -0.461939 0.555570 -0.691341
v -0.513280 0.382683 -0.768177
v -0.544895 0.195090 -0.815493
v -0.555569 0.000000 -0.831469
v -0.544895 -0.195090 -0.815493
v -0.513280 -0.382683 -0.768177
v -0.461939 -0.555570 -0.691341
v -0.392847 -0.707107 -0.587938
v -0.308658 -0.831470 -0.461939
v -0.212607 -0.923880 -0.318190
v -0.108386 -0.980785 -0.162212
v -0.074658 0.980785 -0.180240
v -0.146446 0.923880 -0.353553
v -0.212607 0.831470 -0.513279
v -0.270598 0.707107 -0.653281
v -0.318189 0.555570 -0.768177
v -0.353553 0.382683 -0.853553
v -0.375330 0.195090 -0.906127
v -0.382683 0.000000 -0.923879
v -0.375330 -0.195090 -0.906127
v -0.353553 -0.382683 -0.853553
v -0.318189 -0.555570 -0.768177
v -0.270598 -0.707107 -0.653281
v -0.212607 -0.831470 -0.513279
v -0.146446 -0.923880 -0.353553
v -0.074658 -0.980785 -0.180240
v -0.038060 0.980785 -0.191342
v -0.074658 0.923880 -0.375330
v -0.108386 0.831470 -0.544895
v -0.137950 0.707107 -0.693520
v -0.162211 0.555570 -0.815493
v -0.180240 0.382683 -0.906127
v -0.191341 0.195090 -0.961939
v -0.195090 0.000000 -0.980784
v -0.191341 -0.195090 -0.961939
v -0.180240 -0.382683 -0.906127
v -0.162211 -0.555570 -0.815493
v -0.137950 -0.707107 -0.693520
v -0.108386 -0.831470 -0.544895
v -0.074658 -0.923880 -0.375330
v -0.038060 -0.980785 -0.191342
v 0.000000 0.980785 -0.195090
v 0.000000 0.923880 -0.382683
v 0.000000 0.707107 -0.707107
v 0.000000 0.382683 -0.923879
v 0.000000 -0.382683 -0.923879
v 0.000000 -0.707107 -0.707107
v 0.000000 -0.831470 -0.555570
v 0.000000 -0.923880 -0.382683
v 0.000000 -0.980785 -0.195090
vn 0.0865 -0.4696 -0.8786
vn 0.0624 0.7715 -0.6332
vn 0.0759 -0.6326 -0.7708
vn 0.0759 0.6326 -0.7708
vn 0.0624 -0.7715 -0.6332
vn 0.0865 0.4696 -0.8786
vn 0.0464 -0.8810 -0.4709
vn 0.0938 0.2890 -0.9527
vn 0.0286 -0.9565 -0.2902
vn 0.0975 0.0975 -0.9904
vn 0.0097 0.9951 -0.0980
vn 0.0097 -0.9951 -0.0980
vn 0.0975 -0.0976 -0.9904
vn 0.0286 0.9565 -0.2902
vn 0.0938 -0.2890 -0.9527
vn 0.0464 0.8810 -0.4709
vn 0.2779 -0.2890 -0.9161
vn 0.1374 0.8810 -0.4528
vn 0.2563 -0.4696 -0.8448
vn 0.1847 0.7715 -0.6088
vn 0.2248 -0.6326 -0.7412
vn 0.2248 0.6326 -0.7412
vn 0.1847 -0.7715 -0.6088
vn 0.2563 0.4696 -0.8448
vn 0.1374 -0.8810 -0.4528
vn 0.2779 0.2890 -0.9161
vn 0.0846 -0.9565 -0.2790
vn 0.2889 0.0976 -0.9524
vn 0.0286 0.9951 -0.0942
vn 0.0286 -0.9951 -0.0942
vn 0.2889 -0.0976 -0.9524
vn 0.0846 0.9565 -0.2790
vn 0.2230 -0.8810 -0.4173
vn 0.4513 0.2890 -0.8443
vn 0.1374 -0.9565 -0.2571
vn 0.4691 0.0975 -0.8777
vn 0.0464 0.9951 -0.0869
vn 0.0464 -0.9951 -0.0869
vn 0.4691 -0.0975 -0.8777
vn 0.1374 0.9565 -0.2571
vn 0.4513 -0.2890 -0.8443
vn 0.2231 0.8810 -0.4173
vn 0.4162 -0.4696 -0.7786
vn 0.2999 0.7715 -0.5611
vn 0.3651 -0.6326 -0.6831
vn 0.3651 0.6326 -0.6831
vn 0.2999 -0.7715 -0.5611
vn 0.4162 0.4696 -0.7786
vn 0.3002 0.8810 -0.3658
vn 0.5601 -0.4696 -0.6825
vn 0.4036 0.7715 -0.4918
vn 0.4913 -0.6326 -0.5987
vn 0.4913 0.6326 -0.5987
vn 0.4036 -0.7715 -0.4918
vn 0.5601 0.4696 -0.6825
vn 0.3002 -0.8810 -0.3658
vn 0.6073 0.2890 -0.7400
vn 0.1850 -0.9565 -0.2254
vn 0.6314 0.0975 -0.7693
vn 0.0625 0.9951 -0.0761
vn 0.0625 -0.9951 -0.0761
vn 0.6314 -0.0975 -0.7693
vn 0.1850 0.9565 -0.2254
vn 0.6073 -0.2890 -0.7400
vn 0.7400 0.2890 -0.6073
vn 0.2254 -0.9566 -0.1850
vn 0.7693 0.0975 -0.6314
vn 0.0761 0.9951 -0.0625
vn 0.0761 -0.9951 -0.0625
vn 0.7693 -0.0975 -0.6314
vn 0.2254 0.9565 -0.1850
vn 0.7400 -0.2890 -0.6073
vn 0.3658 0.8810 -0.3002
vn 0.6825 -0.4696 -0.5601
vn 0.4918 0.7715 -0.4036
vn 0.5987 -0.6326 -0.4913
vn 0.5987 0.6326 -0.4913
vn 0.4918 -0.7715 -0.4036
vn 0.6825 0.4696 -0.5601
vn 0.3658 -0.8810 -0.3002
vn 0.7786 -0.4696 -0.4162
vn 0.5611 0.7715 -0.2999
vn 0.6831 -0.6326 -0.3651
vn 0.6831 0.6326 -0.3651
vn 0.5611 -0.7715 -0.2999
vn 0.7786 0.4696 -0.4162
vn 0.4173 -0.8810 -0.2230
vn 0.8443 0.2890 -0.4513
vn 0.2571 -0.9565 -0.1374
vn 0.8777 0.0975 -0.4691
vn 0.0869 0.9951 -0.0464
vn 0.0869 -0.9951 -0.0464
vn 0.8777 -0.0975 -0.4691
vn 0.2571 0.9565 -0.1374
vn 0.8443 -0.2890 -0.4513
vn 0.4173 0.8810 -0.2230
vn 0.2790 -0.9565 -0.0846
vn 0.9524 0.0975 -0.2889
vn 0.0942 0.9951 -0.0286
vn 0.0942 -0.9951 -0.0286
vn 0.9524 -0.0975 -0.2889
vn 0.2790 0.9565 -0.0846
vn 0.9161 -0.2890 -0.2779
vn 0.4528 0.8810 -0.1374
vn 0.8448 -0.4696 -0.2563
vn 0.6088 0.7715 -0.1847
vn 0.7412 -0.6326 -0.2248
vn 0.7412 0.6326 -0.2248
vn 0.6088 -0.7715 -0.1847
vn 0.8448 0.4696 -0.2563
vn 0.4528 -0.8810 -0.1374
vn 0.9161 0.2890 -0.2779
vn 0.6332 0.7715 -0.0624
vn 0.7708 -0.6326 -0.0759
vn 0.7708 0.6326 -0.0759
vn 0.6332 -0.7715 -0.0624
vn 0.8786 0.4696 -0.0865
vn 0.4709 -0.8810 -0.0464
vn 0.9527 0.2890 -0.0938
vn 0.2902 -0.9565 -0.0286
vn 0.9904 0.0975 -0.0975
vn 0.0980 0.9951 -0.0097
vn 0.0980 -0.9951 -0.0097
vn 0.9904 -0.0975 -0.0975
vn 0.2902 0.9565 -0.0286
vn 0.9527 -0.2890 -0.0938
vn 0.4709 0.8810 -0.0464
vn 0.8786 -0.4696 -0.0865
vn 0.9904 0.0975 0.0976
vn 0.0980 0.9951 0.0097
vn 0.0980 -0.9951 0.0097
vn 0.9904 -0.0975 0.0976
vn 0.2902 0.9565 0.0286
vn 0.9527 -0.2890 0.0938
vn 0.4709 0.8810 0.0464
vn 0.8786 -0.4696 0.0865
vn 0.6332 0.7715 0.0624
vn 0.7708 -0.6326 0.0759
vn 0.7708 0.6326 0.0759
vn 0.6332 -0.7715 0.0624
vn 0.8786 0.4696 0.0865
vn 0.4709 -0.8810 0.0464
vn 0.9527 0.2890 0.0938
vn 0.2902 -0.9565 0.0286
vn 0.7412 -0.6326 0.2248
vn 0.7412 0.6326 0.2248
vn 0.6088 -0.7715 0.1847
vn 0.8448 0.4696 0.2563
vn 0.4528 -0.8810 0.1374
vn 0.9161 0.2890 0.2779
vn 0.2790 -0.9565 0.0846
vn 0.9524 0.0975 0.2889
vn 0.0942 0.9951 0.0286
vn 0.0942 -0.9951 0.0286
vn 0.9524 -0.0975 0.2889
vn 0.2790 0.9565 0.0846
vn 0.9161 -0.2890 0.2779
vn 0.4528 0.8810 0.1374
vn 0.8448 -0.4696 0.2563
vn 0.6088 0.7715 0.1847
vn 0.0869 -0.9951 0.0464
vn 0.8777 -0.0975 0.4691
vn 0.2571 0.9565 0.1374
vn 0.8443 -0.2890 0.4513
vn 0.4173 0.8810 0.2231
vn 0.7786 -0.4696 0.4162
vn 0.5611 0.7715 0.2999
vn 0.6831 -0.6326 0.3651
vn 0.6831 0.6326 0.3651
vn 0.5611 -0.7715 0.2999
vn 0.7786 0.4696 0.4162
vn 0.4173 -0.8810 0.2230
vn 0.8443 0.2890 0.4513
vn 0.2571 -0.9565 0.1374
vn 0.8777 0.0975 0.4691
vn 0.0869 0.9951 0.0464
vn 0.4918 -0.7715 0.4036
vn 0.6825 0.4696 0.5601
vn 0.3658 -0.8810 0.3002
vn 0.7400 0.2890 0.6073
vn 0.2254 -0.9565 0.1850
vn 0.7693 0.0975 0.6314
vn 0.0761 0.9951 0.0625
vn 0.0761 -0.9951 0.0625
vn 0.7693 -0.0975 0.6314
vn 0.2254 0.9565 0.1850
vn 0.7400 -0.2890 0.6073
vn 0.3658 0.8810 0.3002
vn 0.6825 -0.4696 0.5601
vn 0.4918 0.7715 0.4036
vn 0.5987 -0.6326 0.4913
vn 0.5987 0.6326 0.4913
vn 0.1850 0.9565 0.2254
vn 0.6073 -0.2890 0.7400
vn 0.3002 0.8810 0.3658
vn 0.5601 -0.4696 0.6825
vn 0.4036 0.7715 0.4918
vn 0.4913 -0.6326 0.5987
vn 0.4913 0.6326 0.5987
vn 0.4036 -0.7715 0.4918
vn 0.5601 0.4696 0.6825
vn 0.3002 -0.8810 0.3658
vn 0.6073 0.2890 0.7400
vn 0.1850 -0.9565 0.2254
vn 0.6314 0.0975 0.7693
vn 0.0625 0.9951 0.0761
vn 0.0625 -0.9951 0.0761
vn 0.6314 -0.0975 0.7693
vn 0.4162 0.4696 0.7786
vn 0.2230 -0.8810 0.4173
vn 0.4513 0.2890 0.8443
vn 0.1374 -0.9565 0.2571
vn 0.4691 0.0975 0.8777
vn 0.0464 0.9951 0.0869
vn 0.0464 -0.9951 0.0869
vn 0.4691 -0.0975 0.8777
vn 0.1374 0.9565 0.2571
vn 0.4513 -0.2890 0.8443
vn 0.2230 0.8810 0.4173
vn 0.4162 -0.4696 0.7786
vn 0.2999 0.7715 0.5611
vn 0.3651 -0.6326 0.6831
vn 0.3651 0.6326 0.6831
vn 0.2999 -0.7715 0.5611
vn 0.2779 -0.2890 0.9161
vn 0.1374 0.8810 0.4528
vn 0.2563 -0.4696 0.8448
vn 0.1847 0.7715 0.6088
vn 0.2248 -0.6326 0.7412
vn 0.2248 0.6326 0.7412
vn 0.1847 -0.7715 0.6088
vn 0.2563 0.4696 0.8448
vn 0.1374 -0.8810 0.4528
vn 0.2779 0.2890 0.9161
vn 0.0846 -0.9565 0.2790
vn 0.2889 0.0975 0.9524
vn 0.0286 0.9951 0.0942
vn 0.0286 -0.9951 0.0942
vn 0.2889 -0.0975 0.9524
vn 0.0846 0.9565 0.2790
vn 0.0464 -0.8810 0.4709
vn 0.0938 0.2890 0.9527
vn 0.0286 -0.9565 0.2902
vn 0.0975 0.0975 0.9904
vn 0.0097 0.9951 0.0980
vn 0.0097 -0.9951 0.0980
vn 0.0975 -0.0975 0.9904
vn 0.0286 0.9565 0.2902
vn 0.0938 -0.2890 0.9527
vn 0.0464 0.8810 0.4709
vn 0.0865 -0.4696 0.8786
vn 0.0624 0.7715 0.6332
vn 0.0759 -0.6326 0.7708
vn 0.0759 0.6326 0.7708
vn 0.0624 -0.7715 0.6332
vn 0.0865 0.4696 0.8786
vn -0.0464 0.8810 0.4709
vn -0.0865 -0.4696 0.8786
vn -0.0624 0.7715 0.6332
vn -0.0759 -0.6326 0.7708
vn -0.0759 0.6326 0.7708
vn -0.0624 -0.7715 0.6332
vn -0.0865 0.4696 0.8786
vn -0.0464 -0.8810 0.4709
vn -0.0938 0.2890 0.9527
vn -0.0286 -0.9565 0.2902
vn -0.0976 0.0975 0.9904
vn -0.0097 0.9951 0.0980
vn -0.0097 -0.9951 0.0980
vn -0.0975 -0.0975 0.9904
vn -0.0286 0.9565 0.2902
vn -0.0938 -0.2890 0.9527
vn -0.2779 0.2890 0.9161
vn -0.0846 -0.9565 0.2790
vn -0.2889 0.0975 0.9524
vn -0.0286 0.9951 0.0942
vn -0.0286 -0.9951 0.0942
vn -0.2889 -0.0975 0.9524
vn -0.0846 0.9565 0.2790
vn -0.2779 -0.2890 0.9161
vn -0.1374 0.8810 0.4528
vn -0.2563 -0.4696 0.8448
vn -0.1847 0.7715 0.6088
vn -0.2248 -0.6326 0.7412
vn -0.2248 0.6326 0.7412
vn -0.1847 -0.7715 0.6088
vn -0.2563 0.4696 0.8448
vn -0.1374 -0.8810 0.4528
vn -0.4162 -0.4696 0.7786
vn -0.2999 0.7715 0.5611
vn -0.3651 -0.6326 0.6831
vn -0.3651 0.6326 0.6831
vn -0.2999 -0.7715 0.5611
vn -0.4162 0.4696 0.7786
vn -0.2230 -0.8810 0.4173
vn -0.4513 0.2890 0.8443
vn -0.1374 -0.9565 0.2571
vn -0.4691 0.0975 0.8777
vn -0.0464 0.9951 0.0869
vn -0.0464 -0.9951 0.0869
vn -0.4691 -0.0975 0.8777
vn -0.1374 0.9565 0.2571
vn -0.4513 -0.2890 0.8443
vn -0.2230 0.8810 0.4173
vn -0.1850 -0.9565 0.2254
vn -0.6314 0.0975 0.7693
vn -0.0625 0.9951 0.0761
vn -0.0625 -0.9951 0.0761
vn -0.6314 -0.0975 0.7693
vn -0.1850 0.9565 0.2254
vn -0.6073 -0.2890 0.7400
vn -0.3002 0.8810 0.3658
vn -0.5601 -0.4696 0.6825
vn -0.4036 0.7715 0.4918
vn -0.4913 -0.6326 0.5987
vn -0.4913 0.6326 0.5987
vn -0.4036 -0.7715 0.4918
vn -0.5601 0.4696 0.6825
vn -0.3002 -0.8810 0.3658
vn -0.6073 0.2890 0.7400
vn -0.5987 -0.6326 0.4913
vn -0.5987 0.6326 0.4913
vn -0.4918 -0.7715 0.4036
vn -0.6825 0.4696 0.5601
vn -0.3658 -0.8810 0.3002
vn -0.7400 0.2890 0.6073
vn -0.2254 -0.9566 0.1850
vn -0.7693 0.0975 0.6314
vn -0.0761 0.9951 0.0625
vn -0.0761 -0.9951 0.0625
vn -0.7693 -0.0975 0.6314
vn -0.2254 0.9565 0.1850
vn -0.7400 -0.2890 0.6073
vn -0.3658 0.8810 0.3002
vn -0.6825 -0.4696 0.5601
vn -0.4918 0.7715 0.4036
vn -0.0869 0.9951 0.0464
vn -0.0869 -0.9951 0.0464
vn -0.8777 -0.0975 0.4691
vn -0.2571 0.9565 0.1374
vn -0.8443 -0.2890 0.4513
vn -0.4173 0.8810 0.2230
vn -0.7786 -0.4696 0.4162
vn -0.5611 0.7715 0.2999
vn -0.6831 -0.6326 0.3651
vn -0.6831 0.6326 0.3651
vn -0.5611 -0.7715 0.2999
vn -0.7786 0.4696 0.4162
vn -0.4173 -0.8810 0.2231
vn -0.8443 0.2890 0.4513
vn -0.2571 -0.9565 0.1374
vn -0.8777 0.0975 0.4691
vn -0.7412 0.6326 0.2248
vn -0.6088 -0.7715 0.1847
vn -0.8448 0.4696 0.2563
vn -0.4528 -0.8810 0.1374
vn -0.9161 0.2890 0.2779
vn -0.2790 -0.9565 0.0846
vn -0.9524 0.0975 0.2889
vn -0.0942 0.9951 0.0286
vn -0.0942 -0.9951 0.0286
vn -0.9524 -0.0975 0.2889
vn -0.2790 0.9565 0.0846
vn -0.9161 -0.2890 0.2779
vn -0.4528 0.8810 0.1374
vn -0.8448 -0.4696 0.2563
vn -0.6088 0.7715 0.1847
vn -0.7412 -0.6326 0.2248
vn -0.9904 -0.0975 0.0976
vn -0.2902 0.9565 0.0286
vn -0.9527 -0.2890 0.0938
vn -0.4709 0.8810 0.0464
vn -0.8786 -0.4696 0.0865
vn -0.6332 0.7715 0.0624
vn -0.7708 -0.6326 0.0759
vn -0.7708 0.6326 0.0759
vn -0.6332 -0.7715 0.0624
vn -0.8786 0.4696 0.0865
vn -0.4709 -0.8810 0.0464
vn -0.9527 0.2890 0.0938
vn -0.2902 -0.9565 0.0286
vn -0.9904 0.0975 0.0975
vn -0.0980 0.9951 0.0097
vn -0.0980 -0.9951 0.0097
vn -0.6332 -0.7715 -0.0624
vn -0.8786 0.4696 -0.0865
vn -0.4709 -0.8810 -0.0464
vn -0.9527 0.2890 -0.0938
vn -0.2902 -0.9565 -0.0286
vn -0.9904 0.0975 -0.0975
vn -0.0980 0.9951 -0.0097
vn -0.0980 -0.9951 -0.0097
vn -0.9904 -0.0975 -0.0976
vn -0.2902 0.9565 -0.0286
vn -0.9527 -0.2890 -0.0938
vn -0.4709 0.8810 -0.0464
vn -0.8786 -0.4696 -0.0865
vn -0.6332 0.7715 -0.0624
vn -0.7708 -0.6326 -0.0759
vn -0.7708 0.6326 -0.0759
vn -0.2790 0.9565 -0.0846
vn -0.9161 -0.2890 -0.2779
vn -0.4528 0.8810 -0.1374
vn -0.8448 -0.4696 -0.2563
vn -0.6088 0.7715 -0.1847
vn -0.7412 -0.6326 -0.2248
vn -0.7412 0.6326 -0.2248
vn -0.6088 -0.7715 -0.1847
vn -0.8448 0.4696 -0.2563
vn -0.4528 -0.8810 -0.1374
vn -0.9161 0.2890 -0.2779
vn -0.2790 -0.9565 -0.0846
vn -0.9524 0.0975 -0.2889
vn -0.0942 0.9951 -0.0286
vn -0.0942 -0.9951 -0.0286
vn -0.9524 -0.0975 -0.2889
vn -0.7786 0.4696 -0.4162
vn -0.4173 -0.8810 -0.2231
vn -0.8443 0.2890 -0.4513
vn -0.2571 -0.9565 -0.1374
vn -0.8777 0.0975 -0.4691
vn -0.0869 0.9951 -0.0464
vn -0.0869 -0.9951 -0.0464
vn -0.8777 -0.0975 -0.4691
vn -0.2571 0.9565 -0.1374
vn -0.8443 -0.2890 -0.4513
vn -0.4173 0.8810 -0.2231
vn -0.7786 -0.4696 -0.4162
vn -0.5611 0.7715 -0.2999
vn -0.6831 -0.6326 -0.3651
vn -0.6831 0.6326 -0.3651
vn -0.5611 -0.7715 -0.2999
vn -0.7400 -0.2890 -0.6073
vn -0.3658 0.8810 -0.3002
vn -0.6825 -0.4696 -0.5601
vn -0.4918 0.7715 -0.4036
vn -0.5987 -0.6326 -0.4913
vn -0.5987 0.6326 -0.4913
vn -0.4918 -0.7715 -0.4036
vn -0.6825 0.4696 -0.5601
vn -0.3658 -0.8810 -0.3002
vn -0.7400 0.2890 -0.6073
vn -0.2254 -0.9565 -0.1850
vn -0.7693 0.0975 -0.6314
vn -0.0761 0.9951 -0.0625
vn -0.0761 -0.9951 -0.0625
vn -0.7693 -0.0975 -0.6314
vn -0.2254 0.9565 -0.1850
vn -0.3002 -0.8810 -0.3658
vn -0.6073 0.2890 -0.7400
vn -0.1850 -0.9565 -0.2254
vn -0.6314 0.0975 -0.7693
vn -0.0625 0.9951 -0.0761
vn -0.0625 -0.9951 -0.0761
vn -0.6314 -0.0975 -0.7693
vn -0.1850 0.9565 -0.2254
vn -0.6073 -0.2890 -0.7400
vn -0.3002 0.8810 -0.3658
vn -0.5601 -0.4696 -0.6825
vn -0.4036 0.7715 -0.4918
vn -0.4913 -0.6326 -0.5987
vn -0.4913 0.6326 -0.5987
vn -0.4036 -0.7715 -0.4918
vn -0.5601 0.4696 -0.6825
vn -0.4162 -0.4696 -0.7786
vn -0.2999 0.7715 -0.5611
vn -0.3651 -0.6326 -0.6831
vn -0.3651 0.6326 -0.6831
vn -0.2999 -0.7715 -0.5611
vn -0.4162 0.4696 -0.7786
vn -0.2230 -0.8810 -0.4173
vn -0.4513 0.2890 -0.8443
vn -0.1374 -0.9565 -0.2571
vn -0.4691 0.0975 -0.8777
vn -0.0464 0.9951 -0.0869
vn -0.0464 -0.9951 -0.0869
vn -0.4691 -0.0975 -0.8777
vn -0.1374 0.9565 -0.2571
vn -0.4513 -0.2890 -0.8443
vn -0.2230 0.8810 -0.4173
vn -0.0846 -0.9565 -0.2790
vn -0.2889 0.0975 -0.9524
vn -0.0286 0.9951 -0.0942
vn -0.0286 -0.9951 -0.0942
vn -0.2889 -0.0975 -0.9524
vn -0.0846 0.9565 -0.2790
vn -0.2779 -0.2890 -0.9161
vn -0.1374 0.8810 -0.4528
vn -0.2563 -0.4696 -0.8448
vn -0.1847 0.7715 -0.6088
vn -0.2248 -0.6326 -0.7412
vn -0.2248 0.6326 -0.7412
vn -0.1847 -0.7715 -0.6088
vn -0.2563 0.4696 -0.8448
vn -0.1374 -0.8810 -0.4528
vn -0.2779 0.2890 -0.9161
vn -0.0624 0.7715 -0.6332
vn -0.0759 -0.6326 -0.7708
vn -0.0759 0.6326 -0.7708
vn -0.0624 -0.7715 -0.6332
vn -0.0865 0.4696 -0.8786
vn -0.0464 -0.8810 -0.4709
vn -0.0938 0.2890 -0.9527
vn -0.0286 -0.9565 -0.2902
vn -0.0976 0.0975 -0.9904
vn -0.0097 0.9951 -0.0980
vn -0.0097 -0.9951 -0.0980
vn -0.0976 -0.0975 -0.9904
vn -0.0286 0.9565 -0.2902
vn -0.0938 -0.2890 -0.9527
vn -0.0464 0.8810 -0.4709
vn -0.0865 -0.4696 -0.8786
vn 0.0975 0.0976 -0.9904
vn 0.0975 -0.0975 -0.9904
vn 0.2231 -0.8810 -0.4173
vn 0.2230 0.8810 -0.4173
vn 0.2254 -0.9565 -0.1850
vn 0.4173 0.8810 0.2230
vn 0.4173 -0.8810 0.2231
vn 0.2231 -0.8810 0.4173
vn -0.0975 0.0975 0.9904
vn -0.0976 -0.0975 0.9904
vn -0.2231 -0.8810 0.4173
vn -0.2231 0.8810 0.4173
vn -0.2254 -0.9565 0.1850
vn -0.4173 -0.8810 0.2230
vn -0.9904 -0.0975 0.0975
vn -0.9904 0.0975 0.0976
vn -0.9904 0.0975 -0.0976
vn -0.9904 -0.0975 -0.0975
vt 0.750000 0.375000
vt 0.718750 0.312500
vt 0.750000 0.312500
vt 0.750000 0.750000
vt 0.718750 0.812500
vt 0.718750 0.750000
vt 0.718750 0.250000
vt 0.750000 0.250000
vt 0.750000 0.687500
vt 0.718750 0.687500
vt 0.718750 0.187500
vt 0.750000 0.187500
vt 0.750000 0.625000
vt 0.718750 0.625000
vt 0.718750 0.125000
vt 0.750000 0.125000
vt 0.750000 0.562500
vt 0.718750 0.562500
vt 0.718750 0.062500
vt 0.750000 0.062500
vt 0.718750 0.500000
vt 0.750000 0.500000
vt 0.750000 0.937500
vt 0.734375 1.000000
vt 0.718750 0.937500
vt 0.734375 0.000000
vt 0.718750 0.437500
vt 0.750000 0.437500
vt 0.750000 0.875000
vt 0.718750 0.875000
vt 0.718750 0.375000
vt 0.750000 0.812500
vt 0.687500 0.375000
vt 0.687500 0.812500
vt 0.687500 0.312500
vt 0.687500 0.750000
vt 0.687500 0.250000
vt 0.687500 0.687500
vt 0.687500 0.187500
vt 0.687500 0.625000
vt 0.687500 0.125000
vt 0.687500 0.562500
vt 0.687500 0.062500
vt 0.687500 0.500000
vt 0.703125 1.000000
vt 0.687500 0.937500
vt 0.703125 0.000000
vt 0.687500 0.437500
vt 0.687500 0.875000
vt 0.656250 0.125000
vt 0.656250 0.562500
vt 0.656250 0.062500
vt 0.656250 0.500000
vt 0.671875 1.000000
vt 0.656250 0.937500
vt 0.671875 0.000000
vt 0.656250 0.437500
vt 0.656250 0.875000
vt 0.656250 0.375000
vt 0.656250 0.812500
vt 0.656250 0.312500
vt 0.656250 0.750000
vt 0.656250 0.250000
vt 0.656250 0.687500
vt 0.656250 0.187500
vt 0.656250 0.625000
vt 0.625000 0.812500
vt 0.625000 0.375000
vt 0.625000 0.312500
vt 0.625000 0.750000
vt 0.625000 0.250000
vt 0.625000 0.687500
vt 0.625000 0.187500
vt 0.625000 0.625000
vt 0.625000 0.125000
vt 0.625000 0.562500
vt 0.625000 0.062500
vt 0.625000 0.500000
vt 0.640625 1.000000
vt 0.625000 0.937500
vt 0.640625 0.000000
vt 0.625000 0.437500
vt 0.625000 0.875000
vt 0.593750 0.625000
vt 0.593750 0.562500
vt 0.593750 0.062500
vt 0.593750 0.500000
vt 0.609375 1.000000
vt 0.593750 0.937500
vt 0.609375 0.000000
vt 0.593750 0.437500
vt 0.593750 0.875000
vt 0.593750 0.375000
vt 0.593750 0.812500
vt 0.593750 0.312500
vt 0.593750 0.750000
vt 0.593750 0.250000
vt 0.593750 0.687500
vt 0.593750 0.187500
vt 0.593750 0.125000
vt 0.562500 0.375000
vt 0.562500 0.312500
vt 0.562500 0.750000
vt 0.562500 0.250000
vt 0.562500 0.687500
vt 0.562500 0.187500
vt 0.562500 0.625000
vt 0.562500 0.125000
vt 0.562500 0.562500
vt 0.562500 0.062500
vt 0.562500 0.500000
vt 0.578125 1.000000
vt 0.562500 0.937500
vt 0.578125 0.000000
vt 0.562500 0.437500
vt 0.562500 0.875000
vt 0.562500 0.812500
vt 0.531250 0.062500
vt 0.531250 0.562500
vt 0.531250 0.500000
vt 0.546875 1.000000
vt 0.531250 0.937500
vt 0.546875 0.000000
vt 0.531250 0.437500
vt 0.531250 0.875000
vt 0.531250 0.375000
vt 0.531250 0.812500
vt 0.531250 0.312500
vt 0.531250 0.750000
vt 0.531250 0.250000
vt 0.531250 0.687500
vt 0.531250 0.187500
vt 0.531250 0.625000
vt 0.531250 0.125000
vt 0.500000 0.750000
vt 0.500000 0.250000
vt 0.500000 0.687500
vt 0.500000 0.187500
vt 0.500000 0.625000
vt 0.500000 0.125000
vt 0.500000 0.562500
vt 0.500000 0.062500
vt 0.500000 0.500000
vt 0.515625 1.000000
vt 0.500000 0.937500
vt 0.515625 0.000000
vt 0.500000 0.437500
vt 0.500000 0.875000
vt 0.500000 0.375000
vt 0.500000 0.812500
vt 0.500000 0.312500
vt 0.468750 0.562500
vt 0.468750 0.500000
vt 0.484375 1.000000
vt 0.468750 0.937500
vt 0.484375 0.000000
vt 0.468750 0.062500
vt 0.468750 0.437500
vt 0.468750 0.875000
vt 0.468750 0.375000
vt 0.468750 0.812500
vt 0.468750 0.312500
vt 0.468750 0.750000
vt 0.468750 0.250000
vt 0.468750 0.687500
vt 0.468750 0.187500
vt 0.468750 0.625000
vt 0.468750 0.125000
vt 0.437500 0.250000
vt 0.437500 0.750000
vt 0.437500 0.687500
vt 0.437500 0.187500
vt 0.437500 0.625000
vt 0.437500 0.125000
vt 0.437500 0.562500
vt 0.437500 0.062500
vt 0.437500 0.500000
vt 0.453125 1.000000
vt 0.437500 0.937500
vt 0.453125 0.000000
vt 0.437500 0.437500
vt 0.437500 0.875000
vt 0.437500 0.375000
vt 0.437500 0.812500
vt 0.437500 0.312500
vt 0.421875 0.000000
vt 0.406250 0.062500
vt 0.406250 0.437500
vt 0.406250 0.875000
vt 0.406250 0.375000
vt 0.406250 0.812500
vt 0.406250 0.312500
vt 0.406250 0.750000
vt 0.406250 0.250000
vt 0.406250 0.687500
vt 0.406250 0.187500
vt 0.406250 0.625000
vt 0.406250 0.125000
vt 0.406250 0.562500
vt 0.406250 0.500000
vt 0.421875 1.000000
vt 0.406250 0.937500
vt 0.375000 0.187500
vt 0.375000 0.625000
vt 0.375000 0.125000
vt 0.375000 0.562500
vt 0.375000 0.062500
vt 0.375000 0.500000
vt 0.390625 1.000000
vt 0.375000 0.937500
vt 0.390625 0.000000
vt 0.375000 0.437500
vt 0.375000 0.875000
vt 0.375000 0.375000
vt 0.375000 0.812500
vt 0.375000 0.312500
vt 0.375000 0.750000
vt 0.375000 0.250000
vt 0.375000 0.687500
vt 0.343750 0.937500
vt 0.343750 0.875000
vt 0.343750 0.375000
vt 0.343750 0.812500
vt 0.343750 0.312500
vt 0.343750 0.750000
vt 0.343750 0.250000
vt 0.343750 0.687500
vt 0.343750 0.187500
vt 0.343750 0.625000
vt 0.343750 0.125000
vt 0.343750 0.562500
vt 0.343750 0.062500
vt 0.343750 0.500000
vt 0.359375 1.000000
vt 0.359375 0.000000
vt 0.343750 0.437500
vt 0.312500 0.625000
vt 0.312500 0.125000
vt 0.312500 0.562500
vt 0.312500 0.062500
vt 0.312500 0.500000
vt 0.328125 1.000000
vt 0.312500 0.937500
vt 0.328125 0.000000
vt 0.312500 0.437500
vt 0.312500 0.875000
vt 0.312500 0.375000
vt 0.312500 0.812500
vt 0.312500 0.312500
vt 0.312500 0.750000
vt 0.312500 0.250000
vt 0.312500 0.687500
vt 0.312500 0.187500
vt 0.281250 0.375000
vt 0.281250 0.812500
vt 0.281250 0.312500
vt 0.281250 0.750000
vt 0.281250 0.250000
vt 0.281250 0.687500
vt 0.281250 0.187500
vt 0.281250 0.625000
vt 0.281250 0.125000
vt 0.281250 0.562500
vt 0.281250 0.062500
vt 0.281250 0.500000
vt 0.296875 1.000000
vt 0.281250 0.937500
vt 0.296875 0.000000
vt 0.281250 0.437500
vt 0.281250 0.875000
vt 0.250000 0.125000
vt 0.250000 0.625000
vt 0.250000 0.562500
vt 0.250000 0.062500
vt 0.250000 0.500000
vt 0.265625 1.000000
vt 0.250000 0.937500
vt 0.265625 0.000000
vt 0.250000 0.437500
vt 0.250000 0.875000
vt 0.250000 0.375000
vt 0.250000 0.812500
vt 0.250000 0.312500
vt 0.250000 0.750000
vt 0.250000 0.250000
vt 0.250000 0.687500
vt 0.250000 0.187500
vt 0.218750 0.812500
vt 0.218750 0.375000
vt 0.218750 0.312500
vt 0.218750 0.750000
vt 0.218750 0.250000
vt 0.218750 0.687500
vt 0.218750 0.187500
vt 0.218750 0.625000
vt 0.218750 0.125000
vt 0.218750 0.562500
vt 0.218750 0.062500
vt 0.218750 0.500000
vt 0.234375 1.000000
vt 0.218750 0.937500
vt 0.234375 0.000000
vt 0.218750 0.437500
vt 0.218750 0.875000
vt 0.187500 0.625000
vt 0.187500 0.562500
vt 0.187500 0.062500
vt 0.187500 0.500000
vt 0.203125 1.000000
vt 0.187500 0.937500
vt 0.203125 0.000000
vt 0.187500 0.437500
vt 0.187500 0.875000
vt 0.187500 0.375000
vt 0.187500 0.812500
vt 0.187500 0.312500
vt 0.187500 0.750000
vt 0.187500 0.250000
vt 0.187500 0.687500
vt 0.187500 0.187500
vt 0.187500 0.125000
vt 0.156250 0.375000
vt 0.156250 0.312500
vt 0.156250 0.750000
vt 0.156250 0.250000
vt 0.156250 0.687500
vt 0.156250 0.187500
vt 0.156250 0.625000
vt 0.156250 0.125000
vt 0.156250 0.562500
vt 0.156250 0.062500
vt 0.156250 0.500000
vt 0.171875 1.000000
vt 0.156250 0.937500
vt 0.171875 0.000000
vt 0.156250 0.437500
vt 0.156250 0.875000
vt 0.156250 0.812500
vt 0.125000 0.125000
vt 0.125000 0.062500
vt 0.125000 0.562500
vt 0.125000 0.500000
vt 0.140625 1.000000
vt 0.125000 0.937500
vt 0.140625 0.000000
vt 0.125000 0.437500
vt 0.125000 0.875000
vt 0.125000 0.375000
vt 0.125000 0.812500
vt 0.125000 0.312500
vt 0.125000 0.750000
vt 0.125000 0.250000
vt 0.125000 0.687500
vt 0.125000 0.187500
vt 0.125000 0.625000
vt 0.093750 0.250000
vt 0.093750 0.750000
vt 0.093750 0.687500
vt 0.093750 0.187500
vt 0.093750 0.625000
vt 0.093750 0.125000
vt 0.093750 0.562500
vt 0.093750 0.062500
vt 0.093750 0.500000
vt 0.109375 1.000000
vt 0.093750 0.937500
vt 0.109375 0.000000
vt 0.093750 0.437500
vt 0.093750 0.875000
vt 0.093750 0.375000
vt 0.093750 0.812500
vt 0.093750 0.312500
vt 0.078125 1.000000
vt 0.062500 0.937500
vt 0.078125 0.000000
vt 0.062500 0.062500
vt 0.062500 0.437500
vt 0.062500 0.875000
vt 0.062500 0.375000
vt 0.062500 0.812500
vt 0.062500 0.312500
vt 0.062500 0.750000
vt 0.062500 0.250000
vt 0.062500 0.687500
vt 0.062500 0.187500
vt 0.062500 0.625000
vt 0.062500 0.125000
vt 0.062500 0.562500
vt 0.062500 0.500000
vt 0.031250 0.750000
vt 0.031250 0.687500
vt 0.031250 0.250000
vt 0.031250 0.187500
vt 0.031250 0.625000
vt 0.031250 0.125000
vt 0.031250 0.562500
vt 0.031250 0.062500
vt 0.031250 0.500000
vt 0.046875 1.000000
vt 0.031250 0.937500
vt 0.046875 0.000000
vt 0.031250 0.437500
vt 0.031250 0.875000
vt 0.031250 0.375000
vt 0.031250 0.812500
vt 0.031250 0.312500
vt 0.000000 0.437500
vt 0.000000 0.875000
vt 0.000000 0.375000
vt 0.000000 0.812500
vt 0.000000 0.312500
vt 0.000000 0.750000
vt 0.000000 0.250000
vt 0.000000 0.687500
vt 0.000000 0.187500
vt 0.000000 0.625000
vt 0.000000 0.125000
vt 0.000000 0.562500
vt 0.000000 0.062500
vt 0.000000 0.500000
vt 0.015625 1.000000
vt 0.000000 0.937500
vt 0.015625 0.000000
vt 1.000000 0.187500
vt 0.968750 0.250000
vt 0.968750 0.187500
vt 1.000000 0.687500
vt 0.968750 0.625000
vt 1.000000 0.625000
vt 0.968750 0.125000
vt 1.000000 0.125000
vt 1.000000 0.562500
vt 0.968750 0.562500
vt 0.968750 0.062500
vt 1.000000 0.062500
vt 1.000000 0.500000
vt 0.968750 0.500000
vt 1.000000 0.937500
vt 0.984375 1.000000
vt 0.968750 0.937500
vt 0.984375 0.000000
vt 0.968750 0.437500
vt 1.000000 0.437500
vt 0.968750 0.875000
vt 1.000000 0.875000
vt 0.968750 0.375000
vt 1.000000 0.375000
vt 1.000000 0.812500
vt 0.968750 0.812500
vt 1.000000 0.312500
vt 0.968750 0.312500
vt 0.968750 0.750000
vt 1.000000 0.750000
vt 1.000000 0.250000
vt 0.968750 0.687500
vt 0.937500 0.875000
vt 0.937500 0.375000
vt 0.937500 0.812500
vt 0.937500 0.312500
vt 0.937500 0.750000
vt 0.937500 0.250000
vt 0.937500 0.687500
vt 0.937500 0.187500
vt 0.937500 0.625000
vt 0.937500 0.125000
vt 0.937500 0.562500
vt 0.937500 0.062500
vt 0.937500 0.500000
vt 0.953125 1.000000
vt 0.937500 0.937500
vt 0.953125 0.000000
vt 0.937500 0.437500
vt 0.906250 0.625000
vt 0.906250 0.187500
vt 0.906250 0.125000
vt 0.906250 0.562500
vt 0.906250 0.062500
vt 0.906250 0.500000
vt 0.921875 1.000000
vt 0.906250 0.937500
vt 0.921875 0.000000
vt 0.906250 0.437500
vt 0.906250 0.875000
vt 0.906250 0.375000
vt 0.906250 0.812500
vt 0.906250 0.312500
vt 0.906250 0.750000
vt 0.906250 0.250000
vt 0.906250 0.687500
vt 0.875000 0.375000
vt 0.875000 0.875000
vt 0.875000 0.812500
vt 0.875000 0.312500
vt 0.875000 0.750000
vt 0.875000 0.250000
vt 0.875000 0.687500
vt 0.875000 0.187500
vt 0.875000 0.625000
vt 0.875000 0.125000
vt 0.875000 0.562500
vt 0.875000 0.062500
vt 0.875000 0.500000
vt 0.890625 1.000000
vt 0.875000 0.937500
vt 0.890625 0.000000
vt 0.875000 0.437500
vt 0.843750 0.125000
vt 0.843750 0.625000
vt 0.843750 0.562500
vt 0.843750 0.062500
vt 0.843750 0.500000
vt 0.859375 1.000000
vt 0.843750 0.937500
vt 0.859375 0.000000
vt 0.843750 0.437500
vt 0.843750 0.875000
vt 0.843750 0.375000
vt 0.843750 0.812500
vt 0.843750 0.312500
vt 0.843750 0.750000
vt 0.843750 0.250000
vt 0.843750 0.687500
vt 0.843750 0.187500
vt 0.812500 0.375000
vt 0.812500 0.312500
vt 0.812500 0.750000
vt 0.812500 0.250000
vt 0.812500 0.687500
vt 0.812500 0.187500
vt 0.812500 0.625000
vt 0.812500 0.125000
vt 0.812500 0.562500
vt 0.812500 0.062500
vt 0.812500 0.500000
vt 0.828125 1.000000
vt 0.812500 0.937500
vt 0.828125 0.000000
vt 0.812500 0.437500
vt 0.812500 0.875000
vt 0.812500 0.812500
vt 0.781250 0.125000
vt 0.781250 0.062500
vt 0.781250 0.562500
vt 0.781250 0.500000
vt 0.796875 1.000000
vt 0.781250 0.937500
vt 0.796875 0.000000
vt 0.781250 0.437500
vt 0.781250 0.875000
vt 0.781250 0.375000
vt 0.781250 0.812500
vt 0.781250 0.312500
vt 0.781250 0.750000
vt 0.781250 0.250000
vt 0.781250 0.687500
vt 0.781250 0.187500
vt 0.781250 0.625000
vt 0.765625 1.000000
vt 0.765625 0.000000
s 0
f 478/1/1 19/2/1 7/3/1
f 476/4/2 11/5/2 12/6/2
f 7/3/3 20/7/3 479/8/3
f 3/9/4 12/6/4 13/10/4
f 479/8/5 21/11/5 480/12/5
f 477/13/6 13/10/6 14/14/6
f 480/12/7 22/15/7 481/16/7
f 4/17/8 14/14/8 15/18/8
f 481/16/9 23/19/9 482/20/9
f 4/17/10 16/21/10 5/22/10
f 474/23/11 1/24/11 9/25/11
f 8/26/12 482/20/12 23/19/12
f 5/22/13 17/27/13 6/28/13
f 475/29/14 9/25/14 10/30/14
f 6/28/15 18/31/15 478/1/15
f 2/32/16 10/30/16 11/5/16
f 17/27/17 33/33/17 18/31/17
f 10/30/18 26/34/18 11/5/18
f 18/31/19 34/35/19 19/2/19
f 11/5/20 27/36/20 12/6/20
f 19/2/21 35/37/21 20/7/21
f 12/6/22 28/38/22 13/10/22
f 21/11/23 35/37/23 36/39/23
f 13/10/24 29/40/24 14/14/24
f 22/15/25 36/39/25 37/41/25
f 15/18/26 29/40/26 30/42/26
f 22/15/27 38/43/27 23/19/27
f 15/18/28 31/44/28 16/21/28
f 9/25/29 1/45/29 24/46/29
f 8/47/30 23/19/30 38/43/30
f 16/21/31 32/48/31 17/27/31
f 9/25/32 25/49/32 10/30/32
f 36/39/33 52/50/33 37/41/33
f 29/40/34 45/51/34 30/42/34
f 37/41/35 53/52/35 38/43/35
f 30/42/36 46/53/36 31/44/36
f 24/46/37 1/54/37 39/55/37
f 8/56/38 38/43/38 53/52/38
f 32/48/39 46/53/39 47/57/39
f 24/46/40 40/58/40 25/49/40
f 32/48/41 48/59/41 33/33/41
f 25/49/42 41/60/42 26/34/42
f 34/35/43 48/59/43 49/61/43
f 26/34/44 42/62/44 27/36/44
f 35/37/45 49/61/45 50/63/45
f 27/36/46 43/64/46 28/38/46
f 36/39/47 50/63/47 51/65/47
f 28/38/48 44/66/48 29/40/48
f 40/58/49 56/67/49 41/60/49
f 49/61/50 63/68/50 64/69/50
f 41/60/51 57/70/51 42/62/51
f 49/61/52 65/71/52 50/63/52
f 42/62/53 58/72/53 43/64/53
f 50/63/54 66/73/54 51/65/54
f 43/64/55 59/74/55 44/66/55
f 51/65/56 67/75/56 52/50/56
f 45/51/57 59/74/57 60/76/57
f 52/50/58 68/77/58 53/52/58
f 46/53/59 60/76/59 61/78/59
f 39/55/60 1/79/60 54/80/60
f 8/81/61 53/52/61 68/77/61
f 46/53/62 62/82/62 47/57/62
f 39/55/63 55/83/63 40/58/63
f 47/57/64 63/68/64 48/59/64
f 60/76/65 74/84/65 75/85/65
f 67/75/66 83/86/66 68/77/66
f 61/78/67 75/85/67 76/87/67
f 54/80/68 1/88/68 69/89/68
f 8/90/69 68/77/69 83/86/69
f 61/78/70 77/91/70 62/82/70
f 54/80/71 70/92/71 55/83/71
f 62/82/72 78/93/72 63/68/72
f 55/83/73 71/94/73 56/67/73
f 64/69/74 78/93/74 79/95/74
f 56/67/75 72/96/75 57/70/75
f 64/69/76 80/97/76 65/71/76
f 58/72/77 72/96/77 73/98/77
f 65/71/78 81/99/78 66/73/78
f 58/72/79 74/84/79 59/74/79
f 67/75/80 81/99/80 82/100/80
f 79/95/81 93/101/81 94/102/81
f 71/94/82 87/103/82 72/96/82
f 79/95/83 95/104/83 80/97/83
f 73/98/84 87/103/84 88/105/84
f 80/97/85 96/106/85 81/99/85
f 73/98/86 89/107/86 74/84/86
f 81/99/87 97/108/87 82/100/87
f 75/85/88 89/107/88 90/109/88
f 83/86/89 97/108/89 98/110/89
f 76/87/90 90/109/90 91/111/90
f 69/89/91 1/112/91 84/113/91
f 8/114/92 83/86/92 98/110/92
f 76/87/93 92/115/93 77/91/93
f 69/89/94 85/116/94 70/92/94
f 77/91/95 93/101/95 78/93/95
f 70/92/96 86/117/96 71/94/96
f 97/108/97 113/118/97 98/110/97
f 91/111/98 105/119/98 106/120/98
f 84/113/99 1/121/99 99/122/99
f 8/123/100 98/110/100 113/118/100
f 91/111/101 107/124/101 92/115/101
f 85/116/102 99/122/102 100/125/102
f 92/115/103 108/126/103 93/101/103
f 85/116/104 101/127/104 86/117/104
f 94/102/105 108/126/105 109/128/105
f 86/117/106 102/129/106 87/103/106
f 94/102/107 110/130/107 95/104/107
f 88/105/108 102/129/108 103/131/108
f 96/106/109 110/130/109 111/132/109
f 88/105/110 104/133/110 89/107/110
f 97/108/111 111/132/111 112/134/111
f 90/109/112 104/133/112 105/119/112
f 101/127/113 117/135/113 102/129/113
f 109/128/114 125/136/114 110/130/114
f 103/131/115 117/135/115 118/137/115
f 111/132/116 125/136/116 126/138/116
f 103/131/117 119/139/117 104/133/117
f 111/132/118 127/140/118 112/134/118
f 105/119/119 119/139/119 120/141/119
f 112/134/120 128/142/120 113/118/120
f 106/120/121 120/141/121 121/143/121
f 99/122/122 1/144/122 114/145/122
f 8/146/123 113/118/123 128/142/123
f 106/120/124 122/147/124 107/124/124
f 100/125/125 114/145/125 115/148/125
f 107/124/126 123/149/126 108/126/126
f 100/125/127 116/150/127 101/127/127
f 109/128/128 123/149/128 124/151/128
f 121/143/129 135/152/129 136/153/129
f 114/145/130 1/154/130 129/155/130
f 8/156/131 128/142/131 143/157/131
f 121/143/132 137/158/132 122/147/132
f 114/145/133 130/159/133 115/148/133
f 122/147/134 138/160/134 123/149/134
f 115/148/135 131/161/135 116/150/135
f 124/151/136 138/160/136 139/162/136
f 116/150/137 132/163/137 117/135/137
f 124/151/138 140/164/138 125/136/138
f 118/137/139 132/163/139 133/165/139
f 126/138/140 140/164/140 141/166/140
f 118/137/141 134/167/141 119/139/141
f 126/138/142 142/168/142 127/140/142
f 120/141/143 134/167/143 135/152/143
f 127/140/144 143/157/144 128/142/144
f 139/162/145 155/169/145 140/164/145
f 133/165/146 147/170/146 148/171/146
f 141/166/147 155/169/147 156/172/147
f 133/165/148 149/173/148 134/167/148
f 141/166/149 157/174/149 142/168/149
f 135/152/150 149/173/150 150/175/150
f 143/157/151 157/174/151 158/176/151
f 136/153/152 150/175/152 151/177/152
f 129/155/153 1/178/153 144/179/153
f 8/180/154 143/157/154 158/176/154
f 136/153/155 152/181/155 137/158/155
f 129/155/156 145/182/156 130/159/156
f 137/158/157 153/183/157 138/160/157
f 131/161/158 145/182/158 146/184/158
f 139/162/159 153/183/159 154/185/159
f 131/161/160 147/170/160 132/163/160
f 8/186/161 158/176/161 173/187/161
f 151/177/162 167/188/162 152/181/162
f 144/179/163 160/189/163 145/182/163
f 152/181/164 168/190/164 153/183/164
f 146/184/165 160/189/165 161/191/165
f 154/185/166 168/190/166 169/192/166
f 146/184/167 162/193/167 147/170/167
f 154/185/168 170/194/168 155/169/168
f 148/171/169 162/193/169 163/195/169
f 156/172/170 170/194/170 171/196/170
f 148/171/171 164/197/171 149/173/171
f 156/172/172 172/198/172 157/174/172
f 150/175/173 164/197/173 165/199/173
f 157/174/174 173/187/174 158/176/174
f 151/177/175 165/199/175 166/200/175
f 144/179/176 1/201/176 159/202/176
f 170/194/177 186/203/177 171/196/177
f 163/195/178 179/204/178 164/197/178
f 172/198/179 186/203/179 187/205/179
f 165/199/180 179/204/180 180/206/180
f 173/187/181 187/205/181 188/207/181
f 166/200/182 180/206/182 181/208/182
f 159/202/183 1/209/183 174/210/183
f 8/211/184 173/187/184 188/207/184
f 166/200/185 182/212/185 167/188/185
f 159/202/186 175/213/186 160/189/186
f 167/188/187 183/214/187 168/190/187
f 160/189/188 176/215/188 161/191/188
f 169/192/189 183/214/189 184/216/189
f 161/191/190 177/217/190 162/193/190
f 169/192/191 185/218/191 170/194/191
f 163/195/192 177/217/192 178/219/192
f 175/213/193 189/220/193 190/221/193
f 182/212/194 198/222/194 183/214/194
f 176/215/195 190/221/195 191/223/195
f 184/216/196 198/222/196 199/224/196
f 176/215/197 192/225/197 177/217/197
f 184/216/198 200/226/198 185/218/198
f 178/219/199 192/225/199 193/227/199
f 186/203/200 200/226/200 201/228/200
f 178/219/201 194/229/201 179/204/201
f 186/203/202 202/230/202 187/205/202
f 180/206/203 194/229/203 195/231/203
f 187/205/204 203/232/204 188/207/204
f 181/208/205 195/231/205 196/233/205
f 174/210/206 1/234/206 189/220/206
f 8/235/207 188/207/207 203/232/207
f 181/208/208 197/236/208 182/212/208
f 193/227/209 209/237/209 194/229/209
f 201/228/210 217/238/210 202/230/210
f 195/231/211 209/237/211 210/239/211
f 202/230/212 218/240/212 203/232/212
f 196/233/213 210/239/213 211/241/213
f 189/220/214 1/242/214 204/243/214
f 8/244/215 203/232/215 218/240/215
f 196/233/216 212/245/216 197/236/216
f 189/220/217 205/246/217 190/221/217
f 197/236/218 213/247/218 198/222/218
f 190/221/219 206/248/219 191/223/219
f 199/224/220 213/247/220 214/249/220
f 191/223/221 207/250/221 192/225/221
f 199/224/222 215/251/222 200/226/222
f 193/227/223 207/250/223 208/252/223
f 201/228/224 215/251/224 216/253/224
f 212/245/225 228/254/225 213/247/225
f 205/246/226 221/255/226 206/248/226
f 214/249/227 228/254/227 229/256/227
f 206/248/228 222/257/228 207/250/228
f 214/249/229 230/258/229 215/251/229
f 208/252/230 222/257/230 223/259/230
f 216/253/231 230/258/231 231/260/231
f 208/252/232 224/261/232 209/237/232
f 216/253/233 232/262/233 217/238/233
f 210/239/234 224/261/234 225/263/234
f 217/238/235 233/264/235 218/240/235
f 211/241/236 225/263/236 226/265/236
f 204/243/237 1/266/237 219/267/237
f 8/268/238 218/240/238 233/264/238
f 211/241/239 227/269/239 212/245/239
f 204/243/240 220/270/240 205/246/240
f 231/260/241 247/271/241 232/262/241
f 225/263/242 239/272/242 240/273/242
f 233/264/243 247/271/243 248/274/243
f 226/265/244 240/273/244 241/275/244
f 219/267/245 1/276/245 234/277/245
f 8/278/246 233/264/246 248/274/246
f 226/265/247 242/279/247 227/269/247
f 219/267/248 235/280/248 220/270/248
f 227/269/249 243/281/249 228/254/249
f 221/255/250 235/280/250 236/282/250
f 229/256/251 243/281/251 244/283/251
f 221/255/252 237/284/252 222/257/252
f 229/256/253 245/285/253 230/258/253
f 223/259/254 237/284/254 238/286/254
f 231/260/255 245/285/255 246/287/255
f 223/259/256 239/272/256 224/261/256
f 235/280/257 251/288/257 236/282/257
f 244/283/258 258/289/258 259/290/258
f 236/282/259 252/291/259 237/284/259
f 244/283/260 260/292/260 245/285/260
f 238/286/261 252/291/261 253/293/261
f 246/287/262 260/292/262 261/294/262
f 238/286/263 254/295/263 239/272/263
f 246/287/264 262/296/264 247/271/264
f 240/273/265 254/295/265 255/297/265
f 247/271/266 263/298/266 248/274/266
f 241/275/267 255/297/267 256/299/267
f 234/277/268 1/300/268 249/301/268
f 8/302/269 248/274/269 263/298/269
f 241/275/270 257/303/270 242/279/270
f 234/277/271 250/304/271 235/280/271
f 242/279/272 258/289/272 243/281/272
f 255/297/273 269/305/273 270/306/273
f 262/296/274 278/307/274 263/298/274
f 256/299/275 270/306/275 271/308/275
f 249/301/276 1/309/276 264/310/276
f 8/311/277 263/298/277 278/307/277
f 256/299/278 272/312/278 257/303/278
f 250/304/279 264/310/279 265/313/279
f 257/303/280 273/314/280 258/289/280
f 250/304/281 266/315/281 251/288/281
f 259/290/282 273/314/282 274/316/282
f 251/288/283 267/317/283 252/291/283
f 259/290/284 275/318/284 260/292/284
f 253/293/285 267/317/285 268/319/285
f 261/294/286 275/318/286 276/320/286
f 253/293/287 269/305/287 254/295/287
f 261/294/288 277/321/288 262/296/288
f 274/316/289 288/322/289 289/323/289
f 266/315/290 282/324/290 267/317/290
f 274/316/291 290/325/291 275/318/291
f 268/319/292 282/324/292 283/326/292
f 276/320/293 290/325/293 291/327/293
f 268/319/294 284/328/294 269/305/294
f 276/320/295 292/329/295 277/321/295
f 270/306/296 284/328/296 285/330/296
f 278/307/297 292/329/297 293/331/297
f 271/308/298 285/330/298 286/332/298
f 264/310/299 1/333/299 279/334/299
f 8/335/300 278/307/300 293/331/300
f 271/308/301 287/336/301 272/312/301
f 265/313/302 279/334/302 280/337/302
f 272/312/303 288/322/303 273/314/303
f 265/313/304 281/338/304 266/315/304
f 293/331/305 307/339/305 308/340/305
f 286/332/306 300/341/306 301/342/306
f 279/334/307 1/343/307 294/344/307
f 8/345/308 293/331/308 308/340/308
f 286/332/309 302/346/309 287/336/309
f 279/334/310 295/347/310 280/337/310
f 287/336/311 303/348/311 288/322/311
f 280/337/312 296/349/312 281/338/312
f 289/323/313 303/348/313 304/350/313
f 281/338/314 297/351/314 282/324/314
f 289/323/315 305/352/315 290/325/315
f 283/326/316 297/351/316 298/353/316
f 291/327/317 305/352/317 306/354/317
f 283/326/318 299/355/318 284/328/318
f 291/327/319 307/339/319 292/329/319
f 285/330/320 299/355/320 300/341/320
f 304/350/321 320/356/321 305/352/321
f 298/353/322 312/357/322 313/358/322
f 306/354/323 320/356/323 321/359/323
f 298/353/324 314/360/324 299/355/324
f 306/354/325 322/361/325 307/339/325
f 300/341/326 314/360/326 315/362/326
f 307/339/327 323/363/327 308/340/327
f 301/342/328 315/362/328 316/364/328
f 294/344/329 1/365/329 309/366/329
f 8/367/330 308/340/330 323/363/330
f 301/342/331 317/368/331 302/346/331
f 294/344/332 310/369/332 295/347/332
f 302/346/333 318/370/333 303/348/333
f 295/347/334 311/371/334 296/349/334
f 304/350/335 318/370/335 319/372/335
f 296/349/336 312/357/336 297/351/336
f 309/366/337 1/373/337 324/374/337
f 8/375/338 323/363/338 338/376/338
f 316/364/339 332/377/339 317/368/339
f 309/366/340 325/378/340 310/369/340
f 317/368/341 333/379/341 318/370/341
f 310/369/342 326/380/342 311/371/342
f 319/372/343 333/379/343 334/381/343
f 311/371/344 327/382/344 312/357/344
f 319/372/345 335/383/345 320/356/345
f 312/357/346 328/384/346 313/358/346
f 321/359/347 335/383/347 336/385/347
f 313/358/348 329/386/348 314/360/348
f 321/359/349 337/387/349 322/361/349
f 315/362/350 329/386/350 330/388/350
f 322/361/351 338/376/351 323/363/351
f 316/364/352 330/388/352 331/389/352
f 328/384/353 342/390/353 343/391/353
f 336/385/354 350/392/354 351/393/354
f 328/384/355 344/394/355 329/386/355
f 336/385/356 352/395/356 337/387/356
f 330/388/357 344/394/357 345/396/357
f 337/387/358 353/397/358 338/376/358
f 331/389/359 345/396/359 346/398/359
f 324/374/360 1/399/360 339/400/360
f 8/401/361 338/376/361 353/397/361
f 331/389/362 347/402/362 332/377/362
f 324/374/363 340/403/363 325/378/363
f 332/377/364 348/404/364 333/379/364
f 325/378/365 341/405/365 326/380/365
f 334/381/366 348/404/366 349/406/366
f 326/380/367 342/390/367 327/382/367
f 334/381/368 350/392/368 335/383/368
f 346/398/369 362/407/369 347/402/369
f 339/400/370 355/408/370 340/403/370
f 347/402/371 363/409/371 348/404/371
f 341/405/372 355/408/372 356/410/372
f 349/406/373 363/409/373 364/411/373
f 341/405/374 357/412/374 342/390/374
f 349/406/375 365/413/375 350/392/375
f 343/391/376 357/412/376 358/414/376
f 351/393/377 365/413/377 366/415/377
f 343/391/378 359/416/378 344/394/378
f 351/393/379 367/417/379 352/395/379
f 345/396/380 359/416/380 360/418/380
f 352/395/381 368/419/381 353/397/381
f 346/398/382 360/418/382 361/420/382
f 339/400/383 1/421/383 354/422/383
f 8/423/384 353/397/384 368/419/384
f 366/424/385 380/425/385 381/426/385
f 358/427/386 374/428/386 359/429/386
f 366/424/387 382/430/387 367/431/387
f 360/432/388 374/428/388 375/433/388
f 367/431/389 383/434/389 368/435/389
f 361/436/390 375/433/390 376/437/390
f 354/438/391 1/439/391 369/440/391
f 8/441/392 368/435/392 383/434/392
f 361/436/393 377/442/393 362/443/393
f 354/438/394 370/444/394 355/445/394
f 362/443/395 378/446/395 363/447/395
f 356/448/396 370/444/396 371/449/396
f 364/450/397 378/446/397 379/451/397
f 356/448/398 372/452/398 357/453/398
f 364/450/399 380/425/399 365/454/399
f 358/427/400 372/452/400 373/455/400
f 369/440/401 385/456/401 370/444/401
f 377/442/402 393/457/402 378/446/402
f 371/449/403 385/456/403 386/458/403
f 379/451/404 393/457/404 394/459/404
f 371/449/405 387/460/405 372/452/405
f 379/451/406 395/461/406 380/425/406
f 373/455/407 387/460/407 388/462/407
f 381/426/408 395/461/408 396/463/408
f 373/455/409 389/464/409 374/428/409
f 381/426/410 397/465/410 382/430/410
f 375/433/411 389/464/411 390/466/411
f 382/430/412 398/467/412 383/434/412
f 376/437/413 390/466/413 391/468/413
f 369/440/414 1/469/414 384/470/414
f 8/471/415 383/434/415 398/467/415
f 376/437/416 392/472/416 377/442/416
f 388/462/417 404/473/417 389/464/417
f 397/465/418 411/474/418 412/475/418
f 390/466/419 404/473/419 405/476/419
f 397/465/420 413/477/420 398/467/420
f 391/468/421 405/476/421 406/478/421
f 384/470/422 1/479/422 399/480/422
f 8/481/423 398/467/423 413/477/423
f 391/468/424 407/482/424 392/472/424
f 385/456/425 399/480/425 400/483/425
f 392/472/426 408/484/426 393/457/426
f 385/456/427 401/485/427 386/458/427
f 394/459/428 408/484/428 409/486/428
f 386/458/429 402/487/429 387/460/429
f 394/459/430 410/488/430 395/461/430
f 388/462/431 402/487/431 403/489/431
f 396/463/432 410/488/432 411/474/432
f 407/482/433 423/490/433 408/484/433
f 401/485/434 415/491/434 416/492/434
f 409/486/435 423/490/435 424/493/435
f 401/485/436 417/494/436 402/487/436
f 409/486/437 425/495/437 410/488/437
f 403/489/438 417/494/438 418/496/438
f 411/474/439 425/495/439 426/497/439
f 403/489/440 419/498/440 404/473/440
f 411/474/441 427/499/441 412/475/441
f 405/476/442 419/498/442 420/500/442
f 412/475/443 428/501/443 413/477/443
f 406/478/444 420/500/444 421/502/444
f 399/480/445 1/503/445 414/504/445
f 8/505/446 413/477/446 428/501/446
f 406/478/447 422/506/447 407/482/447
f 399/480/448 415/491/448 400/483/448
f 426/497/449 442/507/449 427/499/449
f 420/500/450 434/508/450 435/509/450
f 427/499/451 443/510/451 428/501/451
f 421/502/452 435/509/452 436/511/452
f 414/504/453 1/512/453 429/513/453
f 8/514/454 428/501/454 443/510/454
f 421/502/455 437/515/455 422/506/455
f 414/504/456 430/516/456 415/491/456
f 422/506/457 438/517/457 423/490/457
f 416/492/458 430/516/458 431/518/458
f 424/493/459 438/517/459 439/519/459
f 416/492/460 432/520/460 417/494/460
f 424/493/461 440/521/461 425/495/461
f 418/496/462 432/520/462 433/522/462
f 426/497/463 440/521/463 441/523/463
f 418/496/464 434/508/464 419/498/464
f 439/519/465 453/524/465 454/525/465
f 431/518/466 447/526/466 432/520/466
f 439/519/467 455/527/467 440/521/467
f 433/522/468 447/526/468 448/528/468
f 441/523/469 455/527/469 456/529/469
f 433/522/470 449/530/470 434/508/470
f 441/523/471 457/531/471 442/507/471
f 435/509/472 449/530/472 450/532/472
f 442/507/473 458/533/473 443/510/473
f 436/511/474 450/532/474 451/534/474
f 429/513/475 1/535/475 444/536/475
f 8/537/476 443/510/476 458/533/476
f 436/511/477 452/538/477 437/515/477
f 430/516/478 444/536/478 445/539/478
f 437/515/479 453/524/479 438/517/479
f 430/516/480 446/540/480 431/518/480
f 458/533/481 472/541/481 473/542/481
f 451/534/482 465/543/482 466/544/482
f 444/536/483 1/545/483 459/546/483
f 8/547/484 458/533/484 473/542/484
f 451/534/485 467/548/485 452/538/485
f 444/536/486 460/549/486 445/539/486
f 452/538/487 468/550/487 453/524/487
f 446/540/488 460/549/488 461/551/488
f 454/525/489 468/550/489 469/552/489
f 446/540/490 462/553/490 447/526/490
f 454/525/491 470/554/491 455/527/491
f 448/528/492 462/553/492 463/555/492
f 456/529/493 470/554/493 471/556/493
f 448/528/494 464/557/494 449/530/494
f 456/529/495 472/541/495 457/531/495
f 450/532/496 464/557/496 465/543/496
f 462/553/497 2/32/497 476/4/497
f 469/552/498 479/8/498 470/554/498
f 463/555/499 476/4/499 3/9/499
f 471/556/500 479/8/500 480/12/500
f 464/557/501 3/9/501 477/13/501
f 471/556/502 481/16/502 472/541/502
f 465/543/503 477/13/503 4/17/503
f 472/541/504 482/20/504 473/542/504
f 466/544/505 4/17/505 5/22/505
f 459/546/506 1/558/506 474/23/506
f 8/559/507 473/542/507 482/20/507
f 466/544/508 6/28/508 467/548/508
f 460/549/509 474/23/509 475/29/509
f 467/548/510 478/1/510 468/550/510
f 461/551/511 475/29/511 2/32/511
f 468/550/512 7/3/512 469/552/512
f 478/1/1 18/31/1 19/2/1
f 476/4/2 2/32/2 11/5/2
f 7/3/3 19/2/3 20/7/3
f 3/9/4 476/4/4 12/6/4
f 479/8/5 20/7/5 21/11/5
f 477/13/6 3/9/6 13/10/6
f 480/12/7 21/11/7 22/15/7
f 4/17/8 477/13/8 14/14/8
f 481/16/9 22/15/9 23/19/9
f 4/17/513 15/18/513 16/21/513
f 5/22/514 16/21/514 17/27/514
f 475/29/14 474/23/14 9/25/14
f 6/28/15 17/27/15 18/31/15
f 2/32/16 475/29/16 10/30/16
f 17/27/17 32/48/17 33/33/17
f 10/30/18 25/49/18 26/34/18
f 18/31/19 33/33/19 34/35/19
f 11/5/20 26/34/20 27/36/20
f 19/2/21 34/35/21 35/37/21
f 12/6/22 27/36/22 28/38/22
f 21/11/23 20/7/23 35/37/23
f 13/10/24 28/38/24 29/40/24
f 22/15/25 21/11/25 36/39/25
f 15/18/26 14/14/26 29/40/26
f 22/15/27 37/41/27 38/43/27
f 15/18/28 30/42/28 31/44/28
f 16/21/31 31/44/31 32/48/31
f 9/25/32 24/46/32 25/49/32
f 36/39/515 51/65/515 52/50/515
f 29/40/34 44/66/34 45/51/34
f 37/41/35 52/50/35 53/52/35
f 30/42/36 45/51/36 46/53/36
f 32/48/39 31/44/39 46/53/39
f 24/46/40 39/55/40 40/58/40
f 32/48/41 47/57/41 48/59/41
f 25/49/516 40/58/516 41/60/516
f 34/35/43 33/33/43 48/59/43
f 26/34/44 41/60/44 42/62/44
f 35/37/45 34/35/45 49/61/45
f 27/36/46 42/62/46 43/64/46
f 36/39/47 35/37/47 50/63/47
f 28/38/48 43/64/48 44/66/48
f 40/58/49 55/83/49 56/67/49
f 49/61/50 48/59/50 63/68/50
f 41/60/51 56/67/51 57/70/51
f 49/61/52 64/69/52 65/71/52
f 42/62/53 57/70/53 58/72/53
f 50/63/54 65/71/54 66/73/54
f 43/64/55 58/72/55 59/74/55
f 51/65/56 66/73/56 67/75/56
f 45/51/57 44/66/57 59/74/57
f 52/50/58 67/75/58 68/77/58
f 46/53/59 45/51/59 60/76/59
f 46/53/62 61/78/62 62/82/62
f 39/55/63 54/80/63 55/83/63
f 47/57/64 62/82/64 63/68/64
f 60/76/65 59/74/65 74/84/65
f 67/75/517 82/100/517 83/86/517
f 61/78/67 60/76/67 75/85/67
f 61/78/70 76/87/70 77/91/70
f 54/80/71 69/89/71 70/92/71
f 62/82/72 77/91/72 78/93/72
f 55/83/73 70/92/73 71/94/73
f 64/69/74 63/68/74 78/93/74
f 56/67/75 71/94/75 72/96/75
f 64/69/76 79/95/76 80/97/76
f 58/72/77 57/70/77 72/96/77
f 65/71/78 80/97/78 81/99/78
f 58/72/79 73/98/79 74/84/79
f 67/75/80 66/73/80 81/99/80
f 79/95/81 78/93/81 93/101/81
f 71/94/82 86/117/82 87/103/82
f 79/95/83 94/102/83 95/104/83
f 73/98/84 72/96/84 87/103/84
f 80/97/85 95/104/85 96/106/85
f 73/98/86 88/105/86 89/107/86
f 81/99/87 96/106/87 97/108/87
f 75/85/88 74/84/88 89/107/88
f 83/86/89 82/100/89 97/108/89
f 76/87/90 75/85/90 90/109/90
f 76/87/93 91/111/93 92/115/93
f 69/89/94 84/113/94 85/116/94
f 77/91/95 92/115/95 93/101/95
f 70/92/96 85/116/96 86/117/96
f 97/108/97 112/134/97 113/118/97
f 91/111/98 90/109/98 105/119/98
f 91/111/101 106/120/101 107/124/101
f 85/116/102 84/113/102 99/122/102
f 92/115/103 107/124/103 108/126/103
f 85/116/104 100/125/104 101/127/104
f 94/102/105 93/101/105 108/126/105
f 86/117/106 101/127/106 102/129/106
f 94/102/107 109/128/107 110/130/107
f 88/105/108 87/103/108 102/129/108
f 96/106/109 95/104/109 110/130/109
f 88/105/110 103/131/110 104/133/110
f 97/108/111 96/106/111 111/132/111
f 90/109/112 89/107/112 104/133/112
f 101/127/113 116/150/113 117/135/113
f 109/128/114 124/151/114 125/136/114
f 103/131/115 102/129/115 117/135/115
f 111/132/116 110/130/116 125/136/116
f 103/131/117 118/137/117 119/139/117
f 111/132/118 126/138/118 127/140/118
f 105/119/119 104/133/119 119/139/119
f 112/134/120 127/140/120 128/142/120
f 106/120/121 105/119/121 120/141/121
f 106/120/124 121/143/124 122/147/124
f 100/125/125 99/122/125 114/145/125
f 107/124/126 122/147/126 123/149/126
f 100/125/127 115/148/127 116/150/127
f 109/128/128 108/126/128 123/149/128
f 121/143/129 120/141/129 135/152/129
f 121/143/132 136/153/132 137/158/132
f 114/145/133 129/155/133 130/159/133
f 122/147/134 137/158/134 138/160/134
f 115/148/135 130/159/135 131/161/135
f 124/151/136 123/149/136 138/160/136
f 116/150/137 131/161/137 132/163/137
f 124/151/138 139/162/138 140/164/138
f 118/137/139 117/135/139 132/163/139
f 126/138/140 125/136/140 140/164/140
f 118/137/141 133/165/141 134/167/141
f 126/138/142 141/166/142 142/168/142
f 120/141/143 119/139/143 134/167/143
f 127/140/144 142/168/144 143/157/144
f 139/162/145 154/185/145 155/169/145
f 133/165/146 132/163/146 147/170/146
f 141/166/147 140/164/147 155/169/147
f 133/165/148 148/171/148 149/173/148
f 141/166/149 156/172/149 157/174/149
f 135/152/150 134/167/150 149/173/150
f 143/157/151 142/168/151 157/174/151
f 136/153/152 135/152/152 150/175/152
f 136/153/155 151/177/155 152/181/155
f 129/155/156 144/179/156 145/182/156
f 137/158/157 152/181/157 153/183/157
f 131/161/158 130/159/158 145/182/158
f 139/162/159 138/160/159 153/183/159
f 131/161/160 146/184/160 147/170/160
f 151/177/162 166/200/162 167/188/162
f 144/179/163 159/202/163 160/189/163
f 152/181/164 167/188/164 168/190/164
f 146/184/518 145/182/518 160/189/518
f 154/185/166 153/183/166 168/190/166
f 146/184/167 161/191/167 162/193/167
f 154/185/168 169/192/168 170/194/168
f 148/171/169 147/170/169 162/193/169
f 156/172/170 155/169/170 170/194/170
f 148/171/171 163/195/171 164/197/171
f 156/172/519 171/196/519 172/198/519
f 150/175/173 149/173/173 164/197/173
f 157/174/174 172/198/174 173/187/174
f 151/177/175 150/175/175 165/199/175
f 170/194/177 185/218/177 186/203/177
f 163/195/178 178/219/178 179/204/178
f 172/198/179 171/196/179 186/203/179
f 165/199/180 164/197/180 179/204/180
f 173/187/181 172/198/181 187/205/181
f 166/200/182 165/199/182 180/206/182
f 166/200/185 181/208/185 182/212/185
f 159/202/186 174/210/186 175/213/186
f 167/188/187 182/212/187 183/214/187
f 160/189/188 175/213/188 176/215/188
f 169/192/189 168/190/189 183/214/189
f 161/191/190 176/215/190 177/217/190
f 169/192/191 184/216/191 185/218/191
f 163/195/192 162/193/192 177/217/192
f 175/213/193 174/210/193 189/220/193
f 182/212/194 197/236/194 198/222/194
f 176/215/195 175/213/195 190/221/195
f 184/216/196 183/214/196 198/222/196
f 176/215/197 191/223/197 192/225/197
f 184/216/198 199/224/198 200/226/198
f 178/219/199 177/217/199 192/225/199
f 186/203/200 185/218/200 200/226/200
f 178/219/201 193/227/201 194/229/201
f 186/203/202 201/228/202 202/230/202
f 180/206/203 179/204/203 194/229/203
f 187/205/204 202/230/204 203/232/204
f 181/208/205 180/206/205 195/231/205
f 181/208/208 196/233/208 197/236/208
f 193/227/209 208/252/209 209/237/209
f 201/228/520 216/253/520 217/238/520
f 195/231/211 194/229/211 209/237/211
f 202/230/212 217/238/212 218/240/212
f 196/233/213 195/231/213 210/239/213
f 196/233/216 211/241/216 212/245/216
f 189/220/217 204/243/217 205/246/217
f 197/236/218 212/245/218 213/247/218
f 190/221/219 205/246/219 206/248/219
f 199/224/220 198/222/220 213/247/220
f 191/223/221 206/248/221 207/250/221
f 199/224/222 214/249/222 215/251/222
f 193/227/223 192/225/223 207/250/223
f 201/228/224 200/226/224 215/251/224
f 212/245/225 227/269/225 228/254/225
f 205/246/226 220/270/226 221/255/226
f 214/249/227 213/247/227 228/254/227
f 206/248/228 221/255/228 222/257/228
f 214/249/229 229/256/229 230/258/229
f 208/252/230 207/250/230 222/257/230
f 216/253/231 215/251/231 230/258/231
f 208/252/232 223/259/232 224/261/232
f 216/253/233 231/260/233 232/262/233
f 210/239/234 209/237/234 224/261/234
f 217/238/235 232/262/235 233/264/235
f 211/241/236 210/239/236 225/263/236
f 211/241/239 226/265/239 227/269/239
f 204/243/240 219/267/240 220/270/240
f 231/260/241 246/287/241 247/271/241
f 225/263/242 224/261/242 239/272/242
f 233/264/243 232/262/243 247/271/243
f 226/265/244 225/263/244 240/273/244
f 226/265/247 241/275/247 242/279/247
f 219/267/248 234/277/248 235/280/248
f 227/269/249 242/279/249 243/281/249
f 221/255/250 220/270/250 235/280/250
f 229/256/251 228/254/251 243/281/251
f 221/255/252 236/282/252 237/284/252
f 229/256/253 244/283/253 245/285/253
f 223/259/254 222/257/254 237/284/254
f 231/260/255 230/258/255 245/285/255
f 223/259/256 238/286/256 239/272/256
f 235/280/257 250/304/257 251/288/257
f 244/283/258 243/281/258 258/289/258
f 236/282/259 251/288/259 252/291/259
f 244/283/260 259/290/260 260/292/260
f 238/286/261 237/284/261 252/291/261
f 246/287/262 245/285/262 260/292/262
f 238/286/263 253/293/263 254/295/263
f 246/287/264 261/294/264 262/296/264
f 240/273/265 239/272/265 254/295/265
f 247/271/266 262/296/266 263/298/266
f 241/275/521 240/273/521 255/297/521
f 241/275/522 256/299/522 257/303/522
f 234/277/271 249/301/271 250/304/271
f 242/279/272 257/303/272 258/289/272
f 255/297/273 254/295/273 269/305/273
f 262/296/274 277/321/274 278/307/274
f 256/299/275 255/297/275 270/306/275
f 256/299/278 271/308/278 272/312/278
f 250/304/279 249/301/279 264/310/279
f 257/303/280 272/312/280 273/314/280
f 250/304/281 265/313/281 266/315/281
f 259/290/282 258/289/282 273/314/282
f 251/288/283 266/315/283 267/317/283
f 259/290/284 274/316/284 275/318/284
f 253/293/285 252/291/285 267/317/285
f 261/294/286 260/292/286 275/318/286
f 253/293/287 268/319/287 269/305/287
f 261/294/288 276/320/288 277/321/288
f 274/316/289 273/314/289 288/322/289
f 266/315/290 281/338/290 282/324/290
f 274/316/291 289/323/291 290/325/291
f 268/319/292 267/317/292 282/324/292
f 276/320/293 275/318/293 290/325/293
f 268/319/294 283/326/294 284/328/294
f 276/320/523 291/327/523 292/329/523
f 270/306/296 269/305/296 284/328/296
f 278/307/297 277/321/297 292/329/297
f 271/308/298 270/306/298 285/330/298
f 271/308/301 286/332/301 287/336/301
f 265/313/302 264/310/302 279/334/302
f 272/312/303 287/336/303 288/322/303
f 265/313/524 280/337/524 281/338/524
f 293/331/305 292/329/305 307/339/305
f 286/332/306 285/330/306 300/341/306
f 286/332/309 301/342/309 302/346/309
f 279/334/310 294/344/310 295/347/310
f 287/336/311 302/346/311 303/348/311
f 280/337/312 295/347/312 296/349/312
f 289/323/313 288/322/313 303/348/313
f 281/338/314 296/349/314 297/351/314
f 289/323/315 304/350/315 305/352/315
f 283/326/316 282/324/316 297/351/316
f 291/327/317 290/325/317 305/352/317
f 283/326/318 298/353/318 299/355/318
f 291/327/319 306/354/319 307/339/319
f 285/330/320 284/328/320 299/355/320
f 304/350/321 319/372/321 320/356/321
f 298/353/322 297/351/322 312/357/322
f 306/354/323 305/352/323 320/356/323
f 298/353/324 313/358/324 314/360/324
f 306/354/325 321/359/325 322/361/325
f 300/341/326 299/355/326 314/360/326
f 307/339/525 322/361/525 323/363/525
f 301/342/328 300/341/328 315/362/328
f 301/342/331 316/364/331 317/368/331
f 294/344/332 309/366/332 310/369/332
f 302/346/333 317/368/333 318/370/333
f 295/347/334 310/369/334 311/371/334
f 304/350/335 303/348/335 318/370/335
f 296/349/336 311/371/336 312/357/336
f 316/364/339 331/389/339 332/377/339
f 309/366/340 324/374/340 325/378/340
f 317/368/341 332/377/341 333/379/341
f 310/369/342 325/378/342 326/380/342
f 319/372/343 318/370/343 333/379/343
f 311/371/344 326/380/344 327/382/344
f 319/372/345 334/381/345 335/383/345
f 312/357/346 327/382/346 328/384/346
f 321/359/347 320/356/347 335/383/347
f 313/358/348 328/384/348 329/386/348
f 321/359/526 336/385/526 337/387/526
f 315/362/350 314/360/350 329/386/350
f 322/361/351 337/387/351 338/376/351
f 316/364/352 315/362/352 330/388/352
f 328/384/353 327/382/353 342/390/353
f 336/385/354 335/383/354 350/392/354
f 328/384/355 343/391/355 344/394/355
f 336/385/356 351/393/356 352/395/356
f 330/388/357 329/386/357 344/394/357
f 337/387/358 352/395/358 353/397/358
f 331/389/359 330/388/359 345/396/359
f 331/389/362 346/398/362 347/402/362
f 324/374/363 339/400/363 340/403/363
f 332/377/364 347/402/364 348/404/364
f 325/378/365 340/403/365 341/405/365
f 334/381/366 333/379/366 348/404/366
f 326/380/367 341/405/367 342/390/367
f 334/381/368 349/406/368 350/392/368
f 346/398/527 361/420/527 362/407/527
f 339/400/370 354/422/370 355/408/370
f 347/402/371 362/407/371 363/409/371
f 341/405/372 340/403/372 355/408/372
f 349/406/373 348/404/373 363/409/373
f 341/405/374 356/410/374 357/412/374
f 349/406/375 364/411/375 365/413/375
f 343/391/376 342/390/376 357/412/376
f 351/393/377 350/392/377 365/413/377
f 343/391/378 358/414/378 359/416/378
f 351/393/379 366/415/379 367/417/379
f 345/396/380 344/394/380 359/416/380
f 352/395/381 367/417/381 368/419/381
f 346/398/528 345/396/528 360/418/528
f 366/424/385 365/454/385 380/425/385
f 358/427/386 373/455/386 374/428/386
f 366/424/387 381/426/387 382/430/387
f 360/432/388 359/429/388 374/428/388
f 367/431/389 382/430/389 383/434/389
f 361/436/529 360/432/529 375/433/529
f 361/436/530 376/437/530 377/442/530
f 354/438/394 369/440/394 370/444/394
f 362/443/395 377/442/395 378/446/395
f 356/448/396 355/445/396 370/444/396
f 364/450/397 363/447/397 378/446/397
f 356/448/398 371/449/398 372/452/398
f 364/450/399 379/451/399 380/425/399
f 358/427/400 357/453/400 372/452/400
f 369/440/401 384/470/401 385/456/401
f 377/442/402 392/472/402 393/457/402
f 371/449/403 370/444/403 385/456/403
f 379/451/404 378/446/404 393/457/404
f 371/449/405 386/458/405 387/460/405
f 379/451/406 394/459/406 395/461/406
f 373/455/407 372/452/407 387/460/407
f 381/426/408 380/425/408 395/461/408
f 373/455/409 388/462/409 389/464/409
f 381/426/410 396/463/410 397/465/410
f 375/433/411 374/428/411 389/464/411
f 382/430/412 397/465/412 398/467/412
f 376/437/413 375/433/413 390/466/413
f 376/437/416 391/468/416 392/472/416
f 388/462/417 403/489/417 404/473/417
f 397/465/418 396/463/418 411/474/418
f 390/466/419 389/464/419 404/473/419
f 397/465/420 412/475/420 413/477/420
f 391/468/421 390/466/421 405/476/421
f 391/468/424 406/478/424 407/482/424
f 385/456/425 384/470/425 399/480/425
f 392/472/426 407/482/426 408/484/426
f 385/456/427 400/483/427 401/485/427
f 394/459/428 393/457/428 408/484/428
f 386/458/429 401/485/429 402/487/429
f 394/459/430 409/486/430 410/488/430
f 388/462/431 387/460/431 402/487/431
f 396/463/432 395/461/432 410/488/432
f 407/482/433 422/506/433 423/490/433
f 401/485/434 400/483/434 415/491/434
f 409/486/435 408/484/435 423/490/435
f 401/485/436 416/492/436 417/494/436
f 409/486/437 424/493/437 425/495/437
f 403/489/438 402/487/438 417/494/438
f 411/474/439 410/488/439 425/495/439
f 403/489/440 418/496/440 419/498/440
f 411/474/441 426/497/441 427/499/441
f 405/476/442 404/473/442 419/498/442
f 412/475/443 427/499/443 428/501/443
f 406/478/444 405/476/444 420/500/444
f 406/478/447 421/502/447 422/506/447
f 399/480/448 414/504/448 415/491/448
f 426/497/449 441/523/449 442/507/449
f 420/500/450 419/498/450 434/508/450
f 427/499/451 442/507/451 443/510/451
f 421/502/452 420/500/452 435/509/452
f 421/502/455 436/511/455 437/515/455
f 414/504/456 429/513/456 430/516/456
f 422/506/457 437/515/457 438/517/457
f 416/492/458 415/491/458 430/516/458
f 424/493/459 423/490/459 438/517/459
f 416/492/460 431/518/460 432/520/460
f 424/493/461 439/519/461 440/521/461
f 418/496/462 417/494/462 432/520/462
f 426/497/463 425/495/463 440/521/463
f 418/496/464 433/522/464 434/508/464
f 439/519/465 438/517/465 453/524/465
f 431/518/466 446/540/466 447/526/466
f 439/519/467 454/525/467 455/527/467
f 433/522/468 432/520/468 447/526/468
f 441/523/469 440/521/469 455/527/469
f 433/522/470 448/528/470 449/530/470
f 441/523/471 456/529/471 457/531/471
f 435/509/472 434/508/472 449/530/472
f 442/507/473 457/531/473 458/533/473
f 436/511/474 435/509/474 450/532/474
f 436/511/477 451/534/477 452/538/477
f 430/516/478 429/513/478 444/536/478
f 437/515/479 452/538/479 453/524/479
f 430/516/480 445/539/480 446/540/480
f 458/533/481 457/531/481 472/541/481
f 451/534/482 450/532/482 465/543/482
f 451/534/485 466/544/485 467/548/485
f 444/536/486 459/546/486 460/549/486
f 452/538/487 467/548/487 468/550/487
f 446/540/488 445/539/488 460/549/488
f 454/525/489 453/524/489 468/550/489
f 446/540/490 461/551/490 462/553/490
f 454/525/491 469/552/491 470/554/491
f 448/528/492 447/526/492 462/553/492
f 456/529/493 455/527/493 470/554/493
f 448/528/494 463/555/494 464/557/494
f 456/529/495 471/556/495 472/541/495
f 450/532/496 449/530/496 464/557/496
f 462/553/497 461/551/497 2/32/497
f 469/552/498 7/3/498 479/8/498
f 463/555/499 462/553/499 476/4/499
f 471/556/500 470/554/500 479/8/500
f 464/557/501 463/555/501 3/9/501
f 471/556/502 480/12/502 481/16/502
f 465/543/503 464/557/503 477/13/503
f 472/541/504 481/16/504 482/20/504
f 466/544/505 465/543/505 4/17/505
f 466/544/508 5/22/508 6/28/508
f 460/549/509 459/546/509 474/23/509
f 467/548/510 6/28/510 478/1/510
f 461/551/511 460/549/511 475/29/511
f 468/550/512 478/1/512 7/3/512
